<?xml version="1.0" encoding="utf-8"?>
<!-- Generator: Adobe Illustrator 19.1.0, SVG Export Plug-In . SVG Version: 6.00 Build 0)  -->
<!DOCTYPE svg PUBLIC "-//W3C//DTD SVG 1.1//EN" "http://www.w3.org/Graphics/SVG/1.1/DTD/svg11.dtd">
<svg version="1.1" id="Layer_1" xmlns="http://www.w3.org/2000/svg" xmlns:xlink="http://www.w3.org/1999/xlink" x="0px" y="0px"
	 viewBox="-193 290.7 199.3 78" style="enable-background:new -193 290.7 199.3 78;" xml:space="preserve">
<style type="text/css">
	.st0{fill:none;stroke:#FFFFFF;stroke-width:0.5;stroke-miterlimit:10;}
	.st1{opacity:0.62;fill:#BA9BC9;enable-background:new    ;}
	.st2{opacity:0.84;fill:#BA9BC9;enable-background:new    ;}
	.st3{font-family:'AmelianScript';}
	.st4{font-size:50.7155px;}
</style>
<g id="XMLID_67_">
	<path id="XMLID_70_" class="st0" d="M-188.6,386.8h0.2v4.7h-0.2V386.8z M-188.6,401.8l2.3-7.6h0.2l-2.3,7.6H-188.6z M-188.6,401.8
		l0.2-6h0.2l-0.2,6H-188.6z M-188.6,401.8h0.2v4.1h-0.2V401.8z M-188.6,405.9h0.2v3.1h-0.2V405.9z M-188.6,378.4l0.2-0.1l1.7,2.5
		l-0.2,0.1L-188.6,378.4z M-188.6,378.4h0.2v5.5h-0.2V378.4z M-188.6,383.8l1.6-3l0.2,0.1l-1.6,3L-188.6,383.8z M-188.6,383.9h0.2
		v3.3h-0.2V383.9z M-188.6,391.5h0.2l0.1,4.3h-0.2L-188.6,391.5z M-188.6,401.7l4.3-6l0.2,0.1l-4.3,6L-188.6,401.7z M-188.6,401.8
		l0.1-0.2l2,1.8l-0.2,0.2L-188.6,401.8z M-188.6,405.8l1.9-2.3l0.2,0.1l-1.9,2.4L-188.6,405.8z M-188.6,384l0.1-0.2l3.2,3.6
		l-0.2,0.2L-188.6,384z M-188.6,386.9l0.1-0.2l3.2,0.7v0.2L-188.6,386.9z M-188.6,391.4l3.2-4l0.2,0.1l-3.2,4L-188.6,391.4z
		 M-188.6,391.6l0.2-0.1l2.3,2.6l-0.2,0.1L-188.6,391.6z M-188.6,401.7l3.8-1.8l0.1,0.2l-3.8,1.8L-188.6,401.7z M-188.6,406l0.1-0.2
		l3,1.3l-0.1,0.2L-188.6,406z M-188.6,408.9l3-1.8l0.1,0.2l-2.9,1.8L-188.6,408.9z M-188.5,378.5v-0.2h5.4v0.2H-188.5z
		 M-188.5,383.8l3.8-1.5l0.1,0.2l-3.9,1.5V383.8z M-188.5,409.1v-0.2h1.6v0.2H-188.5z M-188.4,395.7l2.1-1.7l0.1,0.2l-2.2,1.7V395.7
		z M-186.9,380.8l3.8-2.5l0.1,0.2l-3.8,2.4L-186.9,380.8z M-186.9,380.9l0.1-0.2l2.2,1.5l-0.2,0.2L-186.9,380.9z M-186.9,409
		l1.3-1.8l0.2,0.1l-1.3,1.8L-186.9,409z M-186.8,408.9h5v0.2h-5V408.9z M-186.7,403.5l1.9-3.6l0.2,0.1l-1.9,3.6L-186.7,403.5z
		 M-186.7,403.6h0.2l1.1,3.6h-0.2L-186.7,403.6z M-186.6,403.5l3.7-0.6v0.2l-3.7,0.6C-186.6,403.7-186.6,403.5-186.6,403.5z
		 M-186.3,394.1l0.9-6.6h0.2l-0.9,6.6H-186.3z M-186.3,394.1l2.2-3.3l0.2,0.1l-2.2,3.3L-186.3,394.1z M-186.3,394.2l0.1-0.2l2,1.7
		l-0.1,0.2L-186.3,394.2z M-185.6,407.1l2.6-4.2l0.2,0.1l-2.7,4.2L-185.6,407.1z M-185.6,407.1l3.6-1.8l0.1,0.2l-3.7,1.8V407.1z
		 M-185.6,407.3l0.1-0.2l3.7,1.8l-0.1,0.2L-185.6,407.3z M-185.4,387.5l0.6-5.2h0.2l-0.6,5.1h-0.2V387.5z M-185.4,387.4l2.2-2
		l0.1,0.2l-2.2,2L-185.4,387.4z M-185.4,387.6l0.2-0.1l1.4,3.3l-0.2,0.1L-185.4,387.6z M-185.4,387.6l0.1-0.2l3.4,1.8l-0.1,0.2
		L-185.4,387.6z M-184.8,382.3l1.6-4h0.2l-1.6,4H-184.8z M-184.8,382.4l0.2-0.1l1.6,3.2l-0.2,0.1L-184.8,382.4z M-184.8,400l0.5-4.2
		h0.2l-0.5,4.2H-184.8z M-184.8,399.9l2.8-2l0.1,0.2l-2.8,2L-184.8,399.9z M-184.8,400l0.2-0.1l1.8,3l-0.2,0.1L-184.8,400z
		 M-184.7,382.5v-0.2l2.8,0.7v0.2L-184.7,382.5z M-184.3,395.8l0.2-5h0.2l-0.2,5H-184.3z M-184.3,395.7l2.3-2.1l0.1,0.2l-2.3,2.1
		L-184.3,395.7z M-184.3,395.9l0.1-0.2l2.3,2.2l-0.1,0.1L-184.3,395.9z M-184.1,390.9l0.2-0.1l2.1,2.8l-0.2,0.2L-184.1,390.9z
		 M-184,390.8l2.1-1.6l0.1,0.2l-2.1,1.6L-184,390.8z M-183.2,378.4h0.2l1.2,4.8h-0.2L-183.2,378.4z M-183.2,385.5l1.2-2.4l0.2,0.1
		l-1.2,2.4L-183.2,385.5z M-183.2,385.6l0.2-0.1l1.2,3.8h-0.2L-183.2,385.6z M-183.1,378.3h1.4v0.2h-1.4V378.3z M-183,402.9l1-5h0.2
		l-1,5H-183z M-183,403l0.2-0.1l1,2.4l-0.2,0.1L-183,403z M-182,383.1l0.2-4.8h0.2l-0.2,4.8H-182z M-182,383.1h0.2v6.2h-0.2V383.1z
		 M-182,393.7v-4.4h0.2v4.4H-182z M-182,393.7h0.2v4.2h-0.2V393.7z M-182,405.4V398h0.2v7.4H-182z M-182,405.4h0.2v3.6h-0.2V405.4z"
		/>
	<path id="XMLID_135_" class="st0" d="M-174,398.5C-174.1,398.5-174.1,398.5-174,398.5C-174.1,398.4-174.1,398.4-174,398.5
		c-0.1-0.1-0.1-0.1,0-0.2l3.5-2.4c0.1-0.1,0.1-0.1,0.2,0c0,0.1,0,0.1,0,0.2L-174,398.5L-174,398.5z M-172.8,404.2
		c-0.1,0-0.1,0-0.1-0.1l-1.2-5.7c-0.1-0.1,0-0.1,0.1-0.1s0.1,0,0.1,0.1l1.2,5.7C-172.7,404.1-172.7,404.2-172.8,404.2z M-174,398.5
		L-174,398.5c-0.1-0.1-0.1-0.1-0.1-0.1l1.6-5.3c0.1-0.1,0.1-0.1,0.1,0c0.1,0,0.1,0,0.1,0.1l-1.6,5.2C-174,398.5-174,398.5-174,398.5
		z M-171,401l-3.1-2.6c-0.1-0.1-0.1-0.1,0-0.1c0.1-0.1,0.1-0.1,0.2,0l3.1,2.6c0.1,0.1,0.1,0.1,0,0.2L-171,401
		C-170.9,401-171,401-171,401z M-170.1,407.3C-170.1,407.3-170.2,407.3-170.1,407.3l-2.8-3.2c-0.1,0-0.1-0.1,0-0.1
		c0.1-0.1,0.1-0.1,0.2,0l2.7,3.2C-170,407.2-170,407.3-170.1,407.3L-170.1,407.3z M-172.9,404.2c0,0,0-0.1,0-0.2l1.9-3.1
		c0.1-0.1,0.1-0.1,0.2,0v0.1l-1.9,3.2H-172.9L-172.9,404.2z M-172.4,393.2L-172.4,393.2c-0.1-0.1-0.1-0.1-0.1-0.2l3.1-3.1h0.1
		c0.1,0.1,0.1,0.1,0,0.2L-172.4,393.2L-172.4,393.2z M-170.5,396C-170.6,396-170.6,396-170.5,396l-2-2.8c-0.1,0-0.1-0.1,0-0.1
		c0.1-0.1,0.1,0,0.2,0l1.9,2.8C-170.4,395.9-170.4,395.9-170.5,396L-170.5,396z M-172.4,393.2c-0.1,0-0.1,0-0.1-0.1
		c0-0.1,0-0.1,0.1-0.1l5.6-1.1c0.1,0,0.1,0,0.1,0.1c0,0,0,0.1-0.1,0.1L-172.4,393.2z M-171,401L-171,401c-0.1-0.1-0.1-0.1,0-0.2
		l3.5-3.1c0.1,0,0.1,0,0.2,0c0,0.1,0,0.1,0,0.1L-171,401C-170.9,401-170.9,401-171,401z M-167.9,404.8L-167.9,404.8L-167.9,404.8
		l-3.1-3.8c-0.1-0.1-0.1-0.1,0-0.2c0,0,0.1,0,0.2,0l3,3.8C-167.8,404.7-167.8,404.7-167.9,404.8
		C-167.8,404.8-167.9,404.8-167.9,404.8z M-171,401v-0.1l0.4-5c0-0.1,0-0.1,0.1-0.1s0.1,0,0.1,0.1l-0.4,5
		C-170.8,401-170.9,401-171,401z M-166.9,401.4l-4.1-0.4v-0.1c0-0.1,0-0.1,0.1-0.1l4.1,0.4c0.1,0,0.1,0,0.1,0.1
		C-166.8,401.4-166.8,401.4-166.9,401.4z M-170.1,407.3C-170.2,407.3-170.2,407.3-170.1,407.3l-0.9-6.3c0-0.1,0-0.1,0.1-0.1
		c0.1,0,0.1,0,0.1,0.1l0.8,6.3C-170,407.3-170,407.3-170.1,407.3z M-170.6,396c-0.1,0-0.1-0.1,0-0.1l3.7-3.8h0.1
		c0.1,0.1,0.1,0.1,0,0.2l-3.6,3.7H-170.6L-170.6,396z M-167.4,398C-167.5,398-167.5,397.9-167.4,398l-3.2-2c-0.1-0.1-0.1-0.1,0-0.2
		c0,0,0,0,0.1,0l3.1,2C-167.3,397.8-167.3,397.8-167.4,398C-167.4,397.9-167.4,398-167.4,398z M-170.5,396c-0.1,0-0.1,0-0.1-0.1
		s0-0.1,0.1-0.1l4.2-0.3c0.1,0,0.1,0,0.1,0.1c0,0.1,0,0.1-0.1,0.1L-170.5,396z M-170.1,407.3L-170.1,407.3c-0.1-0.1-0.1-0.1-0.1-0.2
		l2.2-2.5c0,0,0.1,0,0.2,0c0.1,0.1,0.1,0.1,0,0.2L-170.1,407.3L-170.1,407.3z M-165.6,409.5L-165.6,409.5l-4.6-2.2
		c-0.1-0.1-0.1-0.1,0-0.1c0-0.1,0-0.1,0.1,0l4.5,2.2C-165.5,409.4-165.5,409.5-165.6,409.5C-165.5,409.5-165.5,409.5-165.6,409.5z
		 M-169.4,390.1L-169.4,390.1c-0.1-0.2-0.1-0.2,0-0.2l5.4-1.4c0.1,0,0.1,0,0.1,0.1c0,0.1,0,0.1-0.1,0.1L-169.4,390.1
		C-169.3,390.1-169.3,390.1-169.4,390.1z M-166.9,392.1l-2.5-2c0,0,0-0.1,0-0.2c0.1-0.1,0.1-0.1,0.2,0l2.5,2c0,0,0,0.1,0,0.2
		L-166.9,392.1C-166.9,392.2-166.9,392.1-166.9,392.1z M-167.9,404.8C-167.9,404.8-168,404.8-167.9,404.8c-0.1-0.1-0.1-0.1,0-0.2
		l3.2-1.7c0.1,0,0.1,0,0.2,0.1c0,0.1,0,0.1,0,0.1L-167.9,404.8L-167.9,404.8z M-165.6,409.5C-165.7,409.5-165.7,409.5-165.6,409.5
		l-2.4-4.8v-0.1c0.1-0.1,0.1-0.1,0.1,0l2.3,4.8C-165.5,409.4-165.5,409.5-165.6,409.5L-165.6,409.5z M-167.9,404.8L-167.9,404.8
		c-0.1-0.1-0.1-0.1-0.1-0.1l1-3.4c0-0.1,0-0.1,0.1-0.1c0.1,0.1,0.1,0.1,0.1,0.1l-1,3.4C-167.8,404.8-167.9,404.8-167.9,404.8z
		 M-167.4,398L-167.4,398c-0.1-0.1-0.1-0.1-0.1-0.2l1.2-2.2c0-0.1,0-0.1,0.1-0.1c0.1,0.1,0.1,0.1,0,0.2L-167.4,398
		C-167.4,397.9-167.4,398-167.4,398z M-166.9,401.4C-166.9,401.4-167,401.4-166.9,401.4l-0.6-3.5c-0.1-0.1,0-0.1,0.1-0.1
		c0,0,0.1,0,0.1,0.1l0.6,3.4C-166.8,401.4-166.8,401.4-166.9,401.4L-166.9,401.4z M-163.6,394.5l-3.3-2.4c-0.1,0-0.1,0,0-0.1
		c0-0.1,0-0.1,0.1,0l3.3,2.4c0.1,0,0.1,0,0,0.1H-163.6L-163.6,394.5z M-166.9,392.1C-167,392.1-167,392-166.9,392.1l2.9-3.6h0.1v0.1
		L-166.9,392.1L-166.9,392.1C-166.9,392.2-166.9,392.1-166.9,392.1z M-166.9,392.1L-166.9,392.1c-0.1-0.1,0-0.2,0-0.2l5.5-3.2
		c0.1-0.1,0.1-0.1,0.1,0c0.1,0.1,0.1,0.1,0,0.1L-166.9,392.1L-166.9,392.1C-166.9,392.2-166.9,392.2-166.9,392.1z M-166.3,395.7
		c-0.1,0-0.1,0-0.1-0.1l-0.6-3.5c0-0.1,0-0.1,0.1-0.1c0.1,0,0.1,0,0.1,0.1l0.6,3.5C-166.2,395.6-166.2,395.7-166.3,395.7z
		 M-164.7,403.1l-2.2-1.7c0,0,0-0.1,0-0.2c0.1-0.1,0.1-0.1,0.2,0l2.2,1.7v0.1L-164.7,403.1L-164.7,403.1z M-166.3,395.7
		C-166.4,395.7-166.4,395.7-166.3,395.7c-0.1-0.1-0.1-0.1,0-0.2l2.7-1.2c0.1,0,0.1,0,0.1,0.1v0.1L-166.3,395.7L-166.3,395.7z
		 M-165.6,409.5C-165.6,409.5-165.7,409.5-165.6,409.5c-0.1-0.1-0.1-0.1-0.1-0.2l3.6-3.5c0,0,0.1,0,0.2,0c0,0.1,0,0.1,0,0.1
		L-165.6,409.5L-165.6,409.5z M-165.6,409.5c-0.1,0-0.1,0-0.1-0.1l1-6.4c0-0.1,0-0.1,0.1-0.1c0.1,0,0.1,0,0.1,0.1L-165.6,409.5
		C-165.5,409.5-165.5,409.5-165.6,409.5z M-165.6,409.5c-0.1,0-0.1,0-0.1-0.1s0-0.1,0.1-0.1h4.2c0.1,0,0.1,0,0.1,0.1s0,0.1-0.1,0.1
		H-165.6z M-162,406.1L-162,406.1C-162,406-162,406-162,406.1l-2.7-3c-0.1,0-0.1-0.1,0-0.1h0.1l2.7,3
		C-161.9,406-161.9,406-162,406.1C-161.9,406.1-161.9,406.1-162,406.1z M-161.4,403.1h-3.2c-0.1,0-0.1,0-0.1-0.1
		c0-0.1,0-0.1,0.1-0.1h3.2C-161.3,402.9-161.3,402.9-161.4,403.1C-161.3,403.1-161.3,403.1-161.4,403.1z M-161.4,389l-2.6-0.3
		c-0.1,0-0.1,0-0.1-0.1c0-0.1,0-0.1,0.1-0.1l2.6,0.3c0.1,0,0.1,0,0.1,0.1S-161.3,389-161.4,389z M-163.6,394.5L-163.6,394.5
		c-0.1-0.1-0.1-0.1-0.1-0.2l3.2-1.8c0.1,0,0.1,0,0.2,0c0,0.1,0,0.1,0,0.2L-163.6,394.5L-163.6,394.5z M-163.6,394.5L-163.6,394.5
		c-0.1,0-0.1-0.1-0.1-0.1l2.2-5.5c0.1-0.1,0.1-0.1,0.1,0c0.1,0,0.1,0,0.1,0.1L-163.6,394.5C-163.5,394.5-163.5,394.5-163.6,394.5z
		 M-158.3,395.7L-158.3,395.7l-5.3-1.2c-0.1,0-0.1,0-0.1-0.1c0.1-0.1,0.1-0.1,0.1-0.1l5.3,1.2c0.1,0,0.1,0,0.1,0.1
		C-158.2,395.7-158.2,395.7-158.3,395.7z M-162,406.1L-162,406.1c-0.1-0.1-0.1-0.1,0-0.2l3.6-3.9h0.1c0.1,0.1,0.1,0.1,0,0.2
		L-162,406.1C-161.9,406-161.9,406-162,406.1C-161.9,406.1-161.9,406.1-162,406.1z M-162,406.1L-162,406.1c-0.1-0.2,0-0.2,0.1-0.2
		l3.6-0.3c0.1,0,0.1,0,0.1,0.1c0,0,0,0.1-0.1,0.1L-162,406.1z M-161.4,409.5c0,0-0.1,0-0.1-0.1l-0.5-3.4c-0.1-0.1,0-0.1,0.1-0.1
		c0.1,0,0.1,0,0.1,0.1l0.6,3.4C-161.3,409.5-161.3,409.5-161.4,409.5z M-162,406.1C-162,406-162.1,406-162,406.1l0.6-3.1
		c0-0.1,0-0.1,0.1-0.1c0.1,0.1,0.1,0.1,0.1,0.1L-162,406.1C-161.9,406.1-161.9,406.1-162,406.1z M-161.4,409.5
		C-161.5,409.5-161.5,409.5-161.4,409.5c-0.1-0.1-0.1-0.1,0-0.2l3-1.4c0.1-0.1,0.1-0.1,0.1,0c0.1,0.1,0.1,0.1,0,0.1L-161.4,409.5
		L-161.4,409.5z M-158.3,390.1L-158.3,390.1l-3.1-1.1c0,0,0-0.1,0-0.2s0-0.1,0.1,0l3.1,1.1c0.1,0,0.1,0,0.1,0.1
		C-158.3,390.1-158.3,390.1-158.3,390.1z M-160.4,392.7c0,0-0.1,0-0.1-0.1l-1-3.7c0-0.1,0-0.1,0.1-0.1c0,0,0.1,0,0.1,0.1l1,3.7
		C-160.3,392.6-160.3,392.7-160.4,392.7z M-161.4,403.1C-161.5,403.1-161.5,403.1-161.4,403.1c-0.1-0.1-0.1-0.2,0-0.2l3-0.9
		c0.1-0.1,0.1-0.1,0.1,0c0.1,0.1,0.1,0.1,0,0.1L-161.4,403.1L-161.4,403.1z M-160.4,392.6C-160.5,392.6-160.5,392.6-160.4,392.6
		l2.1-2.7c0-0.1,0-0.1,0.1,0c0.1,0.1,0.1,0.1,0,0.2l-2,2.6h-0.2C-160.4,392.7-160.4,392.7-160.4,392.6z M-158.3,395.7L-158.3,395.7
		l-2.1-3.1c-0.1-0.1-0.1-0.1,0-0.2c0.1,0,0.1,0,0.2,0l2.1,3C-158.2,395.6-158.2,395.7-158.3,395.7L-158.3,395.7L-158.3,395.7z
		 M-158.4,405.8c-0.1-0.1-0.1-0.1-0.1-0.1v-3.6c0-0.1,0-0.1,0.1-0.1c0.1,0,0.1,0,0.1,0.1v3.6C-158.3,405.7-158.3,405.8-158.4,405.8z
		 M-158.4,408.1c-0.1,0-0.1,0-0.1-0.1v-2.4c0-0.1,0-0.1,0.1-0.1c0.1,0,0.1,0,0.1,0.1L-158.4,408.1
		C-158.3,408.1-158.3,408.1-158.4,408.1z M-158.3,395.7c-0.1,0-0.1,0-0.1-0.1V390c0-0.1,0-0.1,0.1-0.1c0.1,0,0.1,0,0.1,0.1v5.6
		C-158.2,395.7-158.2,395.7-158.3,395.7z"/>
	<path id="XMLID_190_" class="st0" d="M-150.3,401.4L-150.3,401.4c-0.1-0.1-0.1-0.1,0-0.2l2.9-3.1h0.1c0.1,0,0.1,0,0,0.1
		L-150.3,401.4C-150.2,401.3-150.3,401.4-150.3,401.4z M-150.2,396.8L-150.2,396.8c-0.1,0-0.1,0-0.1-0.1l1.2-3.3
		c0.1-0.1,0.1-0.1,0.1,0c0.1,0,0.1,0,0.1,0.1L-150.2,396.8L-150.2,396.8z M-150.3,396.9L-150.3,396.9c-0.1-0.1-0.1-0.2,0-0.2
		l4.4-2.8c0.1-0.1,0.1-0.1,0.1,0c0.1,0.1,0.1,0.1,0,0.1L-150.3,396.9C-150.2,396.8-150.2,396.8-150.3,396.9
		C-150.2,396.9-150.3,396.9-150.3,396.9z M-147.4,398.2L-147.4,398.2l-3-1.4c0,0,0,0,0-0.1c0.1-0.1,0.1-0.1,0.1,0l2.9,1.3
		c0.1,0,0.1,0.1,0.1,0.1C-147.3,398.2-147.3,398.2-147.4,398.2z M-150.3,401.4c-0.1,0-0.1,0-0.1-0.1v-4.5c0-0.1,0-0.1,0.1-0.1
		c0.1,0,0.1,0,0.1,0.1v4.5C-150.2,401.3-150.2,401.4-150.3,401.4z M-150.3,401.4c-0.1,0-0.1,0-0.1-0.1s0-0.1,0.1-0.1l5.9-0.8
		c0,0,0.1,0,0.1,0.1c0,0.1,0,0.1-0.1,0.1L-150.3,401.4L-150.3,401.4z M-149,404.9C-149.1,404.9-149.1,404.9-149,404.9l-1.3-3.6
		c0-0.1,0-0.1,0.1-0.1h0.1l1.2,3.5C-148.9,404.8-148.9,404.8-149,404.9L-149,404.9z M-146.4,403.4L-146.4,403.4l-3.9-2.1
		c0,0,0,0,0-0.1c0.1-0.1,0.1-0.1,0.2,0l3.9,2.1c0,0,0,0,0,0.1C-146.3,403.4-146.4,403.4-146.4,403.4z M-149,393.6L-149,393.6
		c-0.1-0.1-0.1-0.1,0-0.2l2.5-2.8h0.1c0,0,0,0.1,0,0.2L-149,393.6L-149,393.6z M-147,407.2C-147.1,407.2-147.1,407.2-147,407.2
		l-2-2.4c-0.1-0.1-0.1-0.1,0-0.2h0.1l2,2.4C-146.9,407.2-146.9,407.2-147,407.2L-147,407.2z M-145.9,394.1l-3.1-0.5
		c-0.1,0-0.1,0-0.1-0.1c0-0.1,0-0.2,0.1-0.1l3.2,0.5c0.1,0,0.1,0,0.1,0.1C-145.8,394.1-145.9,394.1-145.9,394.1z M-149,404.9
		L-149,404.9c-0.1-0.1-0.1-0.2,0-0.2l2.6-1.4c0,0,0.1,0,0.2,0c0,0.1,0,0.1,0,0.1L-149,404.9C-149,404.8-149,404.8-149,404.9
		L-149,404.9z M-147.4,398.2c-0.1,0-0.1-0.1-0.1-0.1l1.5-4.1c0-0.1,0-0.1,0.1,0c0.1,0,0.1,0,0,0.1L-147.4,398.2
		C-147.3,398.2-147.3,398.2-147.4,398.2z M-147.4,398.2L-147.4,398.2c-0.1-0.1-0.1-0.2,0-0.2l3-1.7c0.1,0,0.1,0,0.2,0
		c0,0.1,0,0.1,0,0.2L-147.4,398.2L-147.4,398.2z M-143.9,398.5l-3.5-0.3c-0.1,0-0.1,0-0.1-0.1c0-0.1,0-0.1,0.1-0.1l3.4,0.3
		C-143.8,398.3-143.8,398.4-143.9,398.5C-143.8,398.5-143.8,398.5-143.9,398.5z M-144.4,400.5L-144.4,400.5l-3-2.4V398
		c0,0,0.1,0,0.2,0l3,2.4C-144.2,400.4-144.2,400.4-144.4,400.5C-144.3,400.5-144.3,400.5-144.4,400.5z M-147,407.2
		C-147.1,407.2-147.1,407.2-147,407.2c-0.2-0.2-0.1-0.2,0-0.2l2.6-0.6c0,0,0.1,0,0.1,0.1c0,0.1,0,0.1-0.1,0.1L-147,407.2L-147,407.2
		z M-147,407.2c-0.1,0-0.2,0-0.1-0.1l0.6-3.8c0-0.1,0-0.1,0.1-0.1c0.1,0,0.1,0,0.1,0.1l-0.6,3.8C-147,407.2-147,407.2-147,407.2z
		 M-144,409.2L-144,409.2C-144,409.1-144,409.1-144,409.2l-3.1-1.9c-0.1-0.1-0.1-0.1,0-0.2h0.1l3.1,1.9
		C-143.9,409-143.9,409-144,409.2L-144,409.2z M-146.6,390.7c0-0.1,0-0.1,0-0.1l2.7-1.5h0.1c0.1,0.1,0.1,0.1,0,0.1l-2.6,1.5l0,0
		C-146.5,390.8-146.6,390.8-146.6,390.7z M-145.9,394.1C-145.9,394.1-146,394.1-145.9,394.1l-0.8-3.4c0-0.1,0-0.1,0.1-0.1
		c0.1,0,0.1,0,0.1,0.1L-145.9,394.1C-145.8,394-145.8,394.1-145.9,394.1L-145.9,394.1z M-146.4,403.4L-146.4,403.4
		c-0.1-0.1-0.1-0.1-0.1-0.2l2-2.9c0,0,0.1,0,0.2,0c0.1,0.1,0.1,0.1,0,0.2L-146.4,403.4C-146.3,403.4-146.3,403.4-146.4,403.4z
		 M-146.5,403.3C-146.5,403.3-146.5,403.2-146.5,403.3l2.9-0.4c0,0,0.1,0,0.1,0.1c0,0.1,0,0.1-0.1,0.1l-2.8,0.3l0,0
		C-146.5,403.4-146.5,403.4-146.5,403.3z M-141.4,405L-141.4,405l-5-1.6c-0.1,0-0.1,0-0.1-0.1s0-0.1,0.1,0l5,1.6
		C-141.3,404.8-141.2,404.9-141.4,405C-141.3,405-141.3,405-141.4,405z M-144.4,406.6C-144.4,406.6-144.5,406.6-144.4,406.6
		l-2.1-3.3c0-0.1,0-0.1,0-0.1s0.1,0,0.2,0l2,3.2C-144.3,406.6-144.3,406.6-144.4,406.6L-144.4,406.6z M-145.9,394.1
		c0,0-0.1,0-0.1-0.1c0-0.1,0-0.1,0.1-0.1l2.9-0.4c0.1,0,0.1,0,0.1,0.1c0,0.1,0,0.1-0.1,0.1L-145.9,394.1z M-145.9,394.1
		L-145.9,394.1c-0.1,0-0.1-0.1-0.1-0.1l2-4.8c0.1-0.1,0.1-0.1,0.2,0c0.1,0,0.1,0,0,0.1L-145.9,394.1
		C-145.8,394.1-145.8,394.1-145.9,394.1z M-144.4,396.5L-144.4,396.5l-1.6-2.4c0-0.1,0-0.1,0-0.2c0.1-0.1,0.1-0.1,0.1,0l1.5,2.4
		C-144.2,396.4-144.2,396.5-144.4,396.5C-144.3,396.5-144.3,396.5-144.4,396.5z M-144.4,406.6C-144.5,406.6-144.5,406.6-144.4,406.6
		c-0.2-0.1-0.1-0.2,0-0.2l3-1.6c0.1,0,0.1,0,0.1,0c0,0.1,0,0.1,0,0.2L-144.4,406.6L-144.4,406.6z M-144.4,400.5
		c-0.1,0-0.2,0-0.1-0.1l0.5-2c0.1-0.1,0.1-0.1,0.1-0.1c0.1,0,0.2,0,0.1,0.1l-0.5,2C-144.3,400.5-144.4,400.5-144.4,400.5z
		 M-140.6,409.5L-140.6,409.5l-3.9-2.9c-0.1-0.1-0.1-0.1,0-0.2s0.1-0.1,0.2,0l3.8,2.9C-140.5,409.4-140.5,409.5-140.6,409.5
		C-140.5,409.5-140.5,409.5-140.6,409.5z M-143.6,403.1L-143.6,403.1l-0.9-2.7v-0.1c0.1,0,0.1,0,0.2,0.1l0.8,2.6
		C-143.4,403.1-143.4,403.1-143.6,403.1L-143.6,403.1z M-144.4,400.5C-144.5,400.5-144.5,400.5-144.4,400.5c-0.1-0.2-0.1-0.2,0-0.2
		h3.6c0.1,0,0.1,0,0.1,0.1s0,0.1-0.1,0.1H-144.4z M-138.9,407.2L-138.9,407.2l-5.5-0.6c-0.1,0-0.1,0-0.1-0.1c0-0.1,0-0.1,0.1-0.1
		l5.5,0.6C-138.9,407-138.8,407.1-138.9,407.2C-138.8,407.2-138.9,407.2-138.9,407.2z M-144,409.2c-0.1,0-0.1,0-0.1-0.1l-0.4-2.5
		c0-0.1,0-0.1,0.1-0.1c0,0,0.1,0,0.1,0.1l0.4,2.5C-143.9,409.1-143.9,409.1-144,409.2z M-144.4,396.5L-144.4,396.5
		c-0.1,0-0.1-0.1-0.1-0.2l1.4-2.8c0.1-0.1,0.1-0.1,0.2,0c0,0,0,0,0,0.1l-1.4,2.8C-144.3,396.5-144.3,396.5-144.4,396.5z
		 M-140.1,396.5h-4.2c-0.1,0-0.1,0-0.1-0.1s0-0.1,0.1-0.1h4.2C-140.1,396.3-140,396.4-140.1,396.5
		C-140,396.5-140.1,396.5-140.1,396.5z M-143.9,398.5c0,0-0.1,0-0.1-0.1l-0.4-2c0-0.1,0-0.1,0.1-0.1s0.1,0,0.1,0.1l0.4,2
		C-143.7,398.5-143.7,398.5-143.9,398.5z M-140.6,409.5L-140.6,409.5l-3.4-0.3c-0.1-0.1-0.1-0.1-0.1-0.1c0-0.1,0-0.2,0.1-0.1
		l3.4,0.4C-140.5,409.3-140.5,409.4-140.6,409.5C-140.5,409.5-140.5,409.5-140.6,409.5z M-141,391L-141,391l-3-1.7
		c-0.1,0-0.1,0,0-0.1c0-0.1,0-0.1,0.1,0l2.8,1.7C-140.9,390.8-140.9,390.8-141,391C-141,390.9-141,391-141,391z M-141.6,400.5
		L-141.6,400.5l-2.4-2c-0.1,0-0.1-0.1,0-0.1h0.1l2.4,2C-141.4,400.4-141.4,400.4-141.6,400.5C-141.5,400.5-141.5,400.5-141.6,400.5
		C-141.5,400.5-141.5,400.5-141.6,400.5z M-143.9,389.3c0,0-0.1,0-0.1-0.1s0-0.1,0.1-0.1l3.6-0.6c0.1,0,0.1,0,0.1,0.1
		c0,0.1,0,0.1-0.1,0.1L-143.9,389.3z M-143,393.8C-143.1,393.8-143.1,393.7-143,393.8l-1-4.5c0-0.1,0-0.1,0.1-0.1
		c0.1,0,0.1,0,0.1,0.1l0.9,4.4C-142.9,393.7-142.9,393.7-143,393.8L-143,393.8z M-143.9,398.5L-143.9,398.5c-0.1-0.1-0.1-0.2,0-0.2
		l3.8-2c0.1,0,0.1,0,0.1,0c0,0.1,0,0.1,0,0.2L-143.9,398.5L-143.9,398.5z M-141.5,405l-2.2-1.9c-0.1-0.1-0.1-0.1,0-0.2
		c0.1-0.1,0.1-0.1,0.2,0l2.1,1.9c0.1,0,0.1,0,0,0.1h-0.1C-141.4,405-141.5,405-141.5,405z M-143,393.8L-143,393.8
		c-0.1-0.1-0.1-0.1-0.1-0.2l2-2.8c0-0.1,0-0.1,0.1,0s0.1,0.1,0,0.1L-143,393.8C-142.9,393.7-143,393.8-143,393.8z M-143,393.8
		C-143.1,393.8-143.1,393.7-143,393.8c-0.1-0.2-0.1-0.2,0-0.2l2.8-1c0.1,0,0.1,0,0.1,0.1c0.1,0.1,0.1,0.1,0,0.1L-143,393.8
		C-143,393.7-143,393.8-143,393.8z M-141.6,400.5L-141.6,400.5c-0.1,0-0.1-0.1-0.1-0.2l1.4-4c0-0.1,0-0.1,0.1-0.1
		c0.1,0.1,0.1,0.1,0,0.1L-141.6,400.5C-141.5,400.5-141.5,400.5-141.6,400.5z M-141.6,400.5L-141.6,400.5L-141.6,400.5
		c-0.1-0.1-0.1-0.2,0-0.2l5.2-4c0.1,0,0.1,0,0.2,0c0.1,0.1,0.1,0.1,0,0.1L-141.6,400.5C-141.5,400.5-141.5,400.5-141.6,400.5
		C-141.5,400.5-141.5,400.5-141.6,400.5z M-139,407.2l-2.5-2.2c-0.1,0-0.1-0.1,0-0.1h0.1l2.5,2.2c0,0.1,0,0.1,0,0.1H-139
		C-139,407.2-139,407.2-139,407.2z M-141.4,405c0,0-0.1,0-0.1-0.1s0-0.1,0.1-0.1l3-0.6c0.1,0,0.1,0,0.1,0.1s0,0.1-0.1,0.1
		L-141.4,405z M-140.1,392.8C-140.2,392.8-140.2,392.7-140.1,392.8l-1-1.8c-0.1-0.1-0.1-0.1,0-0.1h0.1l0.9,1.8
		C-140,392.7-140,392.7-140.1,392.8L-140.1,392.8z M-141,391L-141,391c-0.1,0-0.1,0-0.1-0.1l0.8-2.3c0.1-0.1,0.1-0.1,0.2-0.1
		c0.1,0.1,0.1,0.1,0,0.2L-141,391C-141,390.9-141,391-141,391z M-141,391c-0.1,0-0.1,0-0.1,0c0-0.1,0-0.1,0.1-0.1l4.4-1.7
		c0.1,0,0.1,0,0.1,0.1c0.1,0.1,0.1,0.1,0,0.1L-141,391L-141,391z M-137,400.5h-3.8c-0.1,0-0.1,0-0.1-0.1s0-0.1,0.1-0.1h3.8
		C-137,400.3-137,400.4-137,400.5L-137,400.5z M-140.6,409.5L-140.6,409.5c-0.1-0.1-0.1-0.1-0.1-0.2l1.6-2.3c0,0,0,0,0.1,0
		c0,0,0,0.1,0,0.2L-140.6,409.5C-140.5,409.5-140.5,409.5-140.6,409.5z M-140.6,409.5c-0.1,0-0.1,0-0.1-0.1s0-0.1,0.1-0.1l3.9-0.4
		c0.1-0.1,0.1,0,0.1,0.1c0,0,0,0.1-0.1,0.1L-140.6,409.5z M-136.6,389.3l-3.6-0.6c-0.1,0-0.1,0-0.1-0.1c0.1-0.1,0.1-0.1,0.1-0.1
		l3.6,0.6C-136.5,389.1-136.5,389.1-136.6,389.3L-136.6,389.3z M-140.2,392.7c-0.1,0-0.1-0.1,0-0.1l3.5-3.5c0.1-0.1,0.1-0.1,0.2,0
		c0.1,0.1,0.1,0.1,0,0.1l-3.5,3.5H-140.2C-140.2,392.8-140.2,392.7-140.2,392.7z M-137.3,394.1L-137.3,394.1l-2.9-1.4
		c-0.1,0-0.1-0.1-0.1-0.1c0-0.1,0.1-0.1,0.2-0.1l2.8,1.4C-137.2,394-137.2,394-137.3,394.1C-137.2,394.1-137.3,394.1-137.3,394.1z
		 M-136.3,396.5h-3.8c-0.1,0-0.1,0-0.1-0.1s0-0.1,0.1-0.1h3.8C-136.2,396.3-136.2,396.4-136.3,396.5
		C-136.2,396.5-136.2,396.5-136.3,396.5z M-136.7,409.2L-136.7,409.2C-136.7,409.1-136.7,409.1-136.7,409.2l-2.3-2
		c-0.1,0-0.1,0,0-0.1h0.1l2.3,1.9C-136.5,409-136.5,409.1-136.7,409.2C-136.6,409.1-136.6,409.1-136.7,409.2
		C-136.6,409.2-136.7,409.2-136.7,409.2z M-138.9,407.2L-138.9,407.2c-0.1,0-0.1,0-0.1-0.1l0.5-2.8c0-0.1,0-0.1,0.1-0.1
		c0.1,0.1,0.1,0.1,0.1,0.1L-138.9,407.2C-138.8,407.2-138.9,407.2-138.9,407.2z M-133,407.2h-5.9c-0.1,0-0.1,0-0.1-0.1
		c0-0.1,0-0.1,0.1-0.1h5.9C-132.9,407-132.9,407.1-133,407.2C-132.9,407.2-132.9,407.2-133,407.2z M-138.5,404.5L-138.5,404.5
		c-0.1-0.1-0.1-0.1,0-0.2l2.3-2.1c0.1-0.1,0.1-0.1,0.2,0s0.1,0.1,0,0.2L-138.5,404.5L-138.5,404.5z M-138.5,400.5L-138.5,400.5
		c-0.1,0-0.1-0.1-0.1-0.2l2.2-4c0,0,0,0,0.1,0c0.1,0.1,0.1,0.1,0,0.2L-138.5,400.5C-138.4,400.5-138.5,400.5-138.5,400.5z
		 M-138.5,404.5C-138.5,404.5-138.6,404.5-138.5,404.5c-0.1-0.1-0.1-0.1,0-0.2l5.5-1c0.1-0.1,0.1,0,0.1,0c0,0.1,0,0.1-0.1,0.1
		L-138.5,404.5L-138.5,404.5z M-133,407.2L-133,407.2l-5.5-2.8v-0.1c0-0.1,0.1-0.1,0.2,0l5.3,2.7
		C-132.9,407.1-132.9,407.1-133,407.2C-132.9,407.2-132.9,407.2-133,407.2z M-137.3,394.1L-137.3,394.1
		C-137.4,394.1-137.4,394.1-137.3,394.1l0.5-4.9c0.1-0.1,0.1-0.1,0.1-0.1c0.1,0,0.2,0,0.1,0.1L-137.3,394.1
		C-137.2,394.1-137.2,394.1-137.3,394.1z M-137.3,394.1C-137.4,394.1-137.4,394.1-137.3,394.1c-0.1-0.1-0.1-0.1,0-0.2l2.6-0.8
		c0.1,0,0.1,0,0.1,0.1v0.1L-137.3,394.1z M-136.3,396.5c0,0-0.1,0-0.1-0.1l-1-2.4c0-0.1,0-0.1,0.1-0.2c0,0,0.1,0,0.1,0.1l1,2.4
		C-136.2,396.4-136.2,396.5-136.3,396.5L-136.3,396.5z M-133.6,400.5h-3.4c-0.1,0-0.1,0-0.1-0.1s0-0.1,0.1-0.1h3.5
		C-133.5,400.3-133.5,400.4-133.6,400.5C-133.5,400.5-133.5,400.5-133.6,400.5z M-136.7,409.2C-136.7,409.2-136.8,409.1-136.7,409.2
		c-0.2-0.2-0.1-0.2,0-0.2l3.7-2c0.1,0,0.1,0,0.1,0c0,0.1,0,0.1,0,0.2L-136.7,409.2L-136.7,409.2z M-134.7,393.3
		C-134.7,393.3-134.8,393.3-134.7,393.3l-2-4c-0.1,0,0-0.1,0-0.2c0.1,0,0.1,0,0.1,0.1l2,4C-134.6,393.2-134.6,393.2-134.7,393.3
		L-134.7,393.3z M-133.9,391L-133.9,391l-2.8-1.7c-0.1,0-0.1-0.1,0-0.2h0.1l2.8,1.7C-133.7,390.8-133.7,390.8-133.9,391
		C-133.8,390.9-133.8,391-133.9,391z M-133.6,400.5L-133.6,400.5l-2.8-4c-0.1-0.1-0.1-0.1,0-0.2c0.1,0,0.1,0,0.2,0l2.7,4
		C-133.5,400.4-133.5,400.5-133.6,400.5L-133.6,400.5z M-136.1,400.5C-136.1,400.5-136.2,400.5-136.1,400.5l-0.3-4.1
		c0-0.1,0-0.1,0.1-0.1c0.1,0,0.1,0,0.1,0.1l0.2,4C-136,400.5-136,400.5-136.1,400.5z M-133.6,396.8l-2.8-0.3c-0.1,0-0.1,0-0.1-0.1
		s0-0.1,0.1-0.1l2.7,0.3c0.1,0,0.1,0,0.1,0.1C-133.5,396.8-133.5,396.8-133.6,396.8z M-136.3,396.5L-136.3,396.5
		c-0.1-0.1-0.1-0.1-0.1-0.2l1.6-3.2c0-0.1,0-0.1,0.1,0c0.1,0.1,0.1,0.1,0,0.1L-136.3,396.5C-136.2,396.5-136.2,396.5-136.3,396.5z
		 M-133,403.4L-133,403.4l-3.2-1c-0.1,0-0.1,0-0.1-0.1c0.1-0.1,0.1-0.1,0.2,0l3.1,1C-132.9,403.2-132.9,403.3-133,403.4
		C-132.9,403.4-132.9,403.4-133,403.4z M-133.6,396.8c0,0-0.1,0-0.1-0.1l-1.1-3.6c-0.1-0.1-0.1-0.1,0-0.1c0.1,0,0.1,0,0.1,0.1
		l1.1,3.5C-133.5,396.7-133.5,396.8-133.6,396.8L-133.6,396.8z M-130.7,395.8L-130.7,395.8l-4-2.6c-0.1,0-0.1,0,0-0.1
		c0.1-0.1,0.1-0.1,0.1,0l4,2.5C-130.5,395.7-130.5,395.7-130.7,395.8C-130.6,395.8-130.7,395.8-130.7,395.8z M-134.7,393.3
		c0,0-0.1,0-0.1-0.1s0-0.1,0.1-0.1l2.6-0.4c0.1,0,0.1,0,0.1,0.1s0,0.1-0.1,0.1L-134.7,393.3z M-132.1,392.9
		C-132.1,392.9-132.2,392.9-132.1,392.9C-132.2,392.9-132.2,392.9-132.1,392.9l-1.8-2c-0.1,0-0.1-0.1,0-0.1c0.1-0.1,0.1-0.1,0.2,0
		l1.8,1.9C-132,392.8-132,392.8-132.1,392.9L-132.1,392.9L-132.1,392.9z M-133.6,396.8L-133.6,396.8c-0.2-0.2-0.1-0.2,0-0.2l2.9-1
		c0.1,0,0.1,0,0.2,0.1c0,0,0,0.1-0.1,0.1L-133.6,396.8L-133.6,396.8z M-130.1,398.5L-130.1,398.5l-3.5-1.7c-0.1,0-0.1,0,0-0.1
		c0-0.1,0-0.1,0.1,0l3.4,1.7C-130,398.3-130,398.4-130.1,398.5C-130,398.5-130.1,398.5-130.1,398.5z M-133.6,400.5
		c-0.1,0-0.1,0-0.1-0.1v-3.7c0-0.1,0-0.1,0.1-0.1c0.1,0,0.1,0,0.1,0.1L-133.6,400.5C-133.5,400.5-133.5,400.5-133.6,400.5z
		 M-130.1,400.5h-3.4c-0.1,0-0.1,0-0.1-0.1s0-0.1,0.1-0.1h3.4C-130.1,400.3-130,400.4-130.1,400.5
		C-130,400.5-130.1,400.5-130.1,400.5z M-133.6,400.5L-133.6,400.5c-0.1-0.1-0.1-0.1,0-0.2l3.4-2c0.1-0.1,0.1-0.1,0.1,0
		c0.1,0.1,0,0.1,0,0.1L-133.6,400.5L-133.6,400.5z M-133,407.2C-133,407.2-133.1,407.2-133,407.2c-0.2,0-0.2-0.1-0.1-0.2l2.4-3h0.1
		c0,0,0,0.1,0,0.2L-133,407.2C-132.9,407.2-133,407.2-133,407.2z M-133,407.2c-0.1,0-0.1,0-0.1-0.1v-3.8c0-0.1,0-0.1,0.1-0.1
		s0.1,0,0.1,0.1L-133,407.2C-132.9,407.2-132.9,407.2-133,407.2z M-130.6,404.2L-130.6,404.2l-2.4-0.8c-0.1,0-0.1,0,0-0.1
		c0-0.1,0-0.1,0.1,0l2.3,0.8C-130.6,404-130.6,404.1-130.6,404.2L-130.6,404.2z M-130.7,395.8L-130.7,395.8l-1.5-3
		c-0.1-0.1-0.1-0.1,0-0.1c0.1-0.1,0.1-0.1,0.1,0l1.4,2.9C-130.6,395.7-130.6,395.8-130.7,395.8L-130.7,395.8z M-130.1,398.5
		C-130.2,398.5-130.2,398.5-130.1,398.5l-0.6-2.8c0-0.1,0-0.1,0.1-0.1c0,0,0.1,0,0.1,0.1l0.6,2.7C-130,398.4-130,398.5-130.1,398.5
		L-130.1,398.5z M-130.1,400.5c-0.1,0-0.1,0-0.1-0.1v-2c0-0.1,0-0.1,0.1-0.1c0.1,0,0.1,0,0.1,0.1v2
		C-130,400.5-130,400.5-130.1,400.5z"/>
	<path id="XMLID_286_" class="st0" d="M-122.2,377.9c-0.1,0-0.1,0-0.1-0.1s0-0.1,0.1-0.1h3.6c0.1,0,0.1,0,0.1,0.1s0,0.1-0.1,0.1
		H-122.2z M-122.2,380.7c-0.1,0-0.1,0-0.1-0.1l-0.1-2.8c0-0.1,0-0.1,0.1-0.1c0.1-0.1,0.1,0,0.1,0.1l0.2,2.8
		C-122,380.7-122.1,380.7-122.2,380.7z M-120,381.8L-120,381.8l-2.4-3.9c0-0.1,0-0.1,0-0.1c0.1,0,0.1,0,0.2,0l2.2,3.8
		C-119.9,381.7-119.9,381.7-120,381.8L-120,381.8z M-122.2,396.6C-122.3,396.6-122.3,396.6-122.2,396.6l1.7-2.1h0.1
		c0.1,0,0.1,0,0,0.1L-122.2,396.6L-122.2,396.6C-122.2,396.7-122.2,396.7-122.2,396.6z M-122.2,389.8c-0.1,0-0.1-0.1,0-0.1l2.8-3.9
		c0.1-0.1,0.1-0.1,0.2,0c0,0.1,0,0.1,0,0.1l-2.8,3.9H-122.2C-122.2,389.8-122.2,389.8-122.2,389.8z M-119.2,400.6l-3.1-3.9
		c-0.1-0.1-0.1-0.1,0-0.2c0.1,0,0.1,0,0.2,0l3.1,3.9c0.1,0.1,0.1,0.1,0,0.1L-119.2,400.6C-119.1,400.6-119.2,400.6-119.2,400.6z
		 M-122.2,385.6C-122.3,385.6-122.3,385.6-122.2,385.6l-0.1-5c0-0.1,0-0.1,0.1-0.1s0.1,0,0.1,0.1L-122.2,385.6
		C-122.1,385.5-122.1,385.6-122.2,385.6z M-122.2,389.8c-0.1,0-0.1,0-0.1-0.1v-4.2c0-0.1,0-0.1,0.1-0.1s0.1,0,0.1,0.1v4.2
		C-122.1,389.8-122.1,389.8-122.2,389.8z M-119.3,385.9l-2.8-0.3c-0.1,0-0.1,0-0.1-0.1c0-0.1,0-0.1,0.1-0.1l2.9,0.3
		c0.1,0.1,0.1,0.1,0.1,0.1C-119.2,385.9-119.2,385.9-119.3,385.9z M-120.5,394.6C-120.5,394.6-120.6,394.6-120.5,394.6l-1.8-4.9
		c0-0.1,0-0.1,0.1-0.1c0.1-0.1,0.1-0.1,0.1,0L-120.5,394.6C-120.4,394.5-120.4,394.6-120.5,394.6L-120.5,394.6z M-119.1,390.4
		L-119.1,390.4l-3.1-0.7c-0.1,0-0.1,0-0.1-0.1c0.1-0.1,0.1-0.1,0.1-0.1l3,0.7C-119,390.2-119,390.3-119.1,390.4
		C-119,390.4-119.1,390.4-119.1,390.4z M-122.2,396.7c-0.1,0-0.1,0-0.1-0.1v-6.9c0-0.1,0-0.1,0.1-0.1s0.1,0,0.1,0.1v6.9
		C-122.1,396.7-122.1,396.7-122.2,396.7z M-122.2,400.2c-0.1,0-0.1,0-0.1-0.1v-3.5c0-0.1,0-0.1,0.1-0.1s0.1,0,0.1,0.1L-122.2,400.2
		C-122.1,400.1-122.1,400.2-122.2,400.2z M-119.1,400.6l-3.1-0.4c-0.1,0-0.1,0-0.1-0.1c0-0.1,0-0.1,0.1-0.1l3.1,0.4
		C-119,400.4-119,400.4-119.1,400.6C-119,400.6-119,400.6-119.1,400.6z M-120,404.5L-120,404.5l-2.3-4.4c0-0.1,0-0.1,0.1-0.1
		c0.1-0.1,0.1,0,0.1,0l2.2,4.3C-119.8,404.4-119.8,404.5-120,404.5C-119.9,404.5-119.9,404.5-120,404.5z M-122.2,404.1
		C-122.3,404.1-122.3,404.1-122.2,404.1l-0.1-4c0-0.1,0-0.1,0.1-0.1s0.1,0,0.1,0.1L-122.2,404.1C-122.1,404-122.1,404.1-122.2,404.1
		z M-122.2,409c-0.1,0-0.1,0-0.1-0.1v-5c0-0.1,0-0.1,0.1-0.1s0.1,0,0.1,0.1v5C-122.1,409-122.1,409-122.2,409z M-122.2,409
		L-122.2,409c-0.1,0-0.1-0.1-0.1-0.2l2.2-4.5c0.1-0.1,0.1-0.1,0.1,0c0.1,0,0.1,0,0,0.1L-122.2,409L-122.2,409z M-119.3,409h-2.9
		c-0.1,0-0.1,0-0.1-0.1s0-0.1,0.1-0.1h2.9c0.1,0,0.1,0,0.1,0.1C-119.2,409-119.2,409-119.3,409z M-120,381.8L-120,381.8l-2.2-1
		c-0.1-0.1-0.1-0.1,0-0.2c0.1-0.1,0.1-0.1,0.1,0l2.2,1C-119.9,381.6-119.9,381.7-120,381.8C-119.9,381.7-119.9,381.8-120,381.8z
		 M-122.2,385.6L-122.2,385.6c-0.1,0-0.1-0.1-0.1-0.2l2.3-3.8h0.1c0.1,0.1,0.1,0.1,0,0.2L-122.2,385.6
		C-122.1,385.5-122.1,385.6-122.2,385.6z M-120.5,394.6L-120.5,394.6C-120.6,394.5-120.6,394.5-120.5,394.6l1.3-4.3
		c0.1-0.1,0.1-0.1,0.2-0.1c0.1,0.1,0.1,0.1,0,0.1L-120.5,394.6C-120.4,394.6-120.4,394.6-120.5,394.6z M-119.1,400.6
		C-119.1,400.6-119.2,400.6-119.1,400.6l-1.5-6.1c0-0.1,0-0.1,0.1-0.1s0.1,0,0.1,0.1L-119.1,400.6
		C-118.9,400.6-118.9,400.6-119.1,400.6z M-118.1,395l-2.4-0.3c-0.1,0-0.1,0-0.1-0.1c0-0.1,0-0.1,0.1-0.1l2.4,0.3
		C-118,394.8-118,394.8-118.1,395C-118,394.9-118,395-118.1,395z M-116.2,406L-116.2,406l-3.8-1.5c-0.1,0-0.1,0,0-0.1
		c0-0.1,0-0.1,0.1,0l3.7,1.5C-116.1,405.9-116.1,405.9-116.2,406L-116.2,406z M-119.3,385.9C-119.4,385.9-119.4,385.9-119.3,385.9
		l-0.7-4.2c-0.1-0.1,0-0.1,0.1-0.1s0.1,0,0.1,0.1l0.7,4.2C-119.2,385.9-119.2,385.9-119.3,385.9L-119.3,385.9z M-120,404.4
		c-0.1-0.1,0-0.1,0.1-0.1l3.7-1c0.1,0,0.1,0,0.1,0.1s0,0.1-0.1,0.1l-3.7,1L-120,404.4C-120,404.5-120,404.5-120,404.4z M-120,381.8
		L-120,381.8c-0.1-0.1-0.1-0.1-0.1-0.1l1.4-3.9c0-0.1,0-0.1,0.1-0.1c0.1,0.1,0.1,0.1,0,0.1L-120,381.8
		C-119.9,381.7-119.9,381.8-120,381.8z M-116.2,382.8l-3.8-1c-0.1-0.1-0.1-0.1,0-0.1c0-0.1,0-0.1,0.1-0.1l3.7,1.1
		C-116.1,382.7-116.1,382.7-116.2,382.8C-116.1,382.8-116.2,382.8-116.2,382.8z M-120,404.5L-120,404.5c-0.1,0-0.1-0.1-0.1-0.1
		l0.8-3.9c0.1-0.1,0.1-0.1,0.1-0.1c0.1,0,0.2,0,0.1,0.1l-0.8,3.9C-119.9,404.5-119.9,404.5-120,404.5z M-119.3,409
		C-119.3,409-119.4,409-119.3,409l-0.7-4.6c0-0.1,0-0.1,0.1-0.1c0.1-0.1,0.1-0.1,0.1,0.1l0.7,4.5C-119.2,409-119.2,409-119.3,409
		L-119.3,409z M-119.3,409L-119.3,409c-0.2-0.1-0.2-0.2-0.1-0.2l3-3c0.1-0.1,0.1-0.1,0.2,0c0,0.1,0,0.1,0,0.1L-119.3,409
		C-119.2,409-119.3,409-119.3,409z M-119.3,385.9L-119.3,385.9c-0.1-0.1-0.1-0.1,0-0.2l3-3.1c0.1-0.1,0.1-0.1,0.2,0
		c0.1,0.1,0.1,0.1,0,0.2L-119.3,385.9L-119.3,385.9z M-116.2,386.7L-116.2,386.7l-3.1-0.8c-0.1,0-0.1,0-0.1-0.1s0-0.1,0.1,0l3.1,0.8
		C-116.1,386.5-116.1,386.6-116.2,386.7C-116.1,386.7-116.1,386.7-116.2,386.7z M-119.1,390.4c-0.1,0-0.1,0-0.1-0.1l-0.2-4.6
		c0,0,0-0.1,0.1-0.1s0.1,0,0.1,0.1L-119.1,390.4C-119,390.4-119.1,390.4-119.1,390.4z M-116.2,409h-3c-0.1,0-0.1,0-0.1-0.1
		s0-0.1,0.1-0.1h3C-116.2,408.8-116.2,408.9-116.2,409L-116.2,409z M-119.1,390.4L-119.1,390.4c-0.1-0.1-0.1-0.1-0.1-0.2l2.9-3.7
		h0.1c0,0,0,0,0,0.1L-119.1,390.4L-119.1,390.4z M-118.1,395c0,0-0.1,0-0.1-0.1l-1-4.5c0-0.1,0-0.1,0.1-0.1s0.1,0,0.1,0.1l1,4.5
		C-117.9,394.9-117.9,395-118.1,395z M-116.2,391.6L-116.2,391.6l-2.9-1.2c-0.1-0.1-0.1-0.1-0.1-0.1c0-0.1,0.1-0.1,0.2-0.1l2.9,1.2
		c0.1,0,0.1,0,0.1,0.1C-116.1,391.6-116.2,391.6-116.2,391.6z M-119.1,400.6L-119.1,400.6c-0.2,0-0.2-0.1-0.1-0.2l3-4.2
		c0,0,0,0,0.1,0c0,0,0,0.1,0,0.2L-119.1,400.6C-119,400.6-119.1,400.6-119.1,400.6z M-116.2,403.5
		C-116.3,403.5-116.3,403.5-116.2,403.5l-2.9-3c-0.1,0-0.1-0.1,0-0.1c0.1-0.1,0.1-0.1,0.2,0l2.8,2.9
		C-116.1,403.4-116.1,403.5-116.2,403.5L-116.2,403.5z M-119.1,400.6L-119.1,400.6C-119.2,400.6-119.2,400.6-119.1,400.6l0.9-5.7
		c0.1-0.1,0.1-0.1,0.1-0.1c0.1,0,0.2,0,0.1,0.1L-119.1,400.6C-119,400.6-119,400.6-119.1,400.6z M-119.1,400.6
		C-119.1,400.6-119.2,400.6-119.1,400.6c-0.1-0.2-0.1-0.2,0-0.2l2.8-0.4c0.1,0,0.1,0,0.1,0.1c0,0.1,0,0.1-0.1,0.1L-119.1,400.6z
		 M-116.2,382.8C-116.3,382.8-116.3,382.8-116.2,382.8l-2.4-5c0-0.1,0-0.1,0-0.2c0.1,0,0.1,0,0.1,0l2.4,5
		C-116.1,382.8-116.1,382.8-116.2,382.8L-116.2,382.8z M-116.2,377.9h-2.4c-0.1,0-0.1,0-0.1-0.1s0-0.1,0.1-0.1h2.4
		C-116.1,377.7-116.1,377.7-116.2,377.9C-116.1,377.9-116.1,377.9-116.2,377.9z M-116.2,396.4l-2-1.5c-0.1,0-0.1,0,0-0.1h0.1l2,1.5
		c0,0,0,0.1,0,0.2h-0.1C-116.1,396.4-116.2,396.4-116.2,396.4z M-118.1,395L-118.1,395c-0.1-0.1-0.1-0.1-0.1-0.2l1.8-3.3
		c0-0.1,0.1-0.1,0.1,0c0.1,0,0.1,0,0,0.1L-118.1,395C-118,394.9-118.1,395-118.1,395z M-116.2,382.8
		C-116.3,382.8-116.3,382.8-116.2,382.8l-0.1-5c0-0.1,0-0.1,0.1-0.1s0.1,0,0.1,0.1v4.9C-116.1,382.8-116.2,382.8-116.2,382.8z
		 M-116.2,386.7c-0.1,0-0.1,0-0.1-0.1v-3.9c0-0.1,0-0.1,0.1-0.1s0.1,0,0.1,0.1v3.9C-116.1,386.7-116.1,386.7-116.2,386.7z
		 M-116.2,391.6C-116.3,391.6-116.3,391.6-116.2,391.6l-0.1-5c0-0.1,0-0.1,0.1-0.1s0.1,0,0.1,0.1L-116.2,391.6
		C-116.1,391.6-116.2,391.6-116.2,391.6z M-116.1,396.4c-0.1,0-0.1,0-0.1-0.1l-0.1-4.8c0-0.1,0-0.1,0.1-0.1s0.1,0,0.1,0.1l0.1,4.8
		C-116,396.4-116.1,396.4-116.1,396.4z M-116.2,400.2c-0.1,0-0.1,0-0.1-0.1l0.1-3.8c0-0.1,0-0.1,0.1-0.1s0.1,0,0.1,0.1L-116.2,400.2
		C-116.1,400.1-116.1,400.2-116.2,400.2z M-116.2,403.6C-116.3,403.6-116.3,403.6-116.2,403.6l-0.1-3.5c0-0.1,0-0.1,0.1-0.1
		s0.1,0,0.1,0.1L-116.2,403.6L-116.2,403.6z M-116.2,409c-0.1,0-0.1,0-0.1-0.1v-5.5c0-0.1,0-0.1,0.1-0.1s0.1,0,0.1,0.1v5.5
		C-116.1,409-116.2,409-116.2,409z"/>
	<path id="XMLID_341_" class="st0" d="M-108.2,400C-108.2,400-108.2,399.9-108.2,400c-0.1-0.1-0.1-0.1-0.1-0.2l2.4-1.5
		c0.1,0,0.1,0,0.2,0c0,0.1,0,0.1,0,0.2L-108.2,400L-108.2,400z M-108.2,400L-108.2,400c-0.1,0-0.1,0-0.1-0.1l0.6-4.5
		c0-0.1,0-0.1,0.1-0.1c0.1,0.1,0.1,0.1,0.1,0.1L-108.2,400C-108.1,399.9-108.1,400-108.2,400z M-107.4,403.6
		C-107.5,403.6-107.5,403.5-107.4,403.6l-0.9-3.7c0-0.1,0-0.1,0.1-0.1s0.1,0,0.1,0.1L-107.4,403.6
		C-107.3,403.5-107.3,403.6-107.4,403.6L-107.4,403.6z M-107.7,395.4v-0.1l1.9-3.4c0-0.1,0-0.1,0.1,0c0.1,0,0.1,0,0,0.1l-1.8,3.4
		H-107.7L-107.7,395.4z M-105.8,398.4L-105.8,398.4l-2-3c0-0.1,0-0.1,0-0.1c0.1-0.1,0.1,0,0.2,0l1.8,3
		C-105.7,398.3-105.7,398.3-105.8,398.4L-105.8,398.4z M-105.6,406.6L-105.6,406.6l-1.9-3.1c-0.1-0.1-0.1-0.1,0-0.1
		c0.1-0.1,0.1-0.1,0.1,0l1.8,3C-105.4,406.5-105.5,406.6-105.6,406.6L-105.6,406.6z M-107.4,403.6
		C-107.5,403.6-107.6,403.6-107.4,403.6l1.5-5.3c0.1-0.1,0.1-0.1,0.2-0.1c0.1,0.1,0.1,0.1,0,0.1L-107.4,403.6L-107.4,403.6z
		 M-107.4,403.6C-107.4,403.6-107.5,403.5-107.4,403.6c-0.1-0.1-0.1-0.1,0-0.2l3.5-3.2h0.1c0,0.1,0,0.1,0,0.1L-107.4,403.6
		L-107.4,403.6z M-103.7,404.1l-3.7-0.5c-0.1,0-0.1,0-0.1-0.1c0-0.1,0-0.1,0.1-0.1l3.7,0.5C-103.6,404-103.6,404-103.7,404.1
		C-103.6,404.1-103.6,404.1-103.7,404.1z M-105.8,392L-105.8,392c-0.1-0.1-0.1-0.1-0.1-0.2l3.1-2.6c0.1-0.1,0.1-0.1,0.2,0
		c0,0.1,0,0.1,0,0.2L-105.8,392L-105.8,392z M-103.5,395.2L-103.5,395.2l-2.3-3.2c-0.1,0-0.1-0.1,0-0.1c0.1-0.1,0.1,0,0.2,0l2.3,3.2
		C-103.3,395.1-103.3,395.2-103.5,395.2C-103.4,395.2-103.5,395.2-103.5,395.2z M-105.8,398.4L-105.8,398.4
		c-0.1-0.1-0.1-0.1-0.1-0.2l2.3-3.2c0,0,0.1,0,0.2,0c0.1,0.1,0.1,0.1,0,0.2L-105.8,398.4C-105.7,398.4-105.7,398.4-105.8,398.4z
		 M-103.8,400.4L-103.8,400.4l-2-2.1c-0.1,0-0.1-0.1,0-0.1c0.1-0.1,0.1-0.1,0.2,0l1.9,2C-103.8,400.3-103.8,400.4-103.8,400.4
		L-103.8,400.4z M-105.8,398.4c-0.1,0-0.1,0-0.1-0.1v-6.4c0-0.1,0-0.1,0.1-0.1s0.1,0,0.1,0.1L-105.8,398.4
		C-105.7,398.4-105.7,398.4-105.8,398.4z M-105.8,392c-0.1,0-0.1,0-0.1-0.1s0-0.1,0.1-0.1h2.3c0.1,0,0.1,0,0.1,0.1s0,0.1-0.1,0.1
		H-105.8z M-105.6,406.6L-105.6,406.6c-0.1-0.1-0.1-0.1-0.1-0.2l1.9-2.5c0.1-0.1,0.1-0.1,0.2,0c0,0.1,0,0.1,0,0.1L-105.6,406.6
		C-105.5,406.6-105.6,406.6-105.6,406.6z M-102.1,409.1L-102.1,409.1l-3.5-2.5c-0.1-0.1-0.1-0.1,0-0.1c0.1-0.1,0.1-0.1,0.2,0
		L-102.1,409.1C-102,408.9-102,409-102.1,409.1C-102,409.1-102.1,409.1-102.1,409.1z M-101.6,406.9l-4-0.3c-0.1,0-0.1,0-0.1-0.1
		c0-0.1,0-0.1,0.1-0.1l4,0.3c0.1,0,0.1,0,0.1,0.1S-101.6,406.9-101.6,406.9z M-103.8,400.4L-103.8,400.4c-0.1-0.1-0.1-0.1-0.1-0.2
		l2.2-2h0.1c0,0.1,0,0.1,0,0.1L-103.8,400.4L-103.8,400.4z M-103.8,400.4L-103.8,400.4c-0.1,0-0.1,0-0.1-0.1l0.4-5.2
		c0-0.1,0-0.1,0.1-0.1s0.1,0,0.1,0.1l-0.4,5.2C-103.8,400.4-103.8,400.4-103.8,400.4z M-101.6,401.1l-2.2-0.7
		c-0.1,0-0.1-0.1-0.1-0.2c0.1-0.1,0.1-0.1,0.1,0l2.2,0.7C-101.5,400.9-101.5,400.9-101.6,401.1
		C-101.5,401.1-101.6,401.1-101.6,401.1z M-103.7,404.1C-103.7,404.1-103.8,404.1-103.7,404.1l-0.3-3.8c0-0.1,0-0.1,0.1-0.1
		s0.1,0,0.1,0.1L-103.7,404.1C-103.6,404.1-103.6,404.1-103.7,404.1z M-101.6,406.9L-101.6,406.9l-2.2-2.9v-0.1h0.1l2,2.8
		C-101.5,406.8-101.5,406.9-101.6,406.9L-101.6,406.9L-101.6,406.9z M-103.7,404.1L-103.7,404.1c-0.1-0.1-0.1-0.1-0.1-0.2l2-2.9
		c0.1-0.1,0.1-0.1,0.2,0c0,0.1,0,0.1,0,0.1L-103.7,404.1C-103.6,404.1-103.6,404.1-103.7,404.1z M-103.5,395.2L-103.5,395.2
		c-0.1-0.1-0.1-0.1-0.1-0.2l3-3.4h0.1c0.1,0.1,0.1,0.1,0,0.2L-103.5,395.2C-103.4,395.2-103.4,395.2-103.5,395.2z M-103.5,395.2
		C-103.5,395.2-103.6,395.2-103.5,395.2c-0.1-0.1-0.1-0.1,0-0.2l5.1-2.3c0.1,0,0.1,0,0.2,0c0,0.1,0,0.1-0.1,0.2L-103.5,395.2
		L-103.5,395.2z M-101.7,398.4L-101.7,398.4l-1.8-3.2c0-0.1,0-0.1,0-0.2c0.1-0.1,0.1-0.1,0.1,0l1.8,3.2
		C-101.6,398.3-101.6,398.3-101.7,398.4L-101.7,398.4z M-103.4,392L-103.4,392c-0.1,0-0.1,0-0.1-0.1l0.8-2.6
		c0.1-0.1,0.1-0.1,0.1-0.1c0.1,0,0.1,0.1,0.1,0.1L-103.4,392L-103.4,392z M-103.4,392c-0.1,0-0.1,0-0.1-0.1s0-0.1,0.1-0.1l2.9-0.2
		c0.1,0,0.1,0,0.1,0.1s0,0.1-0.1,0.1L-103.4,392z M-103.5,395.2c-0.1,0-0.1,0-0.1-0.1v-3.2c0-0.1,0-0.1,0.1-0.1s0.1,0,0.1,0.1v3.2
		C-103.4,395.2-103.4,395.2-103.5,395.2z M-100.2,395.6l-3.2-0.4c-0.1,0-0.1,0-0.1-0.1c0-0.1,0-0.1,0.1-0.1l3.2,0.4
		C-100.1,395.4-100.1,395.4-100.2,395.6C-100.1,395.6-100.2,395.6-100.2,395.6z M-100.5,391.8L-100.5,391.8l-2.2-2.4
		c-0.1,0-0.1-0.1,0-0.1c0.1-0.1,0.1-0.1,0.2,0l2.1,2.4C-100.4,391.7-100.4,391.8-100.5,391.8L-100.5,391.8z M-102.6,389.4
		c0,0-0.1,0-0.1-0.1c0,0,0-0.1,0.1-0.1l3-0.7c0.1-0.1,0.1-0.1,0.1,0c0,0.1,0,0.1-0.1,0.1L-102.6,389.4z M-102.1,409.1
		C-102.2,409.1-102.2,409.1-102.1,409.1c-0.2-0.1-0.1-0.2,0-0.2l4-2c0,0,0.1,0,0.2,0c0,0.1,0,0.1,0,0.1L-102.1,409.1L-102.1,409.1z
		 M-102.1,409.1L-102.1,409.1C-102.2,409.1-102.2,409.1-102.1,409.1l0.4-2.3c0-0.1,0-0.1,0.1,0c0.1,0,0.1,0,0.1,0.1L-102.1,409.1
		C-102,409.1-102.1,409.1-102.1,409.1z M-98.9,409.5l-3.2-0.4c-0.1,0-0.1,0-0.1-0.1c0-0.1,0-0.1,0.1-0.1l3.2,0.4
		c0.1,0,0.1,0,0.1,0.1S-98.8,409.5-98.9,409.5z M-101.7,398.4L-101.7,398.4c-0.1-0.1-0.1-0.1-0.1-0.2l1.5-2.8h0.1
		c0.1,0,0.1,0.1,0,0.2L-101.7,398.4L-101.7,398.4z M-101.6,401.1C-101.7,401.1-101.7,401.1-101.6,401.1l-0.2-2.8
		c0-0.1,0-0.1,0.1-0.1s0.1,0,0.1,0.1V401.1C-101.5,401.1-101.5,401.1-101.6,401.1L-101.6,401.1z M-100.2,403.2
		C-100.3,403.2-100.3,403.2-100.2,403.2l-1.5-2.2c0-0.1,0-0.1,0-0.1c0.1-0.1,0.1,0,0.2,0l1.4,2.1
		C-100.1,403.2-100.1,403.2-100.2,403.2L-100.2,403.2z M-101.6,406.9c-0.1,0-0.1,0-0.1-0.1V401c0-0.1,0-0.1,0.1-0.1s0.1,0,0.1,0.1
		v5.8C-101.5,406.9-101.6,406.9-101.6,406.9z M-101.6,406.9L-101.6,406.9c-0.1,0-0.1-0.1-0.1-0.2l1.4-3.6c0-0.1,0-0.1,0.1,0
		c0.1,0,0.1,0,0.1,0.1l-1.4,3.6C-101.6,406.9-101.6,406.9-101.6,406.9z M-101.6,406.9L-101.6,406.9c-0.1-0.1-0.1-0.2,0-0.2l3.9-2.8
		h0.1c0,0.1,0,0.1,0,0.2L-101.6,406.9L-101.6,406.9L-101.6,406.9z M-98.1,407.1l-3.5-0.2c-0.1-0.1-0.1-0.1-0.1-0.1
		c0-0.1,0-0.1,0.1-0.1l3.5,0.2C-98,406.9-98,406.9-98.1,407.1C-98,407-98,407.1-98.1,407.1z M-100.5,391.8
		C-100.6,391.8-100.6,391.8-100.5,391.8c-0.1-0.1-0.1-0.1-0.1-0.2l3.5-2.8c0.1,0,0.1,0,0.2,0c0.1,0.1,0,0.1,0,0.1L-100.5,391.8
		L-100.5,391.8z M-100.5,391.8L-100.5,391.8c-0.1,0-0.1,0-0.1-0.1l0.8-3.2c0.1-0.1,0.1-0.1,0.1,0c0.1,0,0.1,0,0.1,0.1L-100.5,391.8
		C-100.4,391.8-100.5,391.8-100.5,391.8z M-98.4,392.9L-98.4,392.9l-2.2-1c-0.1,0-0.1,0-0.1-0.1c0.1-0.1,0.1-0.1,0.2,0l2.1,1
		C-98.3,392.8-98.3,392.9-98.4,392.9L-98.4,392.9z M-100.2,395.6L-100.2,395.6c-0.1-0.1-0.1-0.1-0.1-0.2l1.8-2.8c0,0,0.1,0,0.2,0
		c0.1,0.1,0.1,0.1,0,0.2L-100.2,395.6L-100.2,395.6z M-97.7,404L-97.7,404l-2.6-0.8c-0.1,0-0.1,0,0-0.1c0-0.1,0-0.1,0.1,0l2.5,0.8
		C-97.6,403.9-97.6,403.9-97.7,404C-97.6,404-97.7,404-97.7,404z M-100.2,395.6C-100.3,395.6-100.3,395.6-100.2,395.6
		c-0.1-0.1-0.1-0.1,0-0.2l2.9-1c0.1,0,0.1,0,0.1,0c0,0.1,0,0.1,0,0.2L-100.2,395.6L-100.2,395.6z M-97,389.1l-2.7-0.4
		c-0.1,0-0.1,0-0.1-0.1c0-0.1,0-0.2,0.1-0.1l2.6,0.4C-97,388.9-96.9,388.9-97,389.1L-97,389.1z M-98.9,409.5L-98.9,409.5
		c-0.1,0-0.1-0.1-0.1-0.2l0.8-2.4c0-0.1,0-0.1,0.1,0c0.1,0,0.1,0,0.1,0.1l-0.8,2.4C-98.9,409.5-98.9,409.5-98.9,409.5z M-98.9,409.5
		C-99,409.5-99,409.5-98.9,409.5c-0.1-0.1-0.1-0.2,0-0.2l3.2-1c0.1-0.1,0.1-0.1,0.1,0s0,0.1,0,0.1L-98.9,409.5L-98.9,409.5z
		 M-98.4,392.9C-98.5,392.9-98.5,392.9-98.4,392.9c-0.1-0.1-0.1-0.1,0-0.2l4.2-1.9c0.1-0.1,0.1-0.1,0.1,0c0.1,0.1,0.1,0.1,0,0.1
		L-98.4,392.9L-98.4,392.9z M-97.3,394.7C-97.4,394.7-97.4,394.7-97.3,394.7l-1.2-1.8c0-0.1,0-0.1,0-0.2c0.1,0,0.1,0,0.1,0l1.1,1.8
		C-97.2,394.6-97.2,394.6-97.3,394.7L-97.3,394.7z M-98.4,392.9L-98.4,392.9c-0.1,0-0.1-0.1-0.1-0.1l1.4-3.8c0-0.1,0-0.1,0.1-0.1
		s0.1,0,0,0.1l-1.3,3.8C-98.3,392.9-98.4,392.9-98.4,392.9z M-94.1,393.9l-4.3-1c-0.1,0-0.1-0.1-0.1-0.1c0-0.1,0-0.1,0.1-0.1l4.3,1
		c0.1,0.1,0.1,0.1,0.1,0.1C-94.1,393.9-94.1,393.9-94.1,393.9z M-98.1,407.1C-98.2,407.1-98.2,407.1-98.1,407.1l0.3-3.1
		c0-0.1,0-0.1,0.1-0.1c0.1,0.1,0.1,0.1,0.1,0.1L-98.1,407.1C-98,407.1-98,407.1-98.1,407.1z M-98.1,407.1
		C-98.1,407.1-98.2,407-98.1,407.1c-0.1-0.1-0.1-0.2,0-0.2l2.9-2.2c0.1,0,0.1,0,0.1,0c0.1,0.1,0.1,0.1,0,0.1L-98.1,407.1
		L-98.1,407.1z M-98.1,407.1C-98.2,407.1-98.2,407.1-98.1,407.1c-0.1-0.2-0.1-0.2,0-0.2l4.8-1.4c0.1,0,0.1,0,0.1,0.1
		c0,0.1,0,0.1-0.1,0.1L-98.1,407.1L-98.1,407.1z M-95.8,408.5C-95.8,408.4-95.8,408.4-95.8,408.5l-2.4-1.5c0,0,0,0,0-0.1
		c0.1-0.1,0.1-0.1,0.2,0l2.4,1.4c0.1,0.1,0.1,0.1,0,0.1L-95.8,408.5C-95.7,408.5-95.8,408.5-95.8,408.5z M-97.7,404
		C-97.8,404-97.8,404-97.7,404c-0.2-0.1-0.1-0.2,0-0.2l2.5-0.9c0.1,0,0.1,0,0.2,0c0,0.1,0,0.1-0.1,0.1L-97.7,404L-97.7,404z
		 M-95.2,404.9L-95.2,404.9l-2.6-0.9c-0.1,0-0.1,0,0-0.1c0-0.1,0-0.1,0.1,0l2.5,0.8c0.1,0.1,0.1,0.1,0.1,0.1
		C-95.1,404.9-95.2,404.9-95.2,404.9z M-94.7,396L-94.7,396l-2.7-1.4c-0.1,0-0.1,0,0-0.1c0.1-0.1,0.1-0.1,0.1,0l2.6,1.4
		C-94.5,395.8-94.5,395.9-94.7,396C-94.6,396-94.7,396-94.7,396z M-97.3,394.7C-97.4,394.7-97.4,394.7-97.3,394.7
		c-0.1-0.2-0.1-0.2,0-0.2l3.2-0.8c0,0,0.1,0,0.1,0.1s0,0.1-0.1,0.1L-97.3,394.7L-97.3,394.7z M-94.2,391
		C-94.3,391-94.3,390.9-94.2,391l-2.9-2c-0.1,0-0.1,0,0-0.1h0.1l2.8,1.9C-94.1,390.8-94.1,390.8-94.2,391
		C-94.2,390.9-94.2,391-94.2,391z M-95.8,408.5C-95.8,408.4-95.8,408.4-95.8,408.5c-0.1-0.1-0.1-0.1,0-0.2l2.4-2.8h0.1
		c0,0.1,0,0.1,0,0.1l-2.4,2.8L-95.8,408.5C-95.7,408.5-95.8,408.5-95.8,408.5z M-95.2,403.2C-95.2,403.1-95.2,403.1-95.2,403.2
		c-0.1-0.1-0.1-0.1-0.1-0.2l1.5-2.3c0.1-0.1,0.1-0.1,0.2,0v0.1l-1.5,2.3L-95.2,403.2z M-95.2,404.9L-95.2,404.9
		c-0.1-0.1-0.1-0.2,0-0.2l4.8-3.1c0.1-0.1,0.1-0.1,0.1,0c0.1,0.1,0.1,0.1,0,0.2L-95.2,404.9C-95.1,404.8-95.2,404.8-95.2,404.9
		L-95.2,404.9z M-95.2,403.2C-95.3,403.2-95.3,403.1-95.2,403.2c-0.1-0.2-0.1-0.2,0-0.2l4.8-1.4c0,0,0.1,0,0.1,0.1s0,0.1-0.1,0.1
		L-95.2,403.2C-95.2,403.1-95.2,403.2-95.2,403.2z M-95.2,404.9c-0.1,0-0.1,0-0.1-0.1V403c0-0.1,0-0.1,0.1-0.1s0.1,0,0.1,0.1v1.7
		C-95.1,404.8-95.1,404.9-95.2,404.9z M-93.3,405.7L-93.3,405.7l-2-0.8c0,0,0,0,0-0.1c0.1-0.1,0.1-0.1,0.1,0l1.9,0.8
		C-93.2,405.5-93.2,405.6-93.3,405.7C-93.2,405.7-93.3,405.7-93.3,405.7z M-94.7,396L-94.7,396c-0.1,0-0.1,0-0.1-0.1l0.6-2.1
		c0-0.1,0-0.1,0.1-0.1c0.1,0.1,0.1,0.1,0.1,0.1L-94.7,396C-94.6,396-94.6,396-94.7,396z M-89.2,397.1L-89.2,397.1l-5.5-1.1
		c-0.1,0-0.1,0-0.1-0.1s0-0.1,0.1-0.1l5.4,1.1C-89.2,396.9-89.2,396.9-89.2,397.1L-89.2,397.1z M-93.6,398
		C-93.6,398-93.7,398-93.6,398l-1.2-2c0-0.1,0-0.1,0-0.1c0.1,0,0.1,0,0.2,0l1.1,2C-93.5,397.9-93.5,398-93.6,398L-93.6,398z
		 M-93.3,391.8L-93.3,391.8l-1-0.9c-0.1-0.1-0.1-0.1,0-0.2s0.1-0.1,0.2,0l0.9,0.9C-93.2,391.7-93.2,391.8-93.3,391.8L-93.3,391.8z
		 M-94.1,393.9C-94.2,393.9-94.2,393.9-94.1,393.9l-0.2-3.1c-0.1-0.1,0-0.1,0.1-0.1c0,0,0.1,0,0.1,0.1l0.1,3
		C-94,393.9-94,393.9-94.1,393.9z M-94.1,393.9L-94.1,393.9c-0.1,0-0.2,0-0.1-0.1l0.8-2.1c0.1-0.1,0.1-0.1,0.1-0.1
		c0.1,0,0.1,0.1,0.1,0.2L-94.1,393.9L-94.1,393.9z M-89.2,397.1L-89.2,397.1l-4.9-3.2c-0.1-0.1-0.1-0.1,0-0.2c0,0,0.1,0,0.2,0
		l4.8,3.2C-89.1,397-89.1,397-89.2,397.1L-89.2,397.1z M-94.1,393.9C-94.2,393.9-94.2,393.9-94.1,393.9c-0.1-0.2-0.1-0.2,0-0.2
		l4.3-0.6c0.1,0,0.1,0,0.1,0.1s0,0.1-0.1,0.1L-94.1,393.9L-94.1,393.9z M-93.7,400.8L-93.7,400.8c-0.1-0.1-0.1-0.1,0-0.2l4.4-3.7
		c0.1-0.1,0.1-0.1,0.2,0c0,0.1,0,0.1,0,0.2L-93.7,400.8C-93.6,400.8-93.7,400.8-93.7,400.8z M-93.7,400.8c-0.1-0.1-0.1-0.1-0.1-0.1
		l0.1-2.8c0-0.1,0-0.1,0.1-0.1s0.1,0,0.1,0.1l-0.1,2.8C-93.6,400.8-93.6,400.8-93.7,400.8z M-90.4,401.8l-3.3-1
		c-0.1,0-0.1,0-0.1-0.1s0-0.1,0.1,0l3.3,0.9c0.1,0.1,0.1,0.1,0.1,0.1S-90.4,401.8-90.4,401.8z M-93.6,398
		C-93.7,398-93.7,398-93.6,398c-0.1-0.2-0.1-0.2,0-0.2l4.3-0.9c0.1,0,0.1,0,0.1,0c0,0.1,0,0.1-0.1,0.1L-93.6,398L-93.6,398z
		 M-89.8,389.2h-3.6c-0.1,0-0.1,0-0.1-0.1c0-0.1,0-0.1,0.1-0.1h3.6C-89.7,389-89.7,389-89.8,389.2
		C-89.7,389.1-89.7,389.2-89.8,389.2z M-93.3,391.8C-93.3,391.8-93.4,391.8-93.3,391.8c-0.1-0.1-0.1-0.1-0.1-0.2l3.5-2.7
		c0.1-0.1,0.1-0.1,0.2,0c0,0.1,0,0.1,0,0.2L-93.3,391.8L-93.3,391.8z M-93.4,405.7c-0.1-0.1-0.1-0.1,0-0.2l2.9-3.9
		c0.1-0.1,0.1-0.1,0.2,0c0.1,0,0.1,0,0,0.1l-2.9,3.9L-93.4,405.7L-93.4,405.7z M-89.5,409.2C-89.5,409.2-89.6,409.2-89.5,409.2
		C-89.6,409.1-89.6,409.1-89.5,409.2l-3.8-3.5c-0.1-0.1-0.1-0.1,0-0.2h0.1l3.8,3.4C-89.4,409-89.4,409.1-89.5,409.2
		C-89.5,409.1-89.5,409.1-89.5,409.2L-89.5,409.2z M-93.3,391.8c-0.1,0-0.1,0-0.1-0.1V389c0-0.1,0-0.1,0.1-0.1s0.1,0,0.1,0.1
		L-93.3,391.8C-93.2,391.8-93.2,391.8-93.3,391.8z M-89.8,393.3l-3.5-1.4c-0.1,0-0.1,0-0.1-0.1c0.1-0.1,0.1-0.1,0.1,0l3.5,1.4
		C-89.7,393.2-89.7,393.3-89.8,393.3L-89.8,393.3L-89.8,393.3z M-93.3,405.7C-93.4,405.7-93.4,405.7-93.3,405.7
		c-0.1-0.2-0.1-0.2,0-0.2l2.9-0.6c0,0,0.1,0,0.1,0.1c0,0.1,0,0.1-0.1,0.1L-93.3,405.7L-93.3,405.7z M-93.3,409.1
		C-93.4,409.1-93.4,409.1-93.3,409.1l-0.1-3.5c0-0.1,0-0.1,0.1-0.1s0.1,0,0.1,0.1L-93.3,409.1C-93.2,409.1-93.2,409.1-93.3,409.1z
		 M-89.5,409.2h-3.8c-0.1,0-0.1,0-0.1-0.1c0-0.1,0-0.1,0.1-0.1h3.8C-89.4,409-89.4,409-89.5,409.2
		C-89.4,409.1-89.4,409.2-89.5,409.2z M-87.4,409.1l-3.1-4c-0.1-0.1-0.1-0.1,0-0.1h0.1L-87.4,409.1
		C-87.3,409.1-87.3,409.1-87.4,409.1L-87.4,409.1L-87.4,409.1z M-90.4,401.8c-0.1,0-0.2,0-0.1-0.1l1.1-4.7c0.1-0.1,0.1-0.1,0.1,0
		c0.1,0,0.1,0,0.1,0.1l-1.1,4.6L-90.4,401.8z M-89.5,409.2C-89.6,409.2-89.6,409.1-89.5,409.2l-1-4.2c-0.1-0.1-0.1-0.1,0.1-0.1
		c0,0,0.1,0,0.1,0.1l0.9,4.1C-89.4,409.1-89.4,409.1-89.5,409.2L-89.5,409.2z M-90.4,405.1C-90.4,405.1-90.5,405.1-90.4,405.1
		c-0.1-0.2-0.1-0.2,0-0.2l3-0.5c0,0,0.1,0,0.1,0.1c0,0.1,0,0.1-0.1,0.1L-90.4,405.1z M-87.4,404.6
		C-87.4,404.6-87.4,404.5-87.4,404.6l-3.1-2.8c-0.1-0.1-0.1-0.1,0-0.2c0.1-0.1,0.1-0.1,0.2,0l3,2.8
		C-87.3,404.5-87.3,404.5-87.4,404.6C-87.3,404.5-87.3,404.6-87.4,404.6z M-90.4,401.8C-90.5,401.8-90.5,401.7-90.4,401.8
		c-0.1-0.1-0.1-0.1,0-0.2l3.1-1.3h0.1c0,0.1,0,0.1,0,0.1L-90.4,401.8L-90.4,401.8z M-90.4,405.1C-90.5,405.1-90.5,405.1-90.4,405.1
		l-0.1-3.4c0-0.1,0-0.1,0.1-0.1s0.1,0,0.1,0.1L-90.4,405.1C-90.3,405.1-90.3,405.1-90.4,405.1z M-89.8,389.2c-0.1,0-0.1,0-0.1-0.1
		c0-0.1,0-0.1,0.1-0.1h2.4c0.1,0,0.1,0,0.1,0.1c0,0.1,0,0.1-0.1,0.1H-89.8z M-89.8,393.3c-0.1,0-0.1,0-0.1-0.1v-4.1
		c0-0.1,0-0.1,0.1-0.1s0.1,0,0.1,0.1v4.1C-89.7,393.2-89.7,393.3-89.8,393.3z M-89.2,397.1C-89.3,397.1-89.3,397.1-89.2,397.1
		l-0.6-3.9c0-0.1,0-0.1,0.1-0.1s0.1,0,0.1,0.1L-89.2,397.1L-89.2,397.1z M-87.4,394.2L-87.4,394.2l-2.4-0.9c-0.1,0-0.1-0.1-0.1-0.1
		c0-0.1,0.1-0.1,0.1-0.1l2.4,0.9c0.1,0,0.1,0,0.1,0.1C-87.3,394.1-87.3,394.2-87.4,394.2z M-87.4,394.2L-87.4,394.2l-2.5-5
		c-0.1,0,0-0.1,0-0.2c0.1,0,0.1,0,0.1,0.1L-87.4,394.2C-87.2,394.1-87.3,394.1-87.4,394.2C-87.3,394.1-87.3,394.1-87.4,394.2
		C-87.3,394.2-87.3,394.2-87.4,394.2z M-89.5,409.2C-89.6,409.2-89.6,409.2-89.5,409.2c-0.1-0.2-0.1-0.2,0-0.2h2.2
		c0.1,0,0.1,0,0.1,0.1c0,0.1,0,0.1-0.1,0.1H-89.5z M-89.2,397.1L-89.2,397.1C-89.3,397.1-89.3,397-89.2,397.1l1.8-3.1
		c0.1-0.1,0.1-0.1,0.2,0v0.1L-89.2,397.1L-89.2,397.1z M-87.3,400.4C-87.4,400.4-87.4,400.4-87.3,400.4l-2-3.3c-0.1,0-0.1-0.1,0-0.1
		s0.1,0,0.2,0l1.9,3.3C-87.2,400.3-87.3,400.4-87.3,400.4L-87.3,400.4z M-87.4,392.3c-0.1,0-0.1,0-0.1-0.1V389c0-0.1,0-0.1,0.1-0.1
		s0.1,0,0.1,0.1v3.1C-87.2,392.2-87.3,392.3-87.4,392.3z M-87.4,394.2c-0.1,0-0.1,0-0.1-0.1v-1.9c0-0.1,0-0.1,0.1-0.1s0.1,0,0.1,0.1
		v1.8C-87.2,394.1-87.3,394.2-87.4,394.2z M-87.3,400.4c-0.1,0-0.1,0-0.1-0.1V394c0-0.1,0-0.1,0.1-0.1s0.1,0,0.1,0.1L-87.3,400.4
		C-87.2,400.4-87.3,400.4-87.3,400.4z M-87.4,404.6C-87.4,404.6-87.4,404.5-87.4,404.6l-0.1-4.2c0-0.1,0-0.1,0.1-0.1s0.1,0,0.1,0.1
		L-87.4,404.6C-87.2,404.5-87.3,404.6-87.4,404.6z M-87.3,409.1C-87.4,409.1-87.4,409.1-87.3,409.1l-0.1-4.6c0-0.1,0-0.1,0.1-0.1
		s0.1,0,0.1,0.1L-87.3,409.1C-87.2,409.1-87.3,409.1-87.3,409.1z"/>
	<path id="XMLID_454_" class="st0" d="M-77.8,391.3L-77.8,391.3l-1.6-2.3c-0.1-0.1-0.1-0.1,0-0.1h0.1l1.5,2.2
		C-77.7,391.2-77.7,391.3-77.8,391.3L-77.8,391.3z M-79.3,393.9L-79.3,393.9c-0.1,0-0.2-0.1-0.1-0.2l1.5-2.6c0.1-0.1,0.1-0.1,0.2,0
		c0,0,0,0,0,0.1L-79.3,393.9C-79.2,393.9-79.3,393.9-79.3,393.9z M-76.5,402.2L-76.5,402.2l-2.8-1c-0.1,0-0.1,0,0-0.1
		c0-0.1,0-0.1,0.1-0.1l2.8,1c0.1,0,0.1,0,0.1,0.1C-76.5,402.1-76.5,402.2-76.5,402.2z M-76.3,397.2
		C-76.3,397.2-76.4,397.2-76.3,397.2C-76.4,397.1-76.4,397.1-76.3,397.2l-3-3.3c-0.1-0.1-0.1-0.1,0-0.2c0.1,0,0.1,0,0.2,0l3,3.2
		C-76.2,397-76.2,397.1-76.3,397.2C-76.3,397.1-76.3,397.1-76.3,397.2L-76.3,397.2z M-79.3,393.9c-0.1,0-0.1,0-0.1-0.1V389
		c0-0.1,0-0.1,0.1-0.1s0.1,0,0.1,0.1v4.8C-79.2,393.9-79.2,393.9-79.3,393.9z M-75.5,389.2l-3.8-0.1c-0.1,0-0.1,0-0.1-0.1
		c0-0.1,0-0.1,0.1-0.1l3.8,0.1c0.1,0,0.1,0,0.1,0.1C-75.4,389.1-75.4,389.2-75.5,389.2z M-76.3,397.2h-3c-0.1,0-0.1,0-0.1-0.1
		c0-0.1,0-0.1,0.1-0.1h3C-76.3,397-76.2,397-76.3,397.2C-76.2,397.1-76.3,397.2-76.3,397.2z M-79.3,409.1
		C-79.4,409.1-79.4,409.1-79.3,409.1l-0.1-4c0-0.1,0-0.1,0.1-0.1s0.1,0,0.1,0.1L-79.3,409.1C-79.2,409.1-79.2,409.1-79.3,409.1z
		 M-73.3,409.1h-6c-0.1,0-0.1,0-0.1-0.1c0-0.1,0-0.1,0.1-0.1h6C-73.3,408.9-73.2,409-73.3,409.1C-73.2,409.1-73.3,409.1-73.3,409.1z
		 M-79.3,401.2L-79.3,401.2c-0.1-0.1-0.1-0.1-0.1-0.2l3-4c0-0.1,0.1-0.1,0.2,0c0,0,0,0.1,0,0.2L-79.3,401.2
		C-79.2,401.2-79.2,401.2-79.3,401.2z M-79.3,393.9C-79.3,393.9-79.4,393.9-79.3,393.9c-0.1-0.2-0.1-0.2,0-0.2l3.8-0.6
		c0.1,0,0.1,0,0.1,0.1s0,0.1-0.1,0.1L-79.3,393.9L-79.3,393.9z M-79.3,409.1L-79.3,409.1L-79.3,409.1c-0.1-0.1-0.1-0.1,0-0.2
		l3.4-2.3c0.1,0,0.1,0,0.2,0v0.1L-79.3,409.1C-79.2,409.1-79.3,409.1-79.3,409.1z M-79.3,405.2L-79.3,405.2c-0.1-0.1-0.1-0.1,0-0.2
		l2.8-3.1c0-0.1,0-0.1,0.1,0s0.1,0.1,0,0.2L-79.3,405.2C-79.2,405.2-79.2,405.2-79.3,405.2z M-79.3,397.2c-0.1,0-0.1,0-0.1-0.1v-3.2
		c0-0.1,0-0.1,0.1-0.1s0.1,0,0.1,0.1v3.1C-79.2,397.1-79.2,397.2-79.3,397.2z M-79.3,401.2C-79.3,401.2-79.4,401.2-79.3,401.2
		l-0.1-4.2c0-0.1,0-0.1,0.1-0.1s0.1,0,0.1,0.1v4.1C-79.2,401.2-79.2,401.2-79.3,401.2z M-79.3,405.2
		C-79.3,405.2-79.4,405.2-79.3,405.2l-0.1-4.1c0-0.1,0-0.1,0.1-0.1s0.1,0,0.1,0.1v4C-79.2,405.2-79.2,405.2-79.3,405.2z
		 M-75.8,406.8L-75.8,406.8l-3.5-1.6v-0.1c0-0.1,0.1-0.1,0.1-0.1l3.5,1.6C-75.7,406.6-75.6,406.7-75.8,406.8
		C-75.7,406.8-75.7,406.8-75.8,406.8z M-77.8,391.3L-77.8,391.3c-0.1-0.1-0.1-0.1-0.1-0.2l2.3-2.2c0.1-0.1,0.1-0.1,0.2,0
		s0.1,0.1,0,0.2L-77.8,391.3L-77.8,391.3z M-75.6,393.2l-2.3-1.9c-0.1-0.1-0.1-0.1,0-0.2h0.1l2.3,1.9
		C-75.5,393-75.5,393.1-75.6,393.2L-75.6,393.2L-75.6,393.2z M-76.5,402.2L-76.5,402.2c-0.1-0.1-0.1-0.1,0-0.2l3.2-3.3
		c0.1-0.1,0.1-0.1,0.2,0s0.1,0.1,0,0.2L-76.5,402.2C-76.5,402.1-76.5,402.2-76.5,402.2z M-76.5,402.2c-0.1-0.1-0.1-0.1-0.1-0.1
		l0.2-5c0-0.1,0-0.1,0.1-0.1s0.1,0,0.1,0.1l-0.2,5C-76.4,402.1-76.4,402.2-76.5,402.2z M-75.8,406.8c-0.1,0-0.1,0-0.1-0.1l-0.7-4.7
		c0-0.1,0-0.1,0.1-0.1c0.1-0.1,0.1-0.1,0.1,0.1l0.7,4.7C-75.7,406.8-75.7,406.8-75.8,406.8z M-73.3,403.7L-73.3,403.7l-3.2-1.6
		c0,0,0,0,0-0.1c0.1-0.1,0.1-0.1,0.2,0l3.2,1.6c0,0,0,0,0,0.1C-73.3,403.7-73.3,403.7-73.3,403.7z M-76.4,397.1
		C-76.5,397-76.5,397-76.4,397.1l3.7-1.3c0.1,0,0.1,0,0.2,0.1c0,0.1,0,0.1-0.1,0.1l-3.7,1.2L-76.4,397.1
		C-76.4,397.2-76.4,397.1-76.4,397.1z M-73.3,398.8L-73.3,398.8l-3-1.7c-0.1,0-0.1,0,0-0.1c0.1-0.1,0.1-0.1,0.1,0l3,1.7
		C-73.2,398.7-73.2,398.7-73.3,398.8C-73.2,398.8-73.3,398.8-73.3,398.8z M-76.3,397.2L-76.3,397.2c-0.1,0-0.1-0.1-0.1-0.1l0.8-3.9
		c0-0.1,0-0.2,0.1-0.1c0.1,0,0.1,0,0.1,0.1l-0.8,3.9C-76.3,397.1-76.3,397.2-76.3,397.2z M-73.3,409.1
		C-73.3,409.1-73.4,409.1-73.3,409.1l-2.6-2.3c-0.1-0.1-0.1-0.1,0-0.2c0,0,0.1,0,0.2,0l2.5,2.3C-73.2,409-73.2,409-73.3,409.1
		L-73.3,409.1L-73.3,409.1z M-75.8,406.8L-75.8,406.8C-75.8,406.8-75.9,406.8-75.8,406.8c-0.1-0.1-0.1-0.1-0.1-0.2l2.5-3.1
		c0-0.1,0-0.1,0.1,0c0.1,0.1,0.1,0.1,0,0.2L-75.8,406.8C-75.7,406.8-75.8,406.8-75.8,406.8L-75.8,406.8z M-73.3,391.5L-73.3,391.5
		l-2.2-2.4c-0.1-0.1-0.1-0.1,0-0.2c0,0,0.1,0,0.2,0l2.2,2.3C-73.2,391.3-73.2,391.4-73.3,391.5L-73.3,391.5z M-75.5,393.3
		L-75.5,393.3c-0.1-0.1-0.1-0.1-0.1-0.2l2.2-1.8c0.1-0.1,0.1-0.1,0.1,0s0,0.1,0,0.2L-75.5,393.3L-75.5,393.3z M-72.6,395.9
		C-72.7,395.9-72.7,395.9-72.6,395.9l-2.9-2.7c-0.1-0.1-0.1-0.1,0-0.2h0.1l2.9,2.7C-72.5,395.8-72.5,395.9-72.6,395.9L-72.6,395.9z
		 M-75.5,389.2c-0.1,0-0.1,0-0.1-0.1c0-0.1,0-0.1,0.1-0.1l2.2-0.1c0.1,0,0.1,0,0.1,0.1c0,0.1,0,0.1-0.1,0.1L-75.5,389.2z
		 M-75.5,393.2c-0.1,0-0.1,0-0.1-0.1V389c0-0.1,0-0.1,0.1-0.1s0.1,0,0.1,0.1L-75.5,393.2C-75.4,393.2-75.4,393.2-75.5,393.2z
		 M-73.3,398.8c-0.1,0-0.1,0-0.1-0.1l0.7-2.9c0-0.1,0-0.1,0.1-0.1c0.1,0.1,0.1,0.1,0.1,0.1l-0.7,2.9
		C-73.2,398.8-73.3,398.8-73.3,398.8z M-70.7,394L-70.7,394l-2.7-2.6c-0.1-0.1-0.1-0.1,0-0.2h0.1l2.6,2.6
		C-70.6,393.9-70.6,393.9-70.7,394C-70.6,394-70.7,394-70.7,394z M-73.3,391.5c-0.1,0-0.1,0-0.1-0.1V389c0-0.1,0-0.1,0.1-0.1
		s0.1,0,0.1,0.1v2.4C-73.2,391.4-73.2,391.5-73.3,391.5z M-73.3,391.5L-73.3,391.5c-0.1-0.1-0.1-0.2,0-0.2l3.1-2.2c0,0,0.1,0,0.2,0
		c0,0.1,0,0.1,0,0.1L-73.3,391.5C-73.3,391.4-73.3,391.4-73.3,391.5L-73.3,391.5z M-73.3,391.5c-0.1,0-0.1,0-0.1-0.1s0-0.1,0.1-0.1
		l5-0.2c0.1,0,0.1,0,0.1,0.1s0,0.1-0.1,0.1L-73.3,391.5L-73.3,391.5z M-72.6,395.9C-72.7,395.9-72.7,395.9-72.6,395.9l-0.8-4.6
		c0-0.1,0-0.1,0.1-0.1c0.1-0.1,0.1-0.1,0.1,0.1l0.7,4.4C-72.5,395.9-72.5,395.9-72.6,395.9L-72.6,395.9z M-73.3,403.7
		c-0.1,0-0.1,0-0.1-0.1v-4.8c0-0.1,0-0.1,0.1-0.1s0.1,0,0.1,0.1v4.8C-73.2,403.7-73.2,403.7-73.3,403.7z M-73.3,409.1
		C-73.4,409.1-73.4,409.1-73.3,409.1l-0.1-5.5c0-0.1,0-0.1,0.1-0.1s0.1,0,0.1,0.1L-73.3,409.1C-73.2,409.1-73.2,409.1-73.3,409.1z
		 M-72.6,395.9C-72.7,395.9-72.7,395.9-72.6,395.9c-0.1-0.1-0.1-0.1-0.1-0.2l2-1.9c0.1-0.1,0.1-0.1,0.2,0c0,0.1,0,0.1,0,0.1
		L-72.6,395.9L-72.6,395.9z M-70.7,394L-70.7,394c-0.1-0.1-0.1-0.1-0.1-0.2l2.4-2.7h0.1c0.1,0.1,0.1,0.1,0,0.2L-70.7,394
		C-70.6,394-70.7,394-70.7,394z M-68.2,394h-2.4c-0.1,0-0.1,0-0.1-0.1s0-0.1,0.1-0.1h2.4C-68.2,393.8-68.2,393.8-68.2,394L-68.2,394
		z M-68.2,391.3L-68.2,391.3l-2-2c-0.1-0.1-0.1-0.1,0-0.2c0.1,0,0.1,0,0.1,0l1.9,2C-68.1,391.2-68.1,391.3-68.2,391.3L-68.2,391.3z
		 M-70.2,389.3C-70.3,389.3-70.3,389.3-70.2,389.3c-0.1-0.2-0.1-0.2,0-0.2l3.2-0.7c0.1,0,0.1,0,0.1,0.1s0,0.1-0.1,0.1L-70.2,389.3
		L-70.2,389.3z M-66.6,396.3L-66.6,396.3l-1.7-2.3c-0.1-0.1-0.1-0.1,0-0.1s0.1,0,0.2,0l1.6,2.3C-66.5,396.1-66.5,396.2-66.6,396.3
		L-66.6,396.3z M-68.3,391.3c-0.1,0-0.1,0-0.1-0.1l1.2-2.8c0,0,0.1,0,0.2,0c0.1,0.1,0.1,0.1,0,0.1L-68.3,391.3L-68.3,391.3
		L-68.3,391.3z M-68.2,391.3C-68.3,391.3-68.3,391.3-68.2,391.3c-0.1-0.1-0.1-0.1,0-0.1l4.4-1.9c0.1-0.1,0.1-0.1,0.1,0
		c0.1,0.1,0.1,0.1,0,0.1L-68.2,391.3L-68.2,391.3z M-68.2,394c-0.1,0-0.1,0-0.1-0.1v-2.7c0-0.1,0-0.1,0.1-0.1s0.1,0,0.1,0.1v2.6
		C-68.2,394-68.2,394-68.2,394z M-64.1,394.3l-4.1-0.3c-0.1,0-0.1,0-0.1-0.1c0.1-0.1,0.1-0.1,0.1-0.1l4.1,0.3
		C-64,394.1-64,394.2-64.1,394.3C-64,394.3-64.1,394.3-64.1,394.3z M-64.1,394.3L-64.1,394.3l-4.2-3c0,0,0-0.1,0-0.2
		c0-0.1,0-0.1,0.1,0l4.1,3C-64,394.2-64,394.3-64.1,394.3L-64.1,394.3z M-63.9,389.4L-63.9,389.4l-3.2-0.8c-0.1,0-0.1,0-0.1-0.1
		c0-0.1,0.1-0.1,0.1-0.1l3.1,0.8C-63.8,389.3-63.8,389.3-63.9,389.4C-63.8,389.4-63.8,389.4-63.9,389.4z M-66.6,396.3L-66.6,396.3
		c-0.1-0.1-0.1-0.1-0.1-0.2l2.5-1.9c0.1-0.1,0.1-0.1,0.2,0c0.1,0.1,0.1,0.1,0,0.1L-66.6,396.3L-66.6,396.3z M-62.8,399.2
		L-62.8,399.2l-3.8-2.9c-0.1,0-0.1-0.1,0-0.1c0.1-0.1,0.1-0.1,0.1,0l3.8,2.9C-62.7,399-62.7,399-62.8,399.2
		C-62.8,399.1-62.8,399.2-62.8,399.2z M-66.3,398.8c0,0-0.1,0-0.1-0.1l-0.3-2.6c0-0.1,0-0.1,0.1-0.1s0.1,0,0.1,0.1L-66.3,398.8
		C-66.1,398.8-66.2,398.8-66.3,398.8z M-66.4,409.1L-66.4,409.1L-66.4,409.1c-0.1-0.1-0.1-0.1,0-0.2l2-1.4c0.1,0,0.1,0,0.1,0
		c0.1,0.1,0,0.1,0,0.2L-66.4,409.1C-66.3,409.1-66.3,409.1-66.4,409.1z M-66.4,409.1C-66.5,409.1-66.5,409.1-66.4,409.1l-0.1-3.9
		c0-0.1,0-0.1,0.1-0.1s0.1,0,0.1,0.1L-66.4,409.1C-66.2,409.1-66.3,409.1-66.4,409.1z M-66.4,409.1
		C-66.5,409.1-66.5,409.1-66.4,409.1c-0.1-0.2-0.1-0.2,0-0.2h6c0.1,0,0.1,0,0.1,0.1c0,0.1,0,0.1-0.1,0.1H-66.4z M-66.3,402.2
		L-66.3,402.2c-0.1-0.1-0.1-0.1,0-0.2l3.4-3c0.1-0.1,0.1-0.1,0.2,0c0.1,0.1,0.1,0.1,0,0.1L-66.3,402.2
		C-66.3,402.1-66.3,402.2-66.3,402.2z M-64.3,407.7C-64.4,407.7-64.4,407.7-64.3,407.7l-2-2.5c-0.1,0-0.1-0.1,0-0.1
		c0.1-0.1,0.1-0.1,0.2,0l2,2.5C-64.2,407.6-64.2,407.7-64.3,407.7L-64.3,407.7z M-62.8,399.2l-3.4-0.3c-0.1,0-0.1,0-0.1-0.1
		c0.1-0.1,0.1-0.1,0.1-0.1l3.4,0.3C-62.8,399-62.7,399-62.8,399.2C-62.8,399.1-62.8,399.2-62.8,399.2z M-66.3,402.2
		c-0.1,0-0.1,0-0.1-0.1v-3.3c0-0.1,0-0.1,0.1-0.1s0.1,0,0.1,0.1v3.2C-66.2,402.1-66.2,402.2-66.3,402.2z M-62.9,403.7l-3.5-1.6
		c0,0,0,0,0-0.1c0.1-0.1,0.1-0.1,0.1,0l3.5,1.6v0.1H-62.9L-62.9,403.7z M-66.3,405.2c-0.1,0-0.1,0-0.1-0.1V402c0-0.1,0-0.1,0.1-0.1
		s0.1,0,0.1,0.1L-66.3,405.2C-66.2,405.2-66.2,405.2-66.3,405.2z M-66.3,405.2C-66.3,405.2-66.4,405.2-66.3,405.2
		c-0.1-0.1-0.1-0.1,0-0.2l3.4-1.5h0.1c0,0.1,0,0.1,0,0.2L-66.3,405.2L-66.3,405.2z M-64.3,407.7L-64.3,407.7
		c-0.1-0.1-0.1-0.1-0.1-0.1l1.4-4c0.1-0.1,0.1-0.1,0.1,0c0.1,0,0.1,0,0.1,0.1L-64.3,407.7C-64.2,407.7-64.3,407.7-64.3,407.7z
		 M-60.3,409.1L-60.3,409.1l-4-1.4c-0.1-0.1-0.1-0.1,0-0.1c0-0.1,0-0.1,0.1-0.1l4,1.4c0.1,0,0.1,0,0.1,0.1
		C-60.3,409.1-60.3,409.1-60.3,409.1z M-64.1,394.3C-64.1,394.3-64.2,394.3-64.1,394.3c-0.2,0-0.2-0.1-0.1-0.2l2.4-2.8h0.1
		c0,0,0,0.1,0,0.2L-64.1,394.3L-64.1,394.3z M-64.1,394.3c-0.1,0-0.1,0-0.1-0.1l0.2-4.9c0-0.1,0-0.1,0.1-0.1s0.1,0,0.1,0.1
		L-64.1,394.3C-64,394.3-64.1,394.3-64.1,394.3z M-62.8,399.2C-62.9,399.2-62.9,399.1-62.8,399.2l-1.4-4.9c0-0.1,0-0.1,0.1-0.1
		s0.1,0,0.1,0.1l1.3,4.8C-62.7,399.1-62.7,399.2-62.8,399.2L-62.8,399.2z M-60.5,394.6l-3.6-0.2c-0.1,0-0.1,0-0.1-0.1s0-0.1,0.1-0.1
		l3.6,0.2C-60.5,394.4-60.4,394.5-60.5,394.6C-60.4,394.5-60.5,394.6-60.5,394.6z M-61.8,391.5L-61.8,391.5l-2.2-2.1
		c-0.1-0.1-0.1-0.1,0-0.2s0.1-0.1,0.2,0l2.1,2.1C-61.7,391.4-61.7,391.4-61.8,391.5L-61.8,391.5z M-60.4,402.2L-60.4,402.2l-2.5-3
		c-0.1-0.1-0.1-0.1,0-0.1c0.1-0.1,0.1-0.1,0.2,0l2.4,3C-60.3,402-60.3,402.1-60.4,402.2L-60.4,402.2z M-62.8,403.7
		c-0.1,0-0.1,0-0.1-0.1v-4.5c0-0.1,0-0.1,0.1-0.1s0.1,0,0.1,0.1v4.5C-62.8,403.7-62.8,403.7-62.8,403.7z M-60.3,409.1L-60.3,409.1
		l-2.6-5.5c0-0.1,0-0.1,0.1-0.1h0.1l2.6,5.4C-60.2,409-60.2,409.1-60.3,409.1L-60.3,409.1L-60.3,409.1z M-62.9,403.7
		c0-0.1,0-0.1,0-0.2l2.4-1.6c0.1,0,0.1,0,0.2,0v0.1l-2.4,1.6h-0.2V403.7z M-62.8,399.2L-62.8,399.2c-0.1-0.1-0.1-0.1-0.1-0.2
		l2.3-4.6c0-0.1,0-0.1,0.1,0c0.1,0,0.1,0,0,0.1L-62.8,399.2C-62.8,399.1-62.8,399.2-62.8,399.2z M-62.8,399.2
		C-62.9,399.2-62.9,399.1-62.8,399.2c-0.1-0.1-0.1-0.1,0-0.2l2.5-1.2c0.1,0,0.1,0,0.2,0c0,0.1,0,0.1,0,0.1L-62.8,399.2L-62.8,399.2z
		 M-60.5,394.6C-60.6,394.6-60.6,394.5-60.5,394.6l-1.4-3.1c0-0.1,0-0.1,0.1-0.1h0.1L-60.5,394.6C-60.4,394.5-60.4,394.6-60.5,394.6
		L-60.5,394.6z M-60.3,398c-0.1,0-0.1,0-0.1-0.1l-0.2-3.4c0,0,0-0.1,0.1-0.1s0.1,0,0.1,0.1l0.2,3.4C-60.2,397.9-60.2,398-60.3,398z
		 M-60.3,402.6c-0.1,0-0.1,0-0.1-0.1v-4.7c0-0.1,0-0.1,0.1-0.1s0.1,0,0.1,0.1v4.7C-60.2,402.6-60.2,402.6-60.3,402.6z M-60.3,406.3
		c-0.1,0-0.1,0-0.1-0.1v-3.7c0-0.1,0-0.1,0.1-0.1s0.1,0,0.1,0.1L-60.3,406.3C-60.2,406.3-60.2,406.3-60.3,406.3z M-60.3,409.1
		c-0.1,0-0.1,0-0.1-0.1v-2.8c0-0.1,0-0.1,0.1-0.1s0.1,0,0.1,0.1v2.8C-60.2,409.1-60.2,409.1-60.3,409.1z"/>
	<path id="XMLID_539_" class="st0" d="M-52.4,398.7c-0.1,0-0.1,0-0.1-0.1l0.7-3.7c0-0.1,0-0.1,0.1-0.1c0.1,0.1,0.1,0.1,0.1,0.1
		l-0.7,3.7C-52.2,398.7-52.3,398.7-52.4,398.7z M-52.4,398.7L-52.4,398.7c-0.1-0.1-0.1-0.2,0-0.2l3.3-2.8h0.1c0.1,0.1,0.1,0.1,0,0.2
		L-52.4,398.7C-52.3,398.7-52.3,398.7-52.4,398.7z M-51.7,403.3C-51.7,403.3-51.8,403.3-51.7,403.3l-0.8-4.7c0-0.1,0-0.1,0.1-0.1
		s0.1,0,0.1,0.1l0.7,4.6C-51.6,403.2-51.6,403.3-51.7,403.3z M-49,400.2L-49,400.2l-3.4-1.5c0,0,0-0.1,0-0.2h0.1l3.3,1.5
		C-48.9,400.1-48.9,400.1-49,400.2L-49,400.2z M-49.1,395.9L-49.1,395.9l-2.6-1c-0.1,0-0.1,0,0-0.1c0-0.1,0-0.1,0.1-0.1l2.6,1
		c0.1,0,0.1,0,0.1,0.1C-49,395.9-49,395.9-49.1,395.9z M-48.2,403.9l-3.5-0.6c-0.1,0-0.2,0-0.1-0.1c0-0.1,0-0.1,0.1-0.1l3.5,0.6
		c0.1,0,0.1,0,0.1,0.1C-48.1,403.9-48.1,403.9-48.2,403.9z M-51.7,403.3L-51.7,403.3c-0.1-0.1-0.1-0.1-0.1-0.2l2.6-3.1
		c0.1-0.1,0.1-0.1,0.2,0c0,0.1,0,0.1,0,0.1L-51.7,403.3C-51.6,403.3-51.7,403.3-51.7,403.3z M-51.7,395L-51.7,395
		c-0.1-0.1-0.1-0.1-0.1-0.1l1.8-3.3c0.1-0.1,0.1-0.1,0.1,0c0.1,0,0.1,0.1,0,0.1L-51.7,395C-51.6,394.9-51.6,395-51.7,395z
		 M-49.8,406.8C-49.9,406.8-49.9,406.8-49.8,406.8l-1.9-3.6c0-0.1,0-0.1,0-0.2c0.1-0.1,0.1-0.1,0.1,0l1.8,3.5
		C-49.7,406.7-49.7,406.8-49.8,406.8L-49.8,406.8z M-47,408.8C-47,408.8-47.1,408.8-47,408.8l-2.9-2c-0.1-0.1-0.1-0.1,0-0.2
		c0,0,0.1,0,0.2,0l2.8,2C-46.9,408.7-46.9,408.7-47,408.8C-46.9,408.8-47,408.8-47,408.8z M-49.8,391.7
		C-49.9,391.7-49.9,391.7-49.8,391.7C-49.9,391.7-49.9,391.7-49.8,391.7c-0.1-0.1-0.1-0.1,0-0.2l3.3-2.5c0.1-0.1,0.1-0.1,0.2,0
		c0,0.1,0,0.1,0,0.2L-49.8,391.7L-49.8,391.7L-49.8,391.7z M-49.1,395.9C-49.1,395.9-49.2,395.9-49.1,395.9l-0.8-4.3
		c-0.1-0.1,0-0.1,0.1-0.1c0,0,0.1,0,0.1,0.1l0.8,4.2C-49,395.9-49,395.9-49.1,395.9L-49.1,395.9z M-49.8,406.8L-49.8,406.8
		c-0.1-0.1-0.1-0.1-0.1-0.2l1.7-2.9c0.1-0.1,0.1-0.1,0.1,0c0.1,0,0.1,0.1,0,0.1L-49.8,406.8L-49.8,406.8z M-45.2,392.6l-4.7-0.8
		c-0.1-0.1-0.1-0.1-0.1-0.1c0-0.1,0-0.1,0.1-0.1l4.6,0.8C-45.2,392.4-45.2,392.4-45.2,392.6C-45.1,392.5-45.1,392.6-45.2,392.6z
		 M-45.6,397.2L-45.6,397.2l-3.5-1.3c-0.1,0-0.1,0,0-0.1c0-0.1,0-0.1,0.1,0l3.5,1.2C-45.5,397.1-45.5,397.1-45.6,397.2
		C-45.5,397.2-45.5,397.2-45.6,397.2z M-49.1,395.9L-49.1,395.9c-0.1,0-0.1-0.1,0-0.2l3.9-3.4c0.1-0.1,0.1-0.1,0.2,0
		c0.1,0.1,0.1,0.1,0,0.1L-49.1,395.9L-49.1,395.9z M-48.2,403.9L-48.2,403.9l-1-3.8c-0.1-0.1-0.1-0.1,0-0.1s0.1,0,0.1,0.1l0.9,3.7
		C-48,403.8-48.1,403.9-48.2,403.9L-48.2,403.9z M-49,400.2C-49.1,400.2-49.1,400.2-49,400.2c-0.1-0.1-0.1-0.1-0.1-0.2l3.4-3
		c0.1-0.1,0.1-0.1,0.2,0c0.1,0.1,0.1,0.1,0,0.2L-49,400.2L-49,400.2z M-49.1,395.9C-49.1,395.9-49.2,395.9-49.1,395.9
		c-0.1-0.1-0.1-0.2,0-0.2l5.5-1c0.1,0,0.1,0,0.1,0.1s0,0.1-0.1,0.1L-49.1,395.9L-49.1,395.9z M-49,400.2
		C-49.1,400.2-49.1,400.2-49,400.2l-0.1-4.4c0-0.1,0-0.1,0.1-0.1s0.1,0,0.1,0.1v4.3C-48.9,400.2-49,400.2-49,400.2z M-46,400.2h-3
		c-0.1,0-0.1,0-0.1-0.1c0-0.1,0-0.1,0.1-0.1h3C-45.9,400-45.9,400.1-46,400.2C-45.9,400.2-45.9,400.2-46,400.2z M-48.2,403.9
		L-48.2,403.9c-0.1,0-0.2-0.1-0.1-0.2l2.2-3.7c0,0,0,0,0.1,0c0.1,0.1,0.1,0.1,0,0.2L-48.2,403.9C-48.1,403.9-48.1,403.9-48.2,403.9z
		 M-48.2,403.9c-0.1,0-0.1,0-0.1-0.1c-0.1-0.1,0-0.1,0.1-0.1l3.8-0.6c0.1,0,0.1,0,0.1,0.1c0.1,0.1,0.1,0.1-0.1,0.1L-48.2,403.9
		L-48.2,403.9z M-47,408.8c0,0-0.1,0-0.1-0.1l-1.1-4.9c-0.1-0.1,0-0.1,0.1-0.1c0,0,0.1,0,0.1,0.1l1.1,4.9
		C-46.8,408.8-46.9,408.8-47,408.8z M-44.4,406.2l-3.8-2.3c-0.1-0.1-0.1-0.1,0-0.1c0.1-0.1,0.1-0.1,0.1,0l3.8,2.3c0,0,0,0,0,0.1
		H-44.4L-44.4,406.2z M-47.1,408.8c-0.1,0-0.1-0.1,0-0.1l2.6-2.6h0.1c0.1,0.1,0.1,0.1,0,0.2l-2.6,2.6h-0.1
		C-47,408.8-47.1,408.8-47.1,408.8z M-43.3,409.4l-3.7-0.6c-0.1,0-0.1,0-0.1-0.1c0.1-0.1,0.1-0.1,0.1-0.1l3.7,0.6
		c0.1,0,0.1,0,0.1,0.1C-43.3,409.4-43.3,409.4-43.3,409.4z M-46.5,389.2c-0.1,0-0.1,0-0.1-0.1c0-0.1,0-0.1,0.1-0.1l3.9-0.4
		c0.1,0,0.1,0,0.1,0.1s0,0.1-0.1,0.1L-46.5,389.2z M-45.2,392.6C-45.2,392.6-45.2,392.5-45.2,392.6l-1.5-3.4c0-0.1,0-0.1,0.1-0.2
		c0.1,0,0.1,0,0.1,0.1l1.4,3.4C-45.1,392.5-45.1,392.5-45.2,392.6L-45.2,392.6z M-44.4,403.3L-44.4,403.3l-1.7-3.1
		c-0.1,0,0-0.1,0-0.2c0.1,0,0.1,0,0.1,0l1.6,3C-44.3,403.2-44.3,403.2-44.4,403.3L-44.4,403.3z M-46,400.2c-0.1,0-0.1,0-0.1-0.1
		l0.4-3c0.1-0.1,0.1-0.1,0.1-0.1c0.1,0,0.2,0,0.1,0.1l-0.4,3C-45.9,400.2-46,400.2-46,400.2z M-45.6,397.2
		C-45.6,397.2-45.7,397.2-45.6,397.2c-0.2,0-0.2-0.1-0.1-0.2l2-2.2h0.1c0,0.1,0,0.1,0,0.1L-45.6,397.2
		C-45.5,397.2-45.6,397.2-45.6,397.2z M-45.2,392.6L-45.2,392.6c-0.1-0.1-0.1-0.1-0.1-0.2l2.5-3.8c0,0,0.1,0,0.2,0c0,0,0,0.1,0,0.2
		L-45.2,392.6C-45.1,392.5-45.1,392.6-45.2,392.6z M-43.6,395C-43.6,395-43.6,394.9-43.6,395l-1.7-2.4c-0.1,0,0-0.1,0-0.2
		c0.1,0,0.1,0,0.1,0l1.6,2.4C-43.5,394.9-43.5,394.9-43.6,395L-43.6,395z M-45.2,392.6C-45.2,392.6-45.2,392.5-45.2,392.6
		c-0.1-0.2-0.1-0.2,0-0.2l3.5-0.4c0,0,0.1,0,0.1,0.1c0,0.1,0,0.1-0.1,0.1L-45.2,392.6z M-44.4,406.2L-44.4,406.2
		c-0.1-0.1-0.1-0.1-0.1-0.2l3.2-2.3h0.1c0.1,0.1,0.1,0.1,0,0.1L-44.4,406.2L-44.4,406.2z M-41.2,404l-3.2-0.7c-0.1,0-0.1,0-0.1-0.1
		s0-0.2,0.1-0.1l3.2,0.7c0.1,0,0.1,0,0.1,0.1C-41.1,403.9-41.1,404-41.2,404z M-44.4,406.2c-0.1,0-0.1,0-0.1-0.1v-3
		c0-0.1,0-0.1,0.1-0.1s0.1,0,0.1,0.1L-44.4,406.2C-44.3,406.2-44.3,406.2-44.4,406.2z M-43.3,409.4
		C-43.4,409.4-43.4,409.4-43.3,409.4l-1.2-3.3c0-0.1,0-0.1,0.1-0.1c0.1-0.1,0.1-0.1,0.1,0l1.1,3.2
		C-43.2,409.3-43.2,409.4-43.3,409.4L-43.3,409.4z M-43.6,395c-0.1-0.1-0.1-0.1,0-0.2l1.9-2.8h0.1c0.1,0.1,0.1,0.1,0,0.2l-1.9,2.8
		H-43.6L-43.6,395z M-43.6,395c-0.1,0-0.1,0-0.1-0.1s0-0.1,0.1-0.1h3.3c0.1,0,0.1,0,0.1,0.1s0,0.1-0.1,0.1H-43.6z M-43.3,409.4
		C-43.4,409.4-43.4,409.4-43.3,409.4c-0.1-0.1-0.1-0.1,0-0.2l3.3-1.2c0.1,0,0.1,0,0.1,0c0,0.1,0,0.1,0,0.2L-43.3,409.4L-43.3,409.4z
		 M-43.3,409.4L-43.3,409.4c-0.1-0.1-0.1-0.1-0.1-0.2l2.2-5.5c0-0.1,0-0.1,0.1,0c0.1,0,0.1,0,0.1,0.1l-2.2,5.5
		C-43.3,409.4-43.3,409.4-43.3,409.4z M-41.6,392.2C-41.7,392.2-41.7,392.1-41.6,392.2l-1.1-3.5c0-0.1,0-0.1,0.1-0.1
		c0,0,0.1,0,0.1,0.1l1,3.4C-41.5,392.1-41.5,392.2-41.6,392.2L-41.6,392.2z M-40,389.7L-40,389.7l-2.7-1c-0.1,0-0.1-0.1-0.1-0.1
		c0-0.1,0.1-0.1,0.1-0.1l2.7,1C-39.8,389.5-39.8,389.5-40,389.7C-39.9,389.7-39.9,389.7-40,389.7z M-41.6,392.2L-41.6,392.2
		c-0.1-0.1-0.1-0.1-0.1-0.2l1.7-2.5c0-0.1,0.1-0.1,0.1,0c0.1,0.1,0.1,0.1,0,0.1L-41.6,392.2C-41.6,392.1-41.6,392.2-41.6,392.2z
		 M-41.6,392.2C-41.7,392.2-41.7,392.1-41.6,392.2c-0.1-0.2-0.1-0.2,0-0.2l4-0.4c0.1,0,0.1,0,0.1,0.1s0,0.1-0.1,0.1L-41.6,392.2z
		 M-40.3,394.9C-40.3,394.9-40.4,394.9-40.3,394.9l-1.4-2.8c0-0.1,0-0.1,0-0.2c0.1,0,0.1,0,0.1,0l1.4,2.8
		C-40.1,394.9-40.1,394.9-40.3,394.9L-40.3,394.9z M-40,408.2C-40,408.2-40,408.1-40,408.2l-1.3-4.3c-0.1-0.1-0.1-0.1,0.1-0.1
		c0.1,0,0.1,0,0.1,0.1l1.2,4.2C-39.9,408.1-39.9,408.1-40,408.2L-40,408.2z M-41.2,404L-41.2,404C-41.2,403.9-41.2,403.9-41.2,404
		c-0.1-0.1-0.1-0.1,0-0.2l2.4-1.4c0.1,0,0.1,0,0.2,0c0,0.1,0,0.1,0,0.2L-41.2,404C-41.1,403.9-41.1,404-41.2,404z M-40.3,394.9
		L-40.3,394.9c-0.1-0.1-0.1-0.1-0.1-0.2l2.6-3.2c0.1-0.1,0.1-0.1,0.2,0c0,0.1,0,0.1,0,0.1L-40.3,394.9
		C-40.2,394.9-40.2,394.9-40.3,394.9z M-38.2,396.9L-38.2,396.9l-2.1-2c-0.1-0.1-0.1-0.1,0-0.2s0.1-0.1,0.2,0l2,2
		C-38.1,396.8-38.1,396.8-38.2,396.9L-38.2,396.9z M-37.6,391.8C-37.7,391.8-37.7,391.7-37.6,391.8l-2.4-2.1c-0.1-0.1-0.1-0.1,0-0.2
		c0.1-0.1,0.1-0.1,0.2,0l2.3,2.1C-37.5,391.7-37.5,391.7-37.6,391.8C-37.6,391.7-37.6,391.8-37.6,391.8z M-40,408.2
		C-40,408.2-40,408.1-40,408.2c-0.1-0.1-0.1-0.1-0.1-0.2l2.4-2.5h0.1c0,0.1,0,0.1,0,0.1L-40,408.2C-39.9,408.1-39.9,408.2-40,408.2z
		 M-40,408.2L-40,408.2c-0.1,0-0.1,0-0.1-0.1l1.2-5.6c0.1-0.1,0.1-0.1,0.1-0.1c0.1,0,0.1,0,0.1,0.1L-40,408.2
		C-39.9,408.1-39.9,408.2-40,408.2z M-38.8,402.5L-38.8,402.5c-0.1-0.1-0.1-0.1-0.1-0.1l1.1-3.4c0-0.1,0-0.1,0.1,0
		c0.1,0,0.1,0,0,0.1L-38.8,402.5C-38.7,402.5-38.7,402.5-38.8,402.5z M-38.8,402.5c-0.1,0-0.1,0-0.1-0.1s0-0.1,0.1-0.1l4-0.3
		c0.1,0,0.1,0,0.1,0.1c0,0.1,0,0.1-0.1,0.1L-38.8,402.5z M-37.6,405.7C-37.7,405.7-37.7,405.7-37.6,405.7l-1.3-3.2
		c0,0,0-0.1,0.1-0.1s0.1,0,0.1,0.1l1.2,3.2C-37.5,405.6-37.5,405.7-37.6,405.7L-37.6,405.7z M-38.3,396.9c-0.1-0.1-0.1-0.1,0-0.2
		l2.2-1.7c0.1,0,0.1,0,0.2,0c0.1,0.1,0.1,0.1,0,0.1l-2.2,1.7h-0.2V396.9z M-38.2,396.9L-38.2,396.9c-0.1,0-0.1,0-0.1-0.1l0.6-5.2
		c0-0.1,0-0.1,0.1-0.1s0.1,0,0.1,0.1L-38.2,396.9L-38.2,396.9z M-37.7,399.1C-37.8,399.1-37.8,399.1-37.7,399.1l-0.6-2.2
		c0-0.1,0-0.1,0.1-0.1c0.1-0.1,0.1-0.1,0.1,0.1l0.5,2.2C-37.6,399-37.6,399.1-37.7,399.1L-37.7,399.1z M-34.7,398.2L-34.7,398.2
		l-3.6-1.3c-0.1,0-0.1-0.1-0.1-0.2c0.1-0.1,0.1-0.1,0.1,0l3.6,1.4C-34.6,398.1-34.6,398.1-34.7,398.2
		C-34.6,398.2-34.6,398.2-34.7,398.2z M-34.7,402.2L-34.7,402.2l-3.1-3.2c-0.1-0.1-0.1-0.1,0-0.2s0.1-0.1,0.2,0l3,3.2
		C-34.6,402.1-34.6,402.2-34.7,402.2L-34.7,402.2z M-37.7,399.1C-37.8,399.1-37.8,399.1-37.7,399.1c-0.1-0.1-0.1-0.2,0-0.2l3-0.9
		c0.1,0,0.1,0,0.1,0.1c0,0.1,0,0.1-0.1,0.1L-37.7,399.1L-37.7,399.1z M-34.9,392.6l-2.7-0.8c-0.1,0-0.2,0-0.1-0.1
		c0-0.1,0-0.1,0.1-0.1l2.7,0.8c0.1,0,0.1,0,0.1,0.1C-34.9,392.5-34.9,392.6-34.9,392.6z M-34.5,378h-3.2c-0.1,0-0.1,0-0.1-0.1
		s0-0.1,0.1-0.1h3.2C-34.4,377.8-34.4,377.9-34.5,378C-34.4,378-34.4,378-34.5,378z M-37.6,381.2c-0.1,0-0.1,0-0.1-0.1V378
		c0-0.1,0-0.1,0.1-0.1s0.1,0,0.1,0.1v3.1L-37.6,381.2z M-36,395.2c0,0-0.1,0-0.1-0.1l-1.6-3.4c0-0.1,0-0.1,0-0.2
		c0.1,0,0.1,0,0.2,0.1l1.5,3.4C-35.9,395.1-35.9,395.1-36,395.2L-36,395.2z M-37.6,381.2C-37.7,381.2-37.7,381.1-37.6,381.2
		c-0.1-0.1-0.1-0.1,0-0.2l3.1-3.1c0.1-0.1,0.1-0.1,0.2,0c0,0.1,0,0.1,0,0.1L-37.6,381.2C-37.6,381.1-37.6,381.2-37.6,381.2z
		 M-34.9,383L-34.9,383l-2.8-1.9V381c0.1-0.1,0.1-0.1,0.2,0l2.7,1.8C-34.8,382.9-34.8,382.9-34.9,383C-34.8,383-34.9,383-34.9,383z
		 M-37.6,384.9c-0.1,0-0.1,0-0.1-0.1V381c0-0.1,0-0.1,0.1-0.1s0.1,0,0.1,0.1v3.7C-37.5,384.8-37.6,384.9-37.6,384.9z M-37.6,384.9
		L-37.6,384.9c-0.1-0.1-0.1-0.2,0-0.2l2.7-1.9c0.1,0,0.1,0,0.1,0c0.1,0.1,0.1,0.1,0,0.2L-37.6,384.9
		C-37.6,384.8-37.6,384.8-37.6,384.9L-37.6,384.9z M-34.5,387.3L-34.5,387.3l-3.2-2.4v-0.1c0.1-0.1,0.1-0.1,0.2,0l3.1,2.4
		C-34.4,387.1-34.3,387.2-34.5,387.3C-34.4,387.3-34.5,387.3-34.5,387.3z M-37.6,388.4c-0.1,0-0.1,0-0.1-0.1v-3.5
		c0-0.1,0-0.1,0.1-0.1s0.1,0,0.1,0.1v3.5L-37.6,388.4z M-37.6,388.4C-37.7,388.4-37.7,388.3-37.6,388.4c-0.1-0.2-0.1-0.2,0-0.2
		l3.1-1.1c0.1,0,0.1,0,0.1,0.1v0.1L-37.6,388.4C-37.6,388.3-37.6,388.4-37.6,388.4z M-34.9,392.6C-34.9,392.6-35,392.6-34.9,392.6
		C-35,392.5-35,392.5-34.9,392.6l-2.8-4.3c0-0.1,0-0.1,0-0.1s0.1,0,0.2,0l2.7,4.2C-34.8,392.5-34.8,392.5-34.9,392.6L-34.9,392.6z
		 M-37.6,391.8C-37.7,391.8-37.7,391.7-37.6,391.8l-0.1-3.5c0-0.1,0-0.1,0.1-0.1s0.1,0,0.1,0.1v3.4
		C-37.5,391.7-37.6,391.8-37.6,391.8z M-37.6,405.7L-37.6,405.7c-0.1-0.1-0.1-0.1,0-0.2l2.8-3.4h0.1c0.1,0.1,0.1,0.1,0,0.2
		L-37.6,405.7C-37.5,405.7-37.5,405.7-37.6,405.7z M-37.5,409.1c-0.1,0-0.1,0-0.1-0.1l-0.1-3.4c0-0.1,0-0.1,0.1-0.1s0.1,0,0.1,0.1
		l0.1,3.4C-37.4,409.1-37.4,409.1-37.5,409.1z M-34.7,406l-2.9-0.4c-0.1,0-0.1,0-0.1-0.1c0-0.1,0-0.1,0.1-0.1l2.9,0.4
		c0.1,0.1,0.1,0.1,0.1,0.1C-34.6,406-34.6,406-34.7,406z M-35.6,409.1l-2.1-3.4c0-0.1,0-0.1,0-0.1c0.1-0.1,0.1-0.1,0.2,0l2.1,3.4
		c0.1,0.1,0.1,0.1,0,0.1H-35.6L-35.6,409.1z M-35.5,409.1h-2c-0.1,0-0.1,0-0.1-0.1c0-0.1,0-0.1,0.1-0.1h2
		C-35.4,408.9-35.4,409-35.5,409.1C-35.4,409.1-35.4,409.1-35.5,409.1z M-36,395.2L-36,395.2c-0.1,0-0.1-0.1-0.1-0.2l1.2-2.6
		c0,0,0,0,0.1,0c0.1,0.1,0.1,0.1,0.1,0.1L-36,395.2L-36,395.2z M-31.6,396.2l-4.4-1c-0.1,0-0.1,0-0.1-0.1C-36,395-36,395-36,395
		l4.4,1c0.1,0,0.1,0,0.1,0.1L-31.6,396.2z M-34.7,398.2c-0.1,0-0.1,0-0.1,0l-1.4-3.1c0-0.1,0-0.1,0.1-0.1s0.1,0,0.1,0l1.4,3.1
		C-34.6,398.2-34.6,398.2-34.7,398.2L-34.7,398.2z M-35.5,409.1c-0.1,0-0.1,0-0.1-0.1c0-0.1,0-0.1,0.1-0.1h3.8c0.1,0,0.1,0,0.1,0.1
		c0,0.1,0,0.1-0.1,0.1H-35.5z M-35.5,409.1L-35.5,409.1c-0.1-0.1-0.1-0.1-0.1-0.1l0.8-3.1c0-0.1,0-0.1,0.1-0.1
		c0.1,0.1,0.1,0.1,0.1,0.2L-35.5,409.1C-35.4,409.1-35.4,409.1-35.5,409.1z M-31.6,396.2C-31.7,396.2-31.7,396.1-31.6,396.2
		l-3.4-3.6c-0.1-0.1-0.1-0.1,0-0.1h0.1l3.3,3.6C-31.5,396.1-31.5,396.1-31.6,396.2C-31.6,396.1-31.6,396.2-31.6,396.2z M-31.6,392.7
		l-3.3-0.1c-0.1,0-0.1,0-0.1-0.1c0-0.1,0-0.1,0.1-0.1l3.3,0.1c0.1,0,0.1,0,0.1,0.1C-31.5,392.6-31.5,392.7-31.6,392.7z M-31.6,386.1
		C-31.7,386.1-31.7,386.1-31.6,386.1L-35,383c-0.1-0.1-0.1-0.1,0-0.1c0.1-0.1,0.1-0.1,0.2,0l3.3,3.1C-31.5,386-31.5,386-31.6,386.1
		L-31.6,386.1z M-34.9,392.6C-34.9,392.6-35,392.5-34.9,392.6c-0.1-0.1-0.1-0.1-0.1-0.2l2.3-2.5c0.1-0.1,0.1-0.1,0.2,0
		c0,0,0,0.1,0,0.2L-34.9,392.6C-34.8,392.5-34.9,392.6-34.9,392.6z M-34.9,383C-35,383-35,383-34.9,383c-0.1-0.1-0.1-0.1,0-0.2
		l3.3-0.9h0.1c0,0.1,0,0.1-0.1,0.1L-34.9,383L-34.9,383z M-34.9,383c-0.1,0-0.1,0-0.1-0.1l0.4-5c0.1-0.1,0.1-0.1,0.1-0.1
		c0.1,0,0.1,0,0.1,0.1l-0.4,5C-34.8,383-34.8,383-34.9,383z M-34.5,387.3c0,0-0.1,0-0.1-0.1l-0.4-4.3c0-0.1,0-0.1,0.1-0.1
		s0.1,0,0.1,0.1l0.4,4.3C-34.4,387.2-34.4,387.3-34.5,387.3z M-34.9,392.6c-0.1,0-0.1,0-0.1-0.1l0.4-5.3c0.1-0.1,0.1-0.1,0.1-0.1
		c0.1,0,0.1,0,0.1,0.1l-0.4,5.3C-34.8,392.5-34.8,392.6-34.9,392.6z M-34.7,402.2C-34.8,402.2-34.8,402.2-34.7,402.2
		c-0.2-0.1-0.1-0.2,0-0.2l3.1-1.7c0.1,0,0.1,0,0.1,0c0,0.1,0,0.1,0,0.2L-34.7,402.2L-34.7,402.2z M-31.6,404.5L-31.6,404.5l-3.2-2.3
		c-0.1,0-0.1-0.1,0-0.1c0-0.1,0.1-0.1,0.1,0l3.1,2.2C-31.5,404.3-31.5,404.4-31.6,404.5L-31.6,404.5z M-34.7,402.2
		c-0.1,0-0.1,0-0.1-0.1v-4c0-0.1,0-0.1,0.1-0.1c0.1,0.1,0.1,0.1,0.1,0.1L-34.7,402.2C-34.6,402.2-34.7,402.2-34.7,402.2z M-34.7,406
		C-34.8,406-34.8,406-34.7,406l-0.1-3.9c0-0.1,0-0.1,0.1-0.1s0.1,0,0.1,0.1v3.8C-34.6,406-34.6,406-34.7,406z M-34.7,398.2
		C-34.7,398.2-34.8,398.2-34.7,398.2c-0.1-0.1-0.1-0.1-0.1-0.2l3.1-2.1c0.1,0,0.1,0,0.2,0c0,0.1,0,0.1,0,0.1L-34.7,398.2
		L-34.7,398.2z M-31.6,400.6C-31.6,400.6-31.7,400.6-31.6,400.6l-3.2-2.4c-0.1-0.1-0.1-0.1,0-0.2c0-0.1,0-0.1,0.1,0l3.1,2.3
		C-31.5,400.5-31.5,400.5-31.6,400.6C-31.5,400.6-31.6,400.6-31.6,400.6z M-31.6,409.1C-31.7,409.1-31.7,409.1-31.6,409.1l-3.1-3.1
		c-0.1-0.1-0.1-0.1,0-0.2h0.1l3.1,3C-31.5,409-31.5,409-31.6,409.1L-31.6,409.1z M-34.7,406C-34.7,406-34.8,406-34.7,406
		c-0.1-0.1-0.1-0.2,0-0.2l3.1-1.6c0.1,0,0.1,0,0.2,0c0,0.1,0,0.1,0,0.1L-34.7,406L-34.7,406z M-31.6,382.1L-31.6,382.1l-3-4.1
		c-0.1-0.1-0.1-0.1,0-0.1h0.1l2.8,4C-31.5,382-31.5,382-31.6,382.1C-31.6,382-31.6,382-31.6,382.1L-31.6,382.1z M-34.5,378
		c-0.1,0-0.1,0-0.1-0.1s0-0.1,0.1-0.1h2.8c0.1,0,0.1,0,0.1,0.1s0,0.1-0.1,0.1H-34.5z M-32.6,390C-32.7,390-32.7,390-32.6,390
		l-1.9-2.8c-0.1-0.1,0-0.1,0-0.2c0.1,0,0.1,0,0.1,0l1.8,2.8C-32.5,390-32.5,390-32.6,390L-32.6,390z M-34.5,387.3
		C-34.5,387.3-34.6,387.3-34.5,387.3c-0.1-0.1-0.1-0.1,0-0.2l2.8-1.2c0.1,0,0.1,0,0.2,0c0,0.1,0,0.1-0.1,0.2L-34.5,387.3
		L-34.5,387.3z M-31.6,392.7c0,0-0.1,0-0.1-0.1l-1-2.6c-0.1-0.1,0-0.1,0-0.1c0.1,0,0.1,0,0.2,0l1,2.6
		C-31.5,392.6-31.5,392.6-31.6,392.7L-31.6,392.7z M-32.6,390c-0.1,0-0.1,0-0.1-0.1l1-4c0-0.1,0-0.1,0.1-0.1s0.1,0,0.1,0.1l-1,4
		C-32.5,390-32.6,390-32.6,390z M-31.6,382.1c-0.1,0-0.1,0-0.1-0.1v-4c0-0.1,0-0.1,0.1-0.1s0.1,0,0.1,0.1v4L-31.6,382.1z
		 M-31.6,386.1c-0.1,0-0.1,0-0.1-0.1v-4c0-0.1,0-0.1,0.1-0.1s0.1,0,0.1,0.1v4L-31.6,386.1z M-31.6,392.7c-0.1,0-0.1,0-0.1-0.1V386
		c0-0.1,0-0.1,0.1-0.1s0.1,0,0.1,0.1v6.6C-31.5,392.6-31.5,392.7-31.6,392.7z M-31.6,396.2c-0.1,0-0.1,0-0.1-0.1v-3.5
		c0-0.1,0-0.1,0.1-0.1s0.1,0,0.1,0.1v3.5L-31.6,396.2z M-31.6,400.6c-0.1,0-0.1,0-0.1-0.1v-4.4c0-0.1,0-0.1,0.1-0.1s0.1,0,0.1,0.1
		v4.4C-31.5,400.6-31.5,400.6-31.6,400.6z M-31.6,404.5c-0.1,0-0.1,0-0.1-0.1v-3.9c0-0.1,0-0.1,0.1-0.1s0.1,0,0.1,0.1v3.9
		C-31.5,404.5-31.6,404.5-31.6,404.5z M-31.6,409.1c-0.1,0-0.1,0-0.1-0.1v-4.6c0-0.1,0-0.1,0.1-0.1s0.1,0,0.1,0.1v4.6
		C-31.5,409.1-31.6,409.1-31.6,409.1z"/>
</g>
<polygon id="XMLID_68_" class="st1" points="-143.5,365 -114,339.6 -97.5,365 "/>
<polygon id="XMLID_69_" class="st2" points="-109.6,365 -133.2,344.6 -146.5,365 "/>
<text transform="matrix(0.9115 -0.4114 0.4114 0.9115 -166.6676 365.3344)" class="st3 st4">Iceland</text>
</svg>
