<?xml version="1.0" encoding="utf-8"?>
<!-- Generator: Adobe Illustrator 19.1.0, SVG Export Plug-In . SVG Version: 6.00 Build 0)  -->
<!DOCTYPE svg PUBLIC "-//W3C//DTD SVG 1.1//EN" "http://www.w3.org/Graphics/SVG/1.1/DTD/svg11.dtd">
<svg version="1.1" id="Layer_1" xmlns="http://www.w3.org/2000/svg" xmlns:xlink="http://www.w3.org/1999/xlink" x="0px" y="0px"
	 viewBox="0 0 224 43" enable-background="new 0 0 224 43" xml:space="preserve">
<g id="XMLID_67_">
	<path id="XMLID_70_" fill="none" stroke="#ABD1DD" stroke-width="0.5" stroke-miterlimit="10" d="M4.4,11.8h0.2l0,4.7H4.4L4.4,11.8
		z M4.4,26.8l2.3-7.6l0.2,0l-2.3,7.6L4.4,26.8z M4.4,26.8l0.2-6h0.2l-0.2,6H4.4z M4.4,26.8h0.2v4.1H4.4V26.8z M4.4,30.9h0.2l0,3.1
		H4.4L4.4,30.9z M4.4,3.4l0.2-0.1l1.7,2.5L6.1,5.9L4.4,3.4z M4.4,3.4h0.2v5.5H4.4V3.4z M4.4,8.8l1.6-3l0.2,0.1l-1.6,3L4.4,8.8z
		 M4.4,8.9h0.2v3.3H4.4V8.9z M4.4,16.5h0.2l0.1,4.3H4.5L4.4,16.5z M4.4,26.7l4.3-6l0.2,0.1l-4.3,6L4.4,26.7z M4.4,26.8l0.1-0.2
		l2,1.8l-0.2,0.2L4.4,26.8z M4.4,30.8l1.9-2.3l0.2,0.1L4.6,31L4.4,30.8z M4.4,9l0.1-0.2l3.2,3.6l-0.2,0.2L4.4,9z M4.4,11.9l0.1-0.2
		l3.2,0.7l0,0.2L4.4,11.9z M4.4,16.4l3.2-4l0.2,0.1l-3.2,4L4.4,16.4z M4.4,16.6l0.2-0.1l2.3,2.6l-0.2,0.1L4.4,16.6z M4.4,26.7
		l3.8-1.8l0.1,0.2l-3.8,1.8L4.4,26.7z M4.4,31l0.1-0.2l3,1.3l-0.1,0.2L4.4,31z M4.4,33.9l3-1.8l0.1,0.2l-2.9,1.8L4.4,33.9z M4.5,3.5
		V3.3h5.4v0.2H4.5z M4.5,8.8l3.8-1.5l0.1,0.2L4.5,9L4.5,8.8z M4.5,34.1v-0.2h1.6v0.2H4.5z M4.6,20.7L6.7,19l0.1,0.2l-2.2,1.7
		L4.6,20.7z M6.1,5.8l3.8-2.5L10,3.5L6.2,5.9L6.1,5.8z M6.1,5.9l0.1-0.2l2.2,1.5L8.2,7.4L6.1,5.9z M6.1,34l1.3-1.8l0.2,0.1l-1.3,1.8
		L6.1,34z M6.2,33.9h5v0.2h-5V33.9z M6.3,28.5l1.9-3.6L8.4,25l-1.9,3.6L6.3,28.5z M6.3,28.6l0.2,0l1.1,3.6l-0.2,0L6.3,28.6z
		 M6.4,28.5l3.7-0.6l0,0.2l-3.7,0.6V28.5z M6.7,19.1l0.9-6.6h0.2l-0.9,6.6L6.7,19.1z M6.7,19.1l2.2-3.3l0.2,0.1l-2.2,3.3L6.7,19.1z
		 M6.7,19.2L6.8,19l2,1.7l-0.1,0.2L6.7,19.2z M7.4,32.1l2.6-4.2l0.2,0.1l-2.7,4.2L7.4,32.1z M7.4,32.1l3.6-1.8l0.1,0.2l-3.7,1.8
		L7.4,32.1z M7.4,32.3l0.1-0.2l3.7,1.8l-0.1,0.2L7.4,32.3z M7.6,12.5l0.6-5.2l0.2,0l-0.6,5.1H7.6z M7.6,12.4l2.2-2l0.1,0.2l-2.2,2
		L7.6,12.4z M7.6,12.6l0.2-0.1l1.4,3.3l-0.2,0.1L7.6,12.6z M7.6,12.6l0.1-0.2l3.4,1.8L11,14.4L7.6,12.6z M8.2,7.3l1.6-4l0.2,0
		l-1.6,4L8.2,7.3z M8.2,7.4l0.2-0.1l1.6,3.2l-0.2,0.1L8.2,7.4z M8.2,25l0.5-4.2l0.2,0L8.4,25L8.2,25z M8.2,24.9l2.8-2l0.1,0.2
		l-2.8,2L8.2,24.9z M8.2,25l0.2-0.1l1.8,3L10,28L8.2,25z M8.3,7.5l0-0.2L11.1,8l0,0.2L8.3,7.5z M8.7,20.8l0.2-5h0.2l-0.2,5H8.7z
		 M8.7,20.7l2.3-2.1l0.1,0.2l-2.3,2.1L8.7,20.7z M8.7,20.9l0.1-0.2l2.3,2.2L11,23L8.7,20.9z M8.9,15.9l0.2-0.1l2.1,2.8L11,18.8
		L8.9,15.9z M9,15.8l2.1-1.6l0.1,0.2l-2.1,1.6L9,15.8z M9.8,3.4l0.2,0l1.2,4.8l-0.2,0L9.8,3.4z M9.8,10.5L11,8.1l0.2,0.1L10,10.6
		L9.8,10.5z M9.8,10.6l0.2-0.1l1.2,3.8l-0.2,0L9.8,10.6z M9.9,3.3h1.4v0.2H9.9V3.3z M10,27.9l1-5l0.2,0l-1,5L10,27.9z M10,28
		l0.2-0.1l1,2.4L11,30.4L10,28z M11,8.1l0.2-4.8h0.2l-0.2,4.8H11z M11,8.1h0.2v6.2H11V8.1z M11,18.7v-4.4h0.2v4.4H11z M11,18.7h0.2
		v4.2H11V18.7z M11,30.4v-7.4h0.2v7.4H11z M11,30.4h0.2V34H11V30.4z"/>
	<path id="XMLID_135_" fill="none" stroke="#ABD1DD" stroke-width="0.5" stroke-miterlimit="10" d="M19,23.5
		C18.9,23.5,18.9,23.5,19,23.5C18.9,23.4,18.9,23.4,19,23.5c-0.1-0.1-0.1-0.1,0-0.2l3.5-2.4c0.1-0.1,0.1-0.1,0.2,0
		c0,0.1,0,0.1,0,0.2L19,23.5C19,23.5,19,23.5,19,23.5z M20.2,29.2c-0.1,0-0.1,0-0.1-0.1l-1.2-5.7c-0.1-0.1,0-0.1,0.1-0.1
		c0.1,0,0.1,0,0.1,0.1l1.2,5.7C20.3,29.1,20.3,29.2,20.2,29.2z M19,23.5L19,23.5c-0.1-0.1-0.1-0.1-0.1-0.1l1.6-5.3
		c0.1-0.1,0.1-0.1,0.1,0c0.1,0,0.1,0,0.1,0.1l-1.6,5.2C19,23.5,19,23.5,19,23.5z M22,26l-3.1-2.6c-0.1-0.1-0.1-0.1,0-0.1
		c0.1-0.1,0.1-0.1,0.2,0l3.1,2.6c0.1,0.1,0.1,0.1,0,0.2H22C22.1,26,22,26,22,26z M22.9,32.3C22.9,32.3,22.8,32.3,22.9,32.3l-2.8-3.2
		c-0.1,0-0.1-0.1,0-0.1c0.1-0.1,0.1-0.1,0.2,0l2.7,3.2C23,32.2,23,32.3,22.9,32.3L22.9,32.3z M20.1,29.2c0,0,0-0.1,0-0.2l1.9-3.1
		c0.1-0.1,0.1-0.1,0.2,0c0,0,0,0.1,0,0.1l-1.9,3.2L20.1,29.2L20.1,29.2z M20.6,18.2L20.6,18.2c-0.1-0.1-0.1-0.1-0.1-0.2l3.1-3.1
		c0,0,0.1,0,0.1,0c0.1,0.1,0.1,0.1,0,0.2L20.6,18.2L20.6,18.2z M22.5,21C22.4,21,22.4,21,22.5,21l-2-2.8c-0.1,0-0.1-0.1,0-0.1
		c0.1-0.1,0.1,0,0.2,0l1.9,2.8C22.6,20.9,22.6,20.9,22.5,21L22.5,21z M20.6,18.2c-0.1,0-0.1,0-0.1-0.1c0-0.1,0-0.1,0.1-0.1l5.6-1.1
		c0.1,0,0.1,0,0.1,0.1c0,0,0,0.1-0.1,0.1L20.6,18.2z M22,26L22,26c-0.1-0.1-0.1-0.1,0-0.2l3.5-3.1c0.1,0,0.1,0,0.2,0
		c0,0.1,0,0.1,0,0.1L22,26C22.1,26,22.1,26,22,26z M25.1,29.8C25.1,29.8,25.1,29.8,25.1,29.8C25.1,29.8,25.1,29.8,25.1,29.8L22,26
		c-0.1-0.1-0.1-0.1,0-0.2c0,0,0.1,0,0.2,0l3,3.8C25.2,29.7,25.2,29.7,25.1,29.8C25.2,29.8,25.1,29.8,25.1,29.8z M22,26
		C22,26,22,25.9,22,25.9l0.4-5c0-0.1,0-0.1,0.1-0.1c0.1,0,0.1,0,0.1,0.1l-0.4,5C22.2,26,22.1,26,22,26z M26.1,26.4L22,26
		C22,26,22,25.9,22,25.9c0-0.1,0-0.1,0.1-0.1l4.1,0.4c0.1,0,0.1,0,0.1,0.1C26.2,26.4,26.2,26.4,26.1,26.4z M22.9,32.3
		C22.8,32.3,22.8,32.3,22.9,32.3L22,26c0-0.1,0-0.1,0.1-0.1c0.1,0,0.1,0,0.1,0.1l0.8,6.3C23,32.3,23,32.3,22.9,32.3z M22.4,21
		c-0.1,0-0.1-0.1,0-0.1l3.7-3.8c0,0,0.1,0,0.1,0c0.1,0.1,0.1,0.1,0,0.2L22.6,21H22.4C22.4,21,22.4,21,22.4,21z M25.6,23
		C25.5,23,25.5,22.9,25.6,23l-3.2-2c-0.1-0.1-0.1-0.1,0-0.2c0,0,0,0,0.1,0l3.1,2C25.7,22.8,25.7,22.8,25.6,23
		C25.6,22.9,25.6,23,25.6,23z M22.5,21c-0.1,0-0.1,0-0.1-0.1c0-0.1,0-0.1,0.1-0.1l4.2-0.3c0.1,0,0.1,0,0.1,0.1c0,0.1,0,0.1-0.1,0.1
		L22.5,21z M22.9,32.3L22.9,32.3c-0.1-0.1-0.1-0.1-0.1-0.2l2.2-2.5c0,0,0.1,0,0.2,0c0.1,0.1,0.1,0.1,0,0.2L22.9,32.3
		C22.9,32.3,22.9,32.3,22.9,32.3z M27.4,34.5L27.4,34.5l-4.6-2.2c-0.1-0.1-0.1-0.1,0-0.1c0-0.1,0-0.1,0.1,0l4.5,2.2
		C27.5,34.4,27.5,34.5,27.4,34.5C27.5,34.5,27.5,34.5,27.4,34.5z M23.6,15.1C23.6,15.1,23.6,15.1,23.6,15.1c-0.1-0.2-0.1-0.2,0-0.2
		l5.4-1.4c0.1,0,0.1,0,0.1,0.1c0,0.1,0,0.1-0.1,0.1L23.6,15.1C23.7,15.1,23.7,15.1,23.6,15.1z M26.1,17.1l-2.5-2c0,0,0-0.1,0-0.2
		c0.1-0.1,0.1-0.1,0.2,0l2.5,2c0,0,0,0.1,0,0.2H26.1C26.1,17.2,26.1,17.1,26.1,17.1z M25.1,29.8C25.1,29.8,25,29.8,25.1,29.8
		c-0.1-0.1-0.1-0.1,0-0.2l3.2-1.7c0.1,0,0.1,0,0.2,0.1c0,0.1,0,0.1,0,0.1L25.1,29.8L25.1,29.8z M27.4,34.5
		C27.3,34.5,27.3,34.5,27.4,34.5L25,29.7c0,0,0-0.1,0-0.1c0.1-0.1,0.1-0.1,0.1,0l2.3,4.8C27.5,34.4,27.5,34.5,27.4,34.5L27.4,34.5z
		 M25.1,29.8L25.1,29.8C25,29.7,25,29.7,25,29.7l1-3.4c0-0.1,0-0.1,0.1-0.1c0.1,0.1,0.1,0.1,0.1,0.1l-1,3.4
		C25.2,29.8,25.1,29.8,25.1,29.8z M25.6,23L25.6,23c-0.1-0.1-0.1-0.1-0.1-0.2l1.2-2.2c0-0.1,0-0.1,0.1-0.1c0.1,0.1,0.1,0.1,0,0.2
		L25.6,23C25.6,22.9,25.6,23,25.6,23z M26.1,26.4C26.1,26.4,26,26.4,26.1,26.4l-0.6-3.5c-0.1-0.1,0-0.1,0.1-0.1c0,0,0.1,0,0.1,0.1
		l0.6,3.4C26.2,26.4,26.2,26.4,26.1,26.4L26.1,26.4z M29.4,19.5l-3.3-2.4c-0.1,0-0.1,0,0-0.1c0-0.1,0-0.1,0.1,0l3.3,2.4
		c0.1,0,0.1,0,0,0.1L29.4,19.5L29.4,19.5z M26.1,17.1c-0.1,0-0.1-0.1,0-0.1l2.9-3.5c0,0,0.1,0,0.1,0c0,0,0,0.1,0,0.1l-2.9,3.5H26.1
		C26.1,17.2,26.1,17.1,26.1,17.1z M26.1,17.1C26.1,17.1,26.1,17.1,26.1,17.1c-0.1-0.1,0-0.2,0-0.2l5.5-3.2c0.1-0.1,0.1-0.1,0.1,0
		c0.1,0.1,0.1,0.1,0,0.1l-5.5,3.2L26.1,17.1C26.1,17.2,26.1,17.2,26.1,17.1z M26.7,20.7c-0.1,0-0.1,0-0.1-0.1L26,17.1
		c0-0.1,0-0.1,0.1-0.1c0.1,0,0.1,0,0.1,0.1l0.6,3.5C26.8,20.6,26.8,20.7,26.7,20.7z M28.3,28.1l-2.2-1.7c0,0,0-0.1,0-0.2
		c0.1-0.1,0.1-0.1,0.2,0l2.2,1.7c0,0,0,0.1,0,0.1L28.3,28.1L28.3,28.1z M26.7,20.7c-0.1,0-0.1,0-0.1,0c0-0.1,0-0.1,0.1-0.2l2.7-1.2
		c0.1,0,0.1,0,0.1,0.1c0,0,0,0.1,0,0.1L26.7,20.7L26.7,20.7z M27.4,34.5C27.4,34.5,27.3,34.5,27.4,34.5c-0.1-0.1-0.1-0.1-0.1-0.2
		l3.6-3.5c0,0,0.1,0,0.2,0c0,0.1,0,0.1,0,0.1L27.4,34.5L27.4,34.5z M27.4,34.5c-0.1,0-0.1,0-0.1-0.1l1-6.4c0-0.1,0-0.1,0.1-0.1
		c0.1,0,0.1,0,0.1,0.1L27.4,34.5C27.5,34.5,27.5,34.5,27.4,34.5z M27.4,34.5c-0.1,0-0.1,0-0.1-0.1c0-0.1,0-0.1,0.1-0.1h4.2
		c0.1,0,0.1,0,0.1,0.1c0,0.1,0,0.1-0.1,0.1H27.4z M31,31.1C31,31.1,31,31.1,31,31.1C31,31,31,31,31,31.1l-2.7-3
		c-0.1,0-0.1-0.1,0-0.1c0,0,0.1,0,0.1,0l2.7,3C31.1,31,31.1,31,31,31.1C31.1,31.1,31.1,31.1,31,31.1z M31.6,28.1h-3.2
		c-0.1,0-0.1,0-0.1-0.1c0-0.1,0-0.1,0.1-0.1h3.2c0.1,0,0.1,0,0.1,0.1C31.7,28.1,31.7,28.1,31.6,28.1z M31.6,14L29,13.7
		c-0.1,0-0.1,0-0.1-0.1c0-0.1,0-0.1,0.1-0.1l2.6,0.3c0.1,0,0.1,0,0.1,0.1C31.7,14,31.7,14,31.6,14z M29.4,19.5
		C29.4,19.5,29.4,19.5,29.4,19.5c-0.1-0.1-0.1-0.1-0.1-0.2l3.2-1.8c0.1,0,0.1,0,0.2,0c0,0.1,0,0.1,0,0.2L29.4,19.5L29.4,19.5z
		 M29.4,19.5L29.4,19.5c-0.1,0-0.1-0.1-0.1-0.1l2.2-5.5c0.1-0.1,0.1-0.1,0.1,0c0.1,0,0.1,0,0.1,0.1L29.4,19.5
		C29.5,19.5,29.5,19.5,29.4,19.5z M34.7,20.7L34.7,20.7l-5.3-1.2c-0.1,0-0.1,0-0.1-0.1c0.1-0.1,0.1-0.1,0.1-0.1l5.3,1.2
		c0.1,0,0.1,0,0.1,0.1C34.8,20.7,34.8,20.7,34.7,20.7z M31,31.1C31,31.1,31,31.1,31,31.1C30.9,31,30.9,31,31,30.9l3.6-3.9
		c0,0,0.1,0,0.1,0c0.1,0.1,0.1,0.1,0,0.2L31,31.1C31.1,31,31.1,31,31,31.1C31.1,31.1,31.1,31.1,31,31.1z M31,31.1
		C31,31.1,31,31,31,31c-0.1-0.1,0-0.1,0.1-0.1l3.6-0.3c0.1,0,0.1,0,0.1,0.1c0,0,0,0.1-0.1,0.1L31,31.1z M31.6,34.5
		c0,0-0.1,0-0.1-0.1L31,31c-0.1-0.1,0-0.1,0.1-0.1c0.1,0,0.1,0,0.1,0.1l0.6,3.4C31.7,34.5,31.7,34.5,31.6,34.5z M31,31.1
		C31,31,30.9,31,31,31l0.6-3c0-0.1,0-0.1,0.1-0.1c0.1,0.1,0.1,0.1,0.1,0.1L31,31.1C31.1,31.1,31.1,31.1,31,31.1z M31.6,34.5
		C31.5,34.5,31.5,34.5,31.6,34.5c-0.1-0.1-0.1-0.1,0-0.2l3-1.4c0.1-0.1,0.1-0.1,0.1,0c0.1,0.1,0.1,0.1,0,0.1L31.6,34.5L31.6,34.5z
		 M34.7,15.1L34.7,15.1L31.6,14c0,0,0-0.1,0-0.2c0-0.1,0-0.1,0.1,0l3.1,1.1c0.1,0,0.1,0,0.1,0.1C34.7,15.1,34.7,15.1,34.7,15.1z
		 M32.6,17.7c0,0-0.1,0-0.1-0.1l-1-3.7c0-0.1,0-0.1,0.1-0.1c0,0,0.1,0,0.1,0.1l1,3.7C32.7,17.6,32.7,17.7,32.6,17.7z M31.6,28.1
		C31.5,28.1,31.5,28.1,31.6,28.1c-0.1-0.1-0.1-0.2,0-0.2l3-0.9c0.1-0.1,0.1-0.1,0.1,0c0.1,0.1,0.1,0.1,0,0.1L31.6,28.1L31.6,28.1z
		 M32.6,17.6c-0.1,0-0.1,0,0-0.1l2.1-2.6c0-0.1,0-0.1,0.1,0c0.1,0.1,0.1,0.1,0,0.2l-2,2.6H32.6C32.6,17.7,32.6,17.7,32.6,17.6z
		 M34.7,20.7L34.7,20.7l-2.1-3.1c-0.1-0.1-0.1-0.1,0-0.2c0.1,0,0.1,0,0.2,0l2.1,3C34.8,20.6,34.8,20.7,34.7,20.7
		C34.7,20.7,34.7,20.7,34.7,20.7C34.7,20.7,34.7,20.7,34.7,20.7z M34.6,30.8c-0.1-0.1-0.1-0.1-0.1-0.1v-3.6c0-0.1,0-0.1,0.1-0.1
		c0.1,0,0.1,0,0.1,0.1v3.6C34.7,30.7,34.7,30.8,34.6,30.8z M34.6,33.1c-0.1,0-0.1,0-0.1-0.1v-2.4c0-0.1,0-0.1,0.1-0.1
		c0.1,0,0.1,0,0.1,0.1L34.6,33.1C34.7,33.1,34.7,33.1,34.6,33.1z M34.7,20.7c-0.1,0-0.1,0-0.1-0.1V15c0-0.1,0-0.1,0.1-0.1
		c0.1,0,0.1,0,0.1,0.1v5.6C34.8,20.7,34.8,20.7,34.7,20.7z"/>
	<path id="XMLID_190_" fill="none" stroke="#ABD1DD" stroke-width="0.5" stroke-miterlimit="10" d="M42.7,26.4L42.7,26.4
		c-0.1-0.1-0.1-0.1,0-0.2l2.9-3.1c0,0,0.1,0,0.1,0c0.1,0,0.1,0,0,0.1L42.7,26.4C42.8,26.3,42.7,26.4,42.7,26.4z M42.8,21.8
		L42.8,21.8c-0.1,0-0.1,0-0.1-0.1l1.2-3.3c0.1-0.1,0.1-0.1,0.1,0c0.1,0,0.1,0,0.1,0.1L42.8,21.8C42.8,21.8,42.8,21.8,42.8,21.8z
		 M42.7,21.9L42.7,21.9c-0.1-0.1-0.1-0.2,0-0.2l4.4-2.8c0.1-0.1,0.1-0.1,0.1,0c0.1,0.1,0.1,0.1,0,0.1L42.7,21.9
		C42.8,21.8,42.8,21.8,42.7,21.9C42.8,21.9,42.7,21.9,42.7,21.9z M45.6,23.2L45.6,23.2l-3-1.4c0,0,0,0,0-0.1c0.1-0.1,0.1-0.1,0.1,0
		l2.9,1.3c0.1,0,0.1,0.1,0.1,0.1C45.7,23.2,45.7,23.2,45.6,23.2z M42.7,26.4c-0.1,0-0.1,0-0.1-0.1v-4.5c0-0.1,0-0.1,0.1-0.1
		c0.1,0,0.1,0,0.1,0.1v4.5C42.8,26.3,42.8,26.4,42.7,26.4z M42.7,26.4c-0.1,0-0.1,0-0.1-0.1c0-0.1,0-0.1,0.1-0.1l5.9-0.8
		c0,0,0.1,0,0.1,0.1c0,0.1,0,0.1-0.1,0.1L42.7,26.4L42.7,26.4z M44,29.9C43.9,29.9,43.9,29.9,44,29.9l-1.3-3.6c0-0.1,0-0.1,0.1-0.1
		c0,0,0.1,0,0.1,0l1.2,3.5C44.1,29.8,44.1,29.8,44,29.9C44,29.9,44,29.9,44,29.9z M46.6,28.4C46.6,28.4,46.6,28.4,46.6,28.4
		l-3.9-2.1c0,0,0,0,0-0.1c0.1-0.1,0.1-0.1,0.2,0l3.9,2.1c0,0,0,0,0,0.1C46.7,28.4,46.6,28.4,46.6,28.4z M44,18.6L44,18.6
		c-0.1-0.1-0.1-0.1,0-0.2l2.5-2.8c0,0,0.1,0,0.1,0c0,0,0,0.1,0,0.2L44,18.6C44,18.6,44,18.6,44,18.6z M46,32.2
		C45.9,32.2,45.9,32.2,46,32.2l-2-2.4c-0.1-0.1-0.1-0.1,0-0.2c0,0,0.1,0,0.1,0l2,2.4C46.1,32.2,46.1,32.2,46,32.2
		C46,32.2,46,32.2,46,32.2z M47.1,19.1L44,18.6c-0.1,0-0.1,0-0.1-0.1c0-0.1,0-0.2,0.1-0.1l3.2,0.5c0.1,0,0.1,0,0.1,0.1
		C47.2,19.1,47.1,19.1,47.1,19.1z M44,29.9L44,29.9c-0.1-0.1-0.1-0.2,0-0.2l2.6-1.4c0,0,0.1,0,0.2,0c0,0.1,0,0.1,0,0.1L44,29.9
		C44,29.8,44,29.8,44,29.9C44,29.9,44,29.9,44,29.9z M45.6,23.2c-0.1,0-0.1-0.1-0.1-0.1L47,19c0-0.1,0-0.1,0.1,0c0.1,0,0.1,0,0,0.1
		l-1.4,4.1C45.7,23.2,45.7,23.2,45.6,23.2z M45.6,23.2C45.6,23.2,45.6,23.2,45.6,23.2c-0.1-0.1-0.1-0.2,0-0.2l3-1.7
		c0.1,0,0.1,0,0.2,0c0,0.1,0,0.1,0,0.2L45.6,23.2L45.6,23.2z M49.1,23.5l-3.5-0.3c-0.1,0-0.1,0-0.1-0.1c0-0.1,0-0.1,0.1-0.1l3.4,0.3
		C49.2,23.3,49.2,23.4,49.1,23.5C49.2,23.5,49.2,23.5,49.1,23.5z M48.6,25.5C48.6,25.5,48.6,25.5,48.6,25.5l-3-2.4c0,0,0-0.1,0-0.1
		c0,0,0.1,0,0.2,0l3,2.4C48.8,25.4,48.8,25.4,48.6,25.5C48.7,25.5,48.7,25.5,48.6,25.5z M46,32.2C45.9,32.2,45.9,32.2,46,32.2
		c-0.2-0.2-0.1-0.2,0-0.2l2.6-0.6c0,0,0.1,0,0.1,0.1c0,0.1,0,0.1-0.1,0.1L46,32.2L46,32.2z M46,32.2c-0.1,0-0.2,0-0.1-0.1l0.6-3.8
		c0-0.1,0-0.1,0.1-0.1c0.1,0,0.1,0,0.1,0.1l-0.6,3.8C46,32.2,46,32.2,46,32.2z M49,34.2C49,34.2,49,34.2,49,34.2
		C49,34.1,49,34.1,49,34.2l-3.1-1.9c-0.1-0.1-0.1-0.1,0-0.2c0,0,0.1,0,0.1,0l3.1,1.9C49.1,34,49.1,34,49,34.2L49,34.2z M46.4,15.7
		c0-0.1,0-0.1,0-0.1l2.7-1.5c0,0,0.1,0,0.1,0c0.1,0.1,0.1,0.1,0,0.1l-2.6,1.5l0,0C46.5,15.8,46.4,15.8,46.4,15.7z M47.1,19.1
		C47.1,19.1,47,19.1,47.1,19.1l-0.8-3.4c0-0.1,0-0.1,0.1-0.1c0.1,0,0.1,0,0.1,0.1l0.7,3.3C47.2,19,47.2,19.1,47.1,19.1L47.1,19.1z
		 M46.6,28.4L46.6,28.4c-0.1-0.1-0.1-0.1-0.1-0.2l2-2.9c0,0,0.1,0,0.2,0c0.1,0.1,0.1,0.1,0,0.2L46.6,28.4
		C46.7,28.4,46.7,28.4,46.6,28.4z M46.5,28.3C46.5,28.3,46.5,28.2,46.5,28.3l2.9-0.4c0,0,0.1,0,0.1,0.1c0,0.1,0,0.1-0.1,0.1
		l-2.8,0.3l0,0C46.5,28.4,46.5,28.4,46.5,28.3z M51.6,30L51.6,30l-5-1.6c-0.1,0-0.1,0-0.1-0.1c0-0.1,0-0.1,0.1,0l5,1.6
		C51.7,29.8,51.8,29.9,51.6,30C51.7,30,51.7,30,51.6,30z M48.6,31.6C48.6,31.6,48.5,31.6,48.6,31.6l-2.1-3.3c0-0.1,0-0.1,0-0.1
		c0,0,0.1,0,0.2,0l2,3.2C48.7,31.6,48.7,31.6,48.6,31.6L48.6,31.6z M47.1,19.1c0,0-0.1,0-0.1-0.1c0-0.1,0-0.1,0.1-0.1l2.9-0.4
		c0.1,0,0.1,0,0.1,0.1c0,0.1,0,0.1-0.1,0.1L47.1,19.1z M47.1,19.1L47.1,19.1C47,19.1,47,19,47,19l2-4.8c0.1-0.1,0.1-0.1,0.2,0
		c0.1,0,0.1,0,0,0.1L47.1,19.1C47.2,19.1,47.2,19.1,47.1,19.1z M48.6,21.5C48.6,21.5,48.6,21.5,48.6,21.5L47,19.1c0-0.1,0-0.1,0-0.2
		c0.1-0.1,0.1-0.1,0.1,0l1.5,2.4C48.8,21.4,48.8,21.5,48.6,21.5C48.7,21.5,48.7,21.5,48.6,21.5z M48.6,31.6
		C48.5,31.6,48.5,31.6,48.6,31.6c-0.2-0.1-0.1-0.2,0-0.2l3-1.6c0.1,0,0.1,0,0.1,0c0,0.1,0,0.1,0,0.2L48.6,31.6L48.6,31.6z
		 M48.6,25.5c-0.1,0-0.2,0-0.1-0.1l0.5-2c0.1-0.1,0.1-0.1,0.1-0.1c0.1,0,0.2,0,0.1,0.1l-0.5,2C48.7,25.5,48.6,25.5,48.6,25.5z
		 M52.4,34.5L52.4,34.5l-3.9-2.9c-0.1-0.1-0.1-0.1,0-0.2c0.1-0.1,0.1-0.1,0.2,0l3.8,2.9C52.5,34.4,52.5,34.5,52.4,34.5
		C52.5,34.5,52.5,34.5,52.4,34.5z M49.4,28.1C49.4,28.1,49.4,28.1,49.4,28.1l-0.9-2.7c0,0,0-0.1,0-0.1c0.1,0,0.1,0,0.2,0.1l0.8,2.6
		C49.6,28.1,49.6,28.1,49.4,28.1L49.4,28.1z M48.6,25.5C48.5,25.5,48.5,25.5,48.6,25.5c-0.1-0.2-0.1-0.2,0-0.2h3.6
		c0.1,0,0.1,0,0.1,0.1c0,0.1,0,0.1-0.1,0.1H48.6z M54.1,32.2L54.1,32.2l-5.5-0.6c-0.1,0-0.1,0-0.1-0.1c0-0.1,0-0.1,0.1-0.1l5.5,0.6
		C54.1,32,54.2,32.1,54.1,32.2C54.2,32.2,54.1,32.2,54.1,32.2z M49,34.2c-0.1,0-0.1,0-0.1-0.1l-0.4-2.5c0-0.1,0-0.1,0.1-0.1
		c0,0,0.1,0,0.1,0.1l0.4,2.5C49.1,34.1,49.1,34.1,49,34.2z M48.6,21.5L48.6,21.5c-0.1,0-0.1-0.1-0.1-0.2l1.4-2.8
		c0.1-0.1,0.1-0.1,0.2,0c0,0,0,0,0,0.1l-1.4,2.8C48.7,21.5,48.7,21.5,48.6,21.5z M52.9,21.5h-4.2c-0.1,0-0.1,0-0.1-0.1
		c0-0.1,0-0.1,0.1-0.1h4.2C52.9,21.3,53,21.4,52.9,21.5C53,21.5,52.9,21.5,52.9,21.5z M49.1,23.5c0,0-0.1,0-0.1-0.1l-0.4-2
		c0-0.1,0-0.1,0.1-0.1c0.1,0,0.1,0,0.1,0.1l0.4,2C49.3,23.5,49.3,23.5,49.1,23.5z M52.4,34.5L52.4,34.5L49,34.2
		c-0.1-0.1-0.1-0.1-0.1-0.1c0-0.1,0-0.2,0.1-0.1l3.4,0.4C52.5,34.3,52.5,34.4,52.4,34.5C52.5,34.5,52.5,34.5,52.4,34.5z M52,16
		L52,16L49,14.3c-0.1,0-0.1,0,0-0.1c0-0.1,0-0.1,0.1,0l2.8,1.7C52.1,15.8,52.1,15.8,52,16C52,15.9,52,16,52,16z M51.4,25.5
		C51.4,25.5,51.4,25.5,51.4,25.5l-2.4-2c-0.1,0-0.1-0.1,0-0.1c0,0,0.1,0,0.1,0l2.4,2C51.6,25.4,51.6,25.4,51.4,25.5
		C51.5,25.5,51.5,25.5,51.4,25.5C51.5,25.5,51.5,25.5,51.4,25.5z M49.1,14.3c0,0-0.1,0-0.1-0.1c0-0.1,0-0.1,0.1-0.1l3.6-0.6
		c0.1,0,0.1,0,0.1,0.1c0,0.1,0,0.1-0.1,0.1L49.1,14.3z M50,18.8C49.9,18.8,49.9,18.7,50,18.8l-1-4.5c0-0.1,0-0.1,0.1-0.1
		c0.1,0,0.1,0,0.1,0.1l0.9,4.4C50.1,18.7,50.1,18.7,50,18.8L50,18.8z M49.1,23.5L49.1,23.5c-0.1-0.1-0.1-0.2,0-0.2l3.8-2
		c0.1,0,0.1,0,0.1,0c0,0.1,0,0.1,0,0.2L49.1,23.5L49.1,23.5z M51.5,30l-2.2-1.9c-0.1-0.1-0.1-0.1,0-0.2c0.1-0.1,0.1-0.1,0.2,0
		l2.1,1.9c0.1,0,0.1,0,0,0.1H51.5C51.6,30,51.5,30,51.5,30z M50,18.8L50,18.8c-0.1-0.1-0.1-0.1-0.1-0.2l2-2.8c0-0.1,0-0.1,0.1,0
		c0.1,0.1,0.1,0.1,0,0.1L50,18.8C50.1,18.7,50,18.8,50,18.8z M50,18.8C49.9,18.8,49.9,18.7,50,18.8c-0.1-0.2-0.1-0.2,0-0.2l2.8-1
		c0.1,0,0.1,0,0.1,0.1c0.1,0.1,0.1,0.1,0,0.1L50,18.8C50,18.7,50,18.8,50,18.8z M51.4,25.5L51.4,25.5c-0.1,0-0.1-0.1-0.1-0.2l1.4-4
		c0-0.1,0-0.1,0.1-0.1c0.1,0.1,0.1,0.1,0,0.1L51.4,25.5C51.5,25.5,51.5,25.5,51.4,25.5z M51.4,25.5C51.4,25.5,51.4,25.5,51.4,25.5
		C51.4,25.5,51.4,25.5,51.4,25.5c-0.1-0.1-0.1-0.2,0-0.2l5.2-4c0.1,0,0.1,0,0.2,0c0.1,0.1,0.1,0.1,0,0.1L51.4,25.5
		C51.5,25.5,51.5,25.5,51.4,25.5C51.5,25.5,51.5,25.5,51.4,25.5z M54,32.2L51.5,30c-0.1,0-0.1-0.1,0-0.1c0,0,0.1,0,0.1,0l2.5,2.2
		c0,0.1,0,0.1,0,0.1H54C54,32.2,54,32.2,54,32.2z M51.6,30c0,0-0.1,0-0.1-0.1c0-0.1,0-0.1,0.1-0.1l3-0.6c0.1,0,0.1,0,0.1,0.1
		c0,0.1,0,0.1-0.1,0.1L51.6,30z M52.9,17.8C52.8,17.8,52.8,17.7,52.9,17.8l-1-1.8c-0.1-0.1-0.1-0.1,0-0.1c0,0,0.1,0,0.1,0l0.9,1.8
		C53,17.7,53,17.7,52.9,17.8L52.9,17.8z M52,16L52,16c-0.1,0-0.1,0-0.1-0.1l0.8-2.3c0.1-0.1,0.1-0.1,0.2-0.1c0.1,0.1,0.1,0.1,0,0.2
		L52,16C52,15.9,52,16,52,16z M52,16c-0.1,0-0.1,0-0.1,0c0-0.1,0-0.1,0.1-0.1l4.4-1.7c0.1,0,0.1,0,0.1,0.1c0.1,0.1,0.1,0.1,0,0.1
		L52,16L52,16z M56,25.5h-3.8c-0.1,0-0.1,0-0.1-0.1c0-0.1,0-0.1,0.1-0.1H56C56,25.3,56,25.4,56,25.5C56,25.5,56,25.5,56,25.5z
		 M52.4,34.5L52.4,34.5c-0.1-0.1-0.1-0.1-0.1-0.2l1.6-2.3c0,0,0,0,0.1,0c0,0,0,0.1,0,0.2L52.4,34.5C52.5,34.5,52.5,34.5,52.4,34.5z
		 M52.4,34.5c-0.1,0-0.1,0-0.1-0.1c0-0.1,0-0.1,0.1-0.1l3.9-0.4c0.1-0.1,0.1,0,0.1,0.1c0,0,0,0.1-0.1,0.1L52.4,34.5z M56.4,14.3
		l-3.6-0.6c-0.1,0-0.1,0-0.1-0.1c0.1-0.1,0.1-0.1,0.1-0.1l3.6,0.6C56.5,14.1,56.5,14.1,56.4,14.3C56.4,14.3,56.4,14.3,56.4,14.3z
		 M52.8,17.7c-0.1,0-0.1-0.1,0-0.1l3.5-3.5c0.1-0.1,0.1-0.1,0.2,0c0.1,0.1,0.1,0.1,0,0.1l-3.5,3.5H52.8
		C52.8,17.8,52.8,17.7,52.8,17.7z M55.7,19.1L55.7,19.1l-2.9-1.4c-0.1,0-0.1-0.1-0.1-0.1c0-0.1,0.1-0.1,0.2-0.1l2.8,1.4
		C55.8,19,55.8,19,55.7,19.1C55.8,19.1,55.7,19.1,55.7,19.1z M56.7,21.5h-3.8c-0.1,0-0.1,0-0.1-0.1c0-0.1,0-0.1,0.1-0.1h3.8
		C56.8,21.3,56.8,21.4,56.7,21.5C56.8,21.5,56.8,21.5,56.7,21.5z M56.3,34.2C56.3,34.2,56.3,34.2,56.3,34.2
		C56.3,34.1,56.3,34.1,56.3,34.2l-2.3-2c-0.1,0-0.1,0,0-0.1c0,0,0.1,0,0.1,0l2.3,1.9C56.5,34,56.5,34.1,56.3,34.2
		C56.4,34.1,56.4,34.1,56.3,34.2C56.4,34.2,56.3,34.2,56.3,34.2z M54.1,32.2L54.1,32.2c-0.1,0-0.1,0-0.1-0.1l0.5-2.8
		c0-0.1,0-0.1,0.1-0.1c0.1,0.1,0.1,0.1,0.1,0.1L54.1,32.2C54.2,32.2,54.1,32.2,54.1,32.2z M60,32.2h-5.9c-0.1,0-0.1,0-0.1-0.1
		c0-0.1,0-0.1,0.1-0.1H60C60.1,32,60.1,32.1,60,32.2C60.1,32.2,60.1,32.2,60,32.2z M54.5,29.5C54.5,29.5,54.5,29.5,54.5,29.5
		c-0.1-0.1-0.1-0.1,0-0.2l2.3-2.1c0.1-0.1,0.1-0.1,0.2,0c0.1,0.1,0.1,0.1,0,0.2L54.5,29.5L54.5,29.5z M54.5,25.5
		C54.5,25.5,54.5,25.5,54.5,25.5c-0.1,0-0.1-0.1-0.1-0.2l2.2-4c0,0,0,0,0.1,0c0.1,0.1,0.1,0.1,0,0.2l-2.2,4
		C54.6,25.5,54.5,25.5,54.5,25.5z M54.5,29.5C54.5,29.5,54.4,29.5,54.5,29.5c-0.1-0.1-0.1-0.1,0-0.2l5.5-1c0.1-0.1,0.1,0,0.1,0
		c0,0.1,0,0.1-0.1,0.1L54.5,29.5L54.5,29.5z M60,32.2L60,32.2l-5.5-2.8c0,0,0-0.1,0-0.1c0-0.1,0.1-0.1,0.2,0L60,32
		C60.1,32.1,60.1,32.1,60,32.2C60.1,32.2,60.1,32.2,60,32.2z M55.7,19.1L55.7,19.1c-0.1,0-0.1,0-0.1-0.1l0.6-4.8
		c0.1-0.1,0.1-0.1,0.1-0.1c0.1,0,0.2,0,0.1,0.1L55.7,19.1C55.8,19.1,55.8,19.1,55.7,19.1z M55.7,19.1c-0.1,0-0.1,0-0.1,0
		c0-0.1,0-0.1,0.1-0.2l2.6-0.8c0.1,0,0.1,0,0.1,0.1c0,0,0,0.1,0,0.1L55.7,19.1z M56.7,21.5c0,0-0.1,0-0.1-0.1l-1-2.4
		c0-0.1,0-0.1,0.1-0.2c0,0,0.1,0,0.1,0.1l1,2.4C56.8,21.4,56.8,21.5,56.7,21.5L56.7,21.5z M59.4,25.5H56c-0.1,0-0.1,0-0.1-0.1
		c0-0.1,0-0.1,0.1-0.1h3.5C59.5,25.3,59.5,25.4,59.4,25.5C59.5,25.5,59.5,25.5,59.4,25.5z M56.3,34.2C56.3,34.2,56.2,34.1,56.3,34.2
		c-0.2-0.2-0.1-0.2,0-0.2L60,32c0.1,0,0.1,0,0.1,0c0,0.1,0,0.1,0,0.2L56.3,34.2L56.3,34.2z M58.3,18.3
		C58.3,18.3,58.2,18.3,58.3,18.3l-2-4c-0.1,0,0-0.1,0-0.2c0.1,0,0.1,0,0.1,0.1l2,4C58.4,18.2,58.4,18.2,58.3,18.3L58.3,18.3z
		 M59.1,16L59.1,16l-2.8-1.7c-0.1,0-0.1-0.1,0-0.2c0,0,0.1,0,0.1,0l2.8,1.7C59.3,15.8,59.3,15.8,59.1,16C59.2,15.9,59.2,16,59.1,16z
		 M59.4,25.5C59.4,25.5,59.4,25.5,59.4,25.5l-2.8-4c-0.1-0.1-0.1-0.1,0-0.2c0.1,0,0.1,0,0.2,0l2.7,4C59.5,25.4,59.5,25.5,59.4,25.5
		L59.4,25.5z M56.9,25.5C56.9,25.5,56.8,25.5,56.9,25.5l-0.3-4.1c0-0.1,0-0.1,0.1-0.1c0.1,0,0.1,0,0.1,0.1l0.2,4
		C57,25.5,57,25.5,56.9,25.5z M59.4,21.8l-2.8-0.3c-0.1,0-0.1,0-0.1-0.1c0-0.1,0-0.1,0.1-0.1l2.7,0.3c0.1,0,0.1,0,0.1,0.1
		C59.5,21.8,59.5,21.8,59.4,21.8z M56.7,21.5L56.7,21.5c-0.1-0.1-0.1-0.1-0.1-0.2l1.6-3.2c0-0.1,0-0.1,0.1,0c0.1,0.1,0.1,0.1,0,0.1
		L56.7,21.5C56.8,21.5,56.8,21.5,56.7,21.5z M60,28.4L60,28.4l-3.2-1c-0.1,0-0.1,0-0.1-0.1c0.1-0.1,0.1-0.1,0.2,0l3.1,1
		C60.1,28.2,60.1,28.3,60,28.4C60.1,28.4,60.1,28.4,60,28.4z M59.4,21.8c0,0-0.1,0-0.1-0.1l-1.1-3.6c-0.1-0.1-0.1-0.1,0-0.1
		c0.1,0,0.1,0,0.1,0.1l1.1,3.5C59.5,21.7,59.5,21.8,59.4,21.8L59.4,21.8z M62.3,20.8L62.3,20.8l-4-2.6c-0.1,0-0.1,0,0-0.1
		c0.1-0.1,0.1-0.1,0.1,0l4,2.5C62.5,20.7,62.5,20.7,62.3,20.8C62.4,20.8,62.3,20.8,62.3,20.8z M58.3,18.3c0,0-0.1,0-0.1-0.1
		c0-0.1,0-0.1,0.1-0.1l2.6-0.4c0.1,0,0.1,0,0.1,0.1c0,0.1,0,0.1-0.1,0.1L58.3,18.3z M60.9,17.9C60.9,17.9,60.8,17.9,60.9,17.9
		C60.8,17.9,60.8,17.9,60.9,17.9l-1.8-2c-0.1,0-0.1-0.1,0-0.1c0.1-0.1,0.1-0.1,0.2,0l1.8,1.9C61,17.8,61,17.8,60.9,17.9
		C60.9,17.9,60.9,17.9,60.9,17.9C60.9,17.9,60.9,17.9,60.9,17.9z M59.4,21.8C59.4,21.8,59.4,21.8,59.4,21.8c-0.2-0.2-0.1-0.2,0-0.2
		l2.9-1c0.1,0,0.1,0,0.2,0.1c0,0,0,0.1-0.1,0.1L59.4,21.8L59.4,21.8z M62.9,23.5L62.9,23.5l-3.5-1.7c-0.1,0-0.1,0,0-0.1
		c0-0.1,0-0.1,0.1,0l3.4,1.7C63,23.3,63,23.4,62.9,23.5C63,23.5,62.9,23.5,62.9,23.5z M59.4,25.5c-0.1,0-0.1,0-0.1-0.1v-3.7
		c0-0.1,0-0.1,0.1-0.1c0.1,0,0.1,0,0.1,0.1L59.4,25.5C59.5,25.5,59.5,25.5,59.4,25.5z M62.9,25.5h-3.4c-0.1,0-0.1,0-0.1-0.1
		c0-0.1,0-0.1,0.1-0.1h3.4C62.9,25.3,63,25.4,62.9,25.5C63,25.5,62.9,25.5,62.9,25.5z M59.4,25.5C59.4,25.5,59.4,25.5,59.4,25.5
		c-0.1-0.1-0.1-0.1,0-0.2l3.4-2c0.1-0.1,0.1-0.1,0.1,0c0.1,0.1,0,0.1,0,0.1L59.4,25.5L59.4,25.5z M60,32.2
		C60,32.2,59.9,32.2,60,32.2c-0.2,0-0.2-0.1-0.1-0.2l2.4-3c0,0,0.1,0,0.1,0c0,0,0,0.1,0,0.2L60,32.2C60.1,32.2,60,32.2,60,32.2z
		 M60,32.2c-0.1,0-0.1,0-0.1-0.1v-3.8c0-0.1,0-0.1,0.1-0.1c0.1,0,0.1,0,0.1,0.1L60,32.2C60.1,32.2,60.1,32.2,60,32.2z M62.4,29.2
		L62.4,29.2L60,28.4c-0.1,0-0.1,0,0-0.1c0-0.1,0-0.1,0.1,0l2.3,0.8C62.4,29,62.4,29.1,62.4,29.2C62.4,29.2,62.4,29.2,62.4,29.2z
		 M62.3,20.8L62.3,20.8l-1.5-3c-0.1-0.1-0.1-0.1,0-0.1c0.1-0.1,0.1-0.1,0.1,0l1.4,2.9C62.4,20.7,62.4,20.8,62.3,20.8L62.3,20.8z
		 M62.9,23.5C62.8,23.5,62.8,23.5,62.9,23.5l-0.6-2.8c0-0.1,0-0.1,0.1-0.1c0,0,0.1,0,0.1,0.1l0.6,2.7C63,23.4,63,23.5,62.9,23.5
		L62.9,23.5z M62.9,25.5c-0.1,0-0.1,0-0.1-0.1v-2c0-0.1,0-0.1,0.1-0.1c0.1,0,0.1,0,0.1,0.1v2C63,25.5,63,25.5,62.9,25.5z"/>
	<path id="XMLID_286_" fill="none" stroke="#ABD1DD" stroke-width="0.5" stroke-miterlimit="10" d="M70.8,2.9c-0.1,0-0.1,0-0.1-0.1
		c0-0.1,0-0.1,0.1-0.1h3.6c0.1,0,0.1,0,0.1,0.1c0,0.1,0,0.1-0.1,0.1H70.8z M70.8,5.7c-0.1,0-0.1,0-0.1-0.1l-0.1-2.8
		c0-0.1,0-0.1,0.1-0.1c0.1-0.1,0.1,0,0.1,0.1L71,5.6C71,5.7,70.9,5.7,70.8,5.7z M73,6.8L73,6.8l-2.4-3.9c0-0.1,0-0.1,0-0.1
		c0.1,0,0.1,0,0.2,0l2.2,3.8C73.1,6.7,73.1,6.7,73,6.8L73,6.8z M70.8,21.6c-0.1,0-0.1,0,0-0.1l1.7-2c0,0,0.1,0,0.1,0
		c0.1,0,0.1,0,0,0.1l-1.7,2H70.8C70.8,21.7,70.8,21.7,70.8,21.6z M70.8,14.8c-0.1,0-0.1-0.1,0-0.1l2.8-3.9c0.1-0.1,0.1-0.1,0.2,0
		c0,0.1,0,0.1,0,0.1l-2.8,3.9H70.8C70.8,14.8,70.8,14.8,70.8,14.8z M73.8,25.6l-3.1-3.9c-0.1-0.1-0.1-0.1,0-0.2c0.1,0,0.1,0,0.2,0
		l3.1,3.9c0.1,0.1,0.1,0.1,0,0.1H73.8C73.9,25.6,73.8,25.6,73.8,25.6z M70.8,10.6c-0.1,0-0.1,0-0.1-0.1l0-4.9c0-0.1,0-0.1,0.1-0.1
		c0.1,0,0.1,0,0.1,0.1L70.8,10.6C70.9,10.5,70.9,10.6,70.8,10.6z M70.8,14.8c-0.1,0-0.1,0-0.1-0.1v-4.2c0-0.1,0-0.1,0.1-0.1
		c0.1,0,0.1,0,0.1,0.1v4.2C70.9,14.8,70.9,14.8,70.8,14.8z M73.7,10.9l-2.8-0.3c-0.1,0-0.1,0-0.1-0.1c0-0.1,0-0.1,0.1-0.1l2.9,0.3
		c0.1,0.1,0.1,0.1,0.1,0.1C73.8,10.9,73.8,10.9,73.7,10.9z M72.5,19.6c0,0-0.1,0-0.1-0.1l-1.7-4.8c0-0.1,0-0.1,0.1-0.1
		c0.1-0.1,0.1-0.1,0.1,0l1.7,4.9C72.6,19.5,72.6,19.6,72.5,19.6L72.5,19.6z M73.9,15.4L73.9,15.4l-3.1-0.7c-0.1,0-0.1,0-0.1-0.1
		c0.1-0.1,0.1-0.1,0.1-0.1l3,0.7C74,15.2,74,15.3,73.9,15.4C74,15.4,73.9,15.4,73.9,15.4z M70.8,21.7c-0.1,0-0.1,0-0.1-0.1v-6.9
		c0-0.1,0-0.1,0.1-0.1c0.1,0,0.1,0,0.1,0.1v6.9C70.9,21.7,70.9,21.7,70.8,21.7z M70.8,25.2c-0.1,0-0.1,0-0.1-0.1v-3.5
		c0-0.1,0-0.1,0.1-0.1c0.1,0,0.1,0,0.1,0.1L70.8,25.2C70.9,25.1,70.9,25.2,70.8,25.2z M73.9,25.6l-3.1-0.4c-0.1,0-0.1,0-0.1-0.1
		c0-0.1,0-0.1,0.1-0.1l3.1,0.4C74,25.4,74,25.4,73.9,25.6C74,25.6,74,25.6,73.9,25.6z M73,29.5C73,29.5,73,29.5,73,29.5l-2.3-4.4
		c0-0.1,0-0.1,0.1-0.1c0.1-0.1,0.1,0,0.1,0l2.2,4.3C73.2,29.4,73.2,29.5,73,29.5C73.1,29.5,73.1,29.5,73,29.5z M70.8,29.1
		c-0.1,0-0.1,0-0.1-0.1v-3.9c0-0.1,0-0.1,0.1-0.1c0.1,0,0.1,0,0.1,0.1V29C70.9,29,70.9,29.1,70.8,29.1z M70.8,34
		c-0.1,0-0.1,0-0.1-0.1v-5c0-0.1,0-0.1,0.1-0.1c0.1,0,0.1,0,0.1,0.1v5C70.9,34,70.9,34,70.8,34z M70.8,34C70.8,34,70.8,34,70.8,34
		c-0.1,0-0.1-0.1-0.1-0.2l2.2-4.5c0.1-0.1,0.1-0.1,0.1,0c0.1,0,0.1,0,0,0.1L70.9,34C70.9,34,70.8,34,70.8,34z M73.7,34h-2.9
		c-0.1,0-0.1,0-0.1-0.1c0-0.1,0-0.1,0.1-0.1h2.9c0.1,0,0.1,0,0.1,0.1C73.8,34,73.8,34,73.7,34z M73,6.8L73,6.8l-2.2-1
		c-0.1-0.1-0.1-0.1,0-0.2c0.1-0.1,0.1-0.1,0.1,0l2.2,1C73.1,6.6,73.1,6.7,73,6.8C73.1,6.7,73.1,6.8,73,6.8z M70.8,10.6L70.8,10.6
		c-0.1,0-0.1-0.1-0.1-0.2L73,6.6c0,0,0.1,0,0.1,0c0.1,0.1,0.1,0.1,0,0.2L70.8,10.6C70.9,10.5,70.9,10.6,70.8,10.6z M72.5,19.6
		L72.5,19.6c-0.1-0.1-0.1-0.1-0.1-0.1l1.4-4.2c0.1-0.1,0.1-0.1,0.2-0.1c0.1,0.1,0.1,0.1,0,0.1L72.5,19.6
		C72.6,19.6,72.6,19.6,72.5,19.6z M73.9,25.6c0,0-0.1,0-0.1-0.1l-1.4-6c0-0.1,0-0.1,0.1-0.1c0.1,0,0.1,0,0.1,0.1l1.4,6
		C74.1,25.6,74.1,25.6,73.9,25.6z M74.9,20l-2.4-0.3c-0.1,0-0.1,0-0.1-0.1c0-0.1,0-0.1,0.1-0.1l2.4,0.3C75,19.8,75,19.8,74.9,20
		C75,19.9,75,20,74.9,20z M76.8,31L76.8,31L73,29.5c-0.1,0-0.1,0,0-0.1c0-0.1,0-0.1,0.1,0l3.7,1.5C76.9,30.9,76.9,30.9,76.8,31
		C76.8,31,76.8,31,76.8,31z M73.7,10.9C73.6,10.9,73.6,10.9,73.7,10.9L73,6.7c-0.1-0.1,0-0.1,0.1-0.1c0.1,0,0.1,0,0.1,0.1l0.7,4.2
		C73.8,10.9,73.8,10.9,73.7,10.9L73.7,10.9z M73,29.4c-0.1-0.1,0-0.1,0.1-0.1l3.7-1c0.1,0,0.1,0,0.1,0.1c0,0.1,0,0.1-0.1,0.1l-3.7,1
		L73,29.4C73,29.5,73,29.5,73,29.4z M73,6.8L73,6.8c-0.1-0.1-0.1-0.1-0.1-0.1l1.4-3.9c0-0.1,0-0.1,0.1-0.1c0.1,0.1,0.1,0.1,0,0.1
		L73,6.8C73.1,6.7,73.1,6.8,73,6.8z M76.8,7.8l-3.8-1c-0.1-0.1-0.1-0.1,0-0.1c0-0.1,0-0.1,0.1-0.1l3.7,1.1c0.1,0,0.1,0,0.1,0.1
		C76.9,7.8,76.8,7.8,76.8,7.8z M73,29.5L73,29.5c-0.1,0-0.1-0.1-0.1-0.1l0.8-3.9c0.1-0.1,0.1-0.1,0.1-0.1c0.1,0,0.2,0,0.1,0.1
		l-0.8,3.9C73.1,29.5,73.1,29.5,73,29.5z M73.7,34C73.7,34,73.6,34,73.7,34L73,29.4c0-0.1,0-0.1,0.1-0.1c0.1-0.1,0.1-0.1,0.1,0.1
		l0.7,4.5C73.8,34,73.8,34,73.7,34L73.7,34z M73.7,34C73.7,34,73.7,34,73.7,34c-0.2-0.1-0.2-0.2-0.1-0.2l3-3c0.1-0.1,0.1-0.1,0.2,0
		c0,0.1,0,0.1,0,0.1L73.7,34C73.8,34,73.7,34,73.7,34z M73.7,10.9L73.7,10.9c-0.1-0.1-0.1-0.1,0-0.2l3-3.1c0.1-0.1,0.1-0.1,0.2,0
		c0.1,0.1,0.1,0.1,0,0.2L73.7,10.9L73.7,10.9z M76.8,11.7L76.8,11.7l-3.1-0.8c-0.1,0-0.1,0-0.1-0.1c0-0.1,0-0.1,0.1,0l3.1,0.8
		C76.9,11.5,76.9,11.6,76.8,11.7C76.9,11.7,76.9,11.7,76.8,11.7z M73.9,15.4c-0.1,0-0.1,0-0.1-0.1l-0.2-4.6c0,0,0-0.1,0.1-0.1
		c0.1,0,0.1,0,0.1,0.1L73.9,15.4C74,15.4,73.9,15.4,73.9,15.4z M76.8,34h-3c-0.1,0-0.1,0-0.1-0.1c0-0.1,0-0.1,0.1-0.1h3
		C76.8,33.8,76.8,33.9,76.8,34C76.8,34,76.8,34,76.8,34z M73.9,15.4L73.9,15.4c-0.1-0.1-0.1-0.1-0.1-0.2l2.9-3.7c0,0,0.1,0,0.1,0
		c0,0,0,0,0,0.1L73.9,15.4C73.9,15.4,73.9,15.4,73.9,15.4z M74.9,20c0,0-0.1,0-0.1-0.1l-1-4.5c0-0.1,0-0.1,0.1-0.1
		c0.1,0,0.1,0,0.1,0.1l1,4.5C75.1,19.9,75.1,20,74.9,20z M76.8,16.6L76.8,16.6l-2.9-1.2c-0.1-0.1-0.1-0.1-0.1-0.1
		c0-0.1,0.1-0.1,0.2-0.1l2.9,1.2c0.1,0,0.1,0,0.1,0.1C76.9,16.6,76.8,16.6,76.8,16.6z M73.9,25.6C73.9,25.6,73.9,25.6,73.9,25.6
		c-0.2,0-0.2-0.1-0.1-0.2l3-4.2c0,0,0,0,0.1,0c0,0,0,0.1,0,0.2L73.9,25.6C74,25.6,73.9,25.6,73.9,25.6z M76.8,28.5
		C76.7,28.5,76.7,28.5,76.8,28.5l-2.9-3c-0.1,0-0.1-0.1,0-0.1c0.1-0.1,0.1-0.1,0.2,0l2.8,2.9C76.9,28.4,76.9,28.5,76.8,28.5
		C76.8,28.5,76.8,28.5,76.8,28.5z M73.9,25.6L73.9,25.6c-0.1,0-0.1,0-0.1-0.1l1-5.6c0.1-0.1,0.1-0.1,0.1-0.1c0.1,0,0.2,0,0.1,0.1
		L73.9,25.6C74,25.6,74,25.6,73.9,25.6z M73.9,25.6c0,0-0.1,0-0.1-0.1c0-0.1,0-0.1,0.1-0.1l2.8-0.4c0.1,0,0.1,0,0.1,0.1
		c0,0.1,0,0.1-0.1,0.1L73.9,25.6z M76.8,7.8C76.7,7.8,76.7,7.8,76.8,7.8l-2.4-5c0-0.1,0-0.1,0-0.2c0.1,0,0.1,0,0.1,0l2.4,5
		C76.9,7.8,76.9,7.8,76.8,7.8L76.8,7.8z M76.8,2.9h-2.4c-0.1,0-0.1,0-0.1-0.1c0-0.1,0-0.1,0.1-0.1h2.4C76.9,2.7,76.9,2.7,76.8,2.9
		C76.9,2.9,76.9,2.9,76.8,2.9z M76.8,21.4l-2-1.5c-0.1,0-0.1,0,0-0.1c0,0,0.1,0,0.1,0l2,1.5c0,0,0,0.1,0,0.2H76.8
		C76.9,21.4,76.8,21.4,76.8,21.4z M74.9,20L74.9,20c-0.1-0.1-0.1-0.1-0.1-0.2l1.8-3.3c0-0.1,0.1-0.1,0.1,0c0.1,0,0.1,0,0,0.1
		L74.9,20C75,19.9,74.9,20,74.9,20z M76.8,7.8C76.7,7.8,76.7,7.8,76.8,7.8l-0.1-5c0-0.1,0-0.1,0.1-0.1c0.1,0,0.1,0,0.1,0.1v4.9
		C76.9,7.8,76.8,7.8,76.8,7.8z M76.8,11.7c-0.1,0-0.1,0-0.1-0.1V7.7c0-0.1,0-0.1,0.1-0.1c0.1,0,0.1,0,0.1,0.1v3.9
		C76.9,11.7,76.9,11.7,76.8,11.7z M76.8,16.6C76.7,16.6,76.7,16.6,76.8,16.6l-0.1-5c0-0.1,0-0.1,0.1-0.1c0.1,0,0.1,0,0.1,0.1v4.9
		C76.9,16.6,76.8,16.6,76.8,16.6z M76.9,21.4c-0.1,0-0.1,0-0.1-0.1l-0.1-4.8c0-0.1,0-0.1,0.1-0.1c0.1,0,0.1,0,0.1,0.1l0.1,4.8
		C77,21.4,76.9,21.4,76.9,21.4z M76.8,25.2c-0.1,0-0.1,0-0.1-0.1l0.1-3.8c0-0.1,0-0.1,0.1-0.1c0.1,0,0.1,0,0.1,0.1L76.8,25.2
		C76.9,25.1,76.9,25.2,76.8,25.2z M76.8,28.6c-0.1,0-0.1,0-0.1-0.1v-3.4c0-0.1,0-0.1,0.1-0.1c0.1,0,0.1,0,0.1,0.1v3.4
		C76.9,28.5,76.8,28.6,76.8,28.6z M76.8,34c-0.1,0-0.1,0-0.1-0.1v-5.5c0-0.1,0-0.1,0.1-0.1c0.1,0,0.1,0,0.1,0.1v5.5
		C76.9,34,76.8,34,76.8,34z"/>
	<path id="XMLID_341_" fill="none" stroke="#ABD1DD" stroke-width="0.5" stroke-miterlimit="10" d="M84.8,25
		C84.8,25,84.8,24.9,84.8,25c-0.1-0.1-0.1-0.1-0.1-0.2l2.4-1.5c0.1,0,0.1,0,0.2,0c0,0.1,0,0.1,0,0.2L84.8,25L84.8,25z M84.8,25
		L84.8,25c-0.1,0-0.1,0-0.1-0.1l0.6-4.5c0-0.1,0-0.1,0.1-0.1c0.1,0.1,0.1,0.1,0.1,0.1L84.8,25C84.9,24.9,84.9,25,84.8,25z
		 M85.6,28.6C85.5,28.6,85.5,28.5,85.6,28.6l-0.9-3.7c0-0.1,0-0.1,0.1-0.1c0.1,0,0.1,0,0.1,0.1l0.8,3.6
		C85.7,28.5,85.7,28.6,85.6,28.6L85.6,28.6z M85.3,20.4c0,0,0-0.1,0-0.1l1.9-3.4c0-0.1,0-0.1,0.1,0c0.1,0,0.1,0,0,0.1l-1.8,3.4
		L85.3,20.4L85.3,20.4z M87.2,23.4C87.2,23.4,87.2,23.4,87.2,23.4l-2-3c0-0.1,0-0.1,0-0.1c0.1-0.1,0.1,0,0.2,0l1.8,3
		C87.3,23.3,87.3,23.3,87.2,23.4L87.2,23.4z M87.4,31.6L87.4,31.6l-1.9-3.1c-0.1-0.1-0.1-0.1,0-0.1c0.1-0.1,0.1-0.1,0.1,0l1.8,3
		C87.6,31.5,87.5,31.6,87.4,31.6C87.4,31.6,87.4,31.6,87.4,31.6z M85.6,28.6c-0.1,0-0.2,0-0.1-0.1l1.6-5.2c0.1-0.1,0.1-0.1,0.2-0.1
		c0.1,0.1,0.1,0.1,0,0.1l-1.6,5.2C85.7,28.5,85.6,28.6,85.6,28.6z M85.6,28.6C85.6,28.6,85.5,28.5,85.6,28.6c-0.1-0.1-0.1-0.1,0-0.2
		l3.5-3.2c0,0,0.1,0,0.1,0c0,0.1,0,0.1,0,0.1L85.6,28.6L85.6,28.6z M89.3,29.1l-3.7-0.5c-0.1,0-0.1,0-0.1-0.1c0-0.1,0-0.1,0.1-0.1
		l3.7,0.5c0.1,0.1,0.1,0.1,0.1,0.1C89.4,29.1,89.4,29.1,89.3,29.1z M87.2,17L87.2,17c-0.1-0.1-0.1-0.1-0.1-0.2l3.1-2.6
		c0.1-0.1,0.1-0.1,0.2,0c0,0.1,0,0.1,0,0.2L87.2,17L87.2,17z M89.5,20.2C89.5,20.2,89.5,20.2,89.5,20.2L87.2,17
		c-0.1,0-0.1-0.1,0-0.1c0.1-0.1,0.1,0,0.2,0l2.3,3.2C89.7,20.1,89.7,20.2,89.5,20.2C89.6,20.2,89.5,20.2,89.5,20.2z M87.2,23.4
		L87.2,23.4c-0.1-0.1-0.1-0.1-0.1-0.2l2.3-3.2c0,0,0.1,0,0.2,0c0.1,0.1,0.1,0.1,0,0.2L87.2,23.4C87.3,23.4,87.3,23.4,87.2,23.4z
		 M89.2,25.4L89.2,25.4l-2-2.1c-0.1,0-0.1-0.1,0-0.1c0.1-0.1,0.1-0.1,0.2,0l1.9,2C89.2,25.3,89.2,25.4,89.2,25.4L89.2,25.4z
		 M87.2,23.4c-0.1,0-0.1,0-0.1-0.1v-6.4c0-0.1,0-0.1,0.1-0.1c0.1,0,0.1,0,0.1,0.1L87.2,23.4C87.3,23.4,87.3,23.4,87.2,23.4z
		 M87.2,17c-0.1,0-0.1,0-0.1-0.1c0-0.1,0-0.1,0.1-0.1h2.3c0.1,0,0.1,0,0.1,0.1c0,0.1,0,0.1-0.1,0.1H87.2z M87.4,31.6
		C87.4,31.6,87.4,31.6,87.4,31.6c-0.1-0.1-0.1-0.1-0.1-0.2l1.9-2.5c0.1-0.1,0.1-0.1,0.2,0c0,0.1,0,0.1,0,0.1L87.4,31.6
		C87.5,31.6,87.4,31.6,87.4,31.6z M90.9,34.1L90.9,34.1l-3.5-2.5c-0.1-0.1-0.1-0.1,0-0.1c0.1-0.1,0.1-0.1,0.2,0l3.4,2.5
		C91,33.9,91,34,90.9,34.1C91,34.1,90.9,34.1,90.9,34.1z M91.4,31.9l-4-0.3c-0.1,0-0.1,0-0.1-0.1c0-0.1,0-0.1,0.1-0.1l4,0.3
		c0.1,0,0.1,0,0.1,0.1C91.5,31.9,91.4,31.9,91.4,31.9z M89.2,25.4L89.2,25.4c-0.1-0.1-0.1-0.1-0.1-0.2l2.2-2c0,0,0.1,0,0.1,0
		c0,0.1,0,0.1,0,0.1L89.2,25.4L89.2,25.4z M89.2,25.4L89.2,25.4c-0.1,0-0.1,0-0.1-0.1l0.4-5.2c0-0.1,0-0.1,0.1-0.1
		c0.1,0,0.1,0,0.1,0.1l-0.4,5.2C89.2,25.4,89.2,25.4,89.2,25.4z M91.4,26.1l-2.2-0.7c-0.1,0-0.1-0.1-0.1-0.2c0.1-0.1,0.1-0.1,0.1,0
		l2.2,0.7c0.1,0,0.1,0,0.1,0.1C91.5,26.1,91.4,26.1,91.4,26.1z M89.3,29.1C89.3,29.1,89.2,29.1,89.3,29.1L89,25.3
		c0-0.1,0-0.1,0.1-0.1c0.1,0,0.1,0,0.1,0.1l0.2,3.7C89.4,29.1,89.4,29.1,89.3,29.1z M91.4,31.9L91.4,31.9L89.2,29c0,0,0-0.1,0-0.1
		c0,0,0.1,0,0.1,0l2,2.8C91.5,31.8,91.5,31.9,91.4,31.9C91.4,31.9,91.4,31.9,91.4,31.9C91.4,31.9,91.4,31.9,91.4,31.9z M89.3,29.1
		L89.3,29.1c-0.1-0.1-0.1-0.1-0.1-0.2l2-2.9c0.1-0.1,0.1-0.1,0.2,0c0,0.1,0,0.1,0,0.1L89.3,29.1C89.4,29.1,89.4,29.1,89.3,29.1z
		 M89.5,20.2C89.5,20.2,89.5,20.2,89.5,20.2c-0.1-0.1-0.1-0.1-0.1-0.2l3-3.4c0,0,0.1,0,0.1,0c0.1,0.1,0.1,0.1,0,0.2L89.5,20.2
		C89.6,20.2,89.6,20.2,89.5,20.2z M89.5,20.2C89.5,20.2,89.4,20.2,89.5,20.2c-0.1-0.1-0.1-0.1,0-0.2l5.1-2.3c0.1,0,0.1,0,0.2,0
		c0,0.1,0,0.1-0.1,0.2L89.5,20.2L89.5,20.2z M91.3,23.4L91.3,23.4l-1.8-3.2c0-0.1,0-0.1,0-0.2c0.1-0.1,0.1-0.1,0.1,0l1.8,3.2
		C91.4,23.3,91.4,23.3,91.3,23.4L91.3,23.4z M89.6,17L89.6,17c-0.1,0-0.1,0-0.1-0.1l0.8-2.6c0.1-0.1,0.1-0.1,0.1-0.1
		c0.1,0,0.1,0.1,0.1,0.1L89.6,17C89.6,17,89.6,17,89.6,17z M89.6,17c-0.1,0-0.1,0-0.1-0.1c0-0.1,0-0.1,0.1-0.1l2.9-0.2
		c0.1,0,0.1,0,0.1,0.1c0,0.1,0,0.1-0.1,0.1L89.6,17z M89.5,20.2c-0.1,0-0.1,0-0.1-0.1v-3.2c0-0.1,0-0.1,0.1-0.1c0.1,0,0.1,0,0.1,0.1
		v3.2C89.6,20.2,89.6,20.2,89.5,20.2z M92.8,20.6l-3.2-0.4c-0.1,0-0.1,0-0.1-0.1c0-0.1,0-0.1,0.1-0.1l3.2,0.4c0.1,0,0.1,0,0.1,0.1
		C92.9,20.6,92.8,20.6,92.8,20.6z M92.5,16.8L92.5,16.8l-2.2-2.4c-0.1,0-0.1-0.1,0-0.1c0.1-0.1,0.1-0.1,0.2,0l2.1,2.4
		C92.6,16.7,92.6,16.8,92.5,16.8L92.5,16.8z M90.4,14.4c0,0-0.1,0-0.1-0.1c0,0,0-0.1,0.1-0.1l3-0.7c0.1-0.1,0.1-0.1,0.1,0
		c0,0.1,0,0.1-0.1,0.1L90.4,14.4z M90.9,34.1C90.8,34.1,90.8,34.1,90.9,34.1c-0.2-0.1-0.1-0.2,0-0.2l4-2c0,0,0.1,0,0.2,0
		c0,0.1,0,0.1,0,0.1L90.9,34.1L90.9,34.1z M90.9,34.1L90.9,34.1c-0.1,0-0.1,0-0.1-0.1l0.5-2.2c0-0.1,0-0.1,0.1,0
		c0.1,0,0.1,0,0.1,0.1L90.9,34.1C91,34.1,90.9,34.1,90.9,34.1z M94.1,34.5l-3.2-0.4c-0.1,0-0.1,0-0.1-0.1c0-0.1,0-0.1,0.1-0.1
		l3.2,0.4c0.1,0,0.1,0,0.1,0.1C94.2,34.5,94.2,34.5,94.1,34.5z M91.3,23.4L91.3,23.4c-0.1-0.1-0.1-0.1-0.1-0.2l1.5-2.8
		c0,0,0.1,0,0.1,0c0.1,0,0.1,0.1,0,0.2L91.3,23.4C91.3,23.4,91.3,23.4,91.3,23.4z M91.4,26.1C91.3,26.1,91.3,26.1,91.4,26.1
		l-0.2-2.8c0-0.1,0-0.1,0.1-0.1c0.1,0,0.1,0,0.1,0.1l0.1,2.8C91.5,26.1,91.5,26.1,91.4,26.1L91.4,26.1z M92.8,28.2
		C92.7,28.2,92.7,28.2,92.8,28.2l-1.5-2.2c0-0.1,0-0.1,0-0.1c0.1-0.1,0.1,0,0.2,0l1.4,2.1C92.9,28.2,92.9,28.2,92.8,28.2L92.8,28.2z
		 M91.4,31.9c-0.1,0-0.1,0-0.1-0.1V26c0-0.1,0-0.1,0.1-0.1c0.1,0,0.1,0,0.1,0.1v5.8C91.5,31.9,91.4,31.9,91.4,31.9z M91.4,31.9
		L91.4,31.9c-0.1,0-0.1-0.1-0.1-0.2l1.4-3.6c0-0.1,0-0.1,0.1,0c0.1,0,0.1,0,0.1,0.1l-1.4,3.6C91.4,31.9,91.4,31.9,91.4,31.9z
		 M91.4,31.9L91.4,31.9c-0.1-0.1-0.1-0.2,0-0.2l3.9-2.8c0,0,0.1,0,0.1,0c0,0.1,0,0.1,0,0.2L91.4,31.9C91.4,31.9,91.4,31.9,91.4,31.9
		C91.4,31.9,91.4,31.9,91.4,31.9z M94.9,32.1l-3.5-0.2c-0.1-0.1-0.1-0.1-0.1-0.1c0-0.1,0-0.1,0.1-0.1l3.5,0.2c0.1,0,0.1,0,0.1,0.1
		C95,32,95,32.1,94.9,32.1z M92.5,16.8C92.4,16.8,92.4,16.8,92.5,16.8c-0.1-0.1-0.1-0.1-0.1-0.2l3.5-2.8c0.1,0,0.1,0,0.2,0
		c0.1,0.1,0,0.1,0,0.1L92.5,16.8L92.5,16.8z M92.5,16.8L92.5,16.8c-0.1,0-0.1,0-0.1-0.1l0.8-3.2c0.1-0.1,0.1-0.1,0.1,0
		c0.1,0,0.1,0,0.1,0.1L92.5,16.8C92.6,16.8,92.5,16.8,92.5,16.8z M94.6,17.9L94.6,17.9l-2.2-1c-0.1,0-0.1,0-0.1-0.1
		c0.1-0.1,0.1-0.1,0.2,0l2.1,1c0.1,0,0.1,0.1,0.1,0.1C94.7,17.9,94.6,17.9,94.6,17.9z M92.8,20.6L92.8,20.6
		c-0.1-0.1-0.1-0.1-0.1-0.2l1.8-2.8c0,0,0.1,0,0.2,0c0.1,0.1,0.1,0.1,0,0.2L92.8,20.6C92.8,20.6,92.8,20.6,92.8,20.6z M95.3,29
		L95.3,29l-2.6-0.8c-0.1,0-0.1,0,0-0.1c0-0.1,0-0.1,0.1,0l2.5,0.8C95.4,28.9,95.4,28.9,95.3,29C95.4,29,95.3,29,95.3,29z M92.8,20.6
		C92.7,20.6,92.7,20.6,92.8,20.6c-0.1-0.1-0.1-0.1,0-0.2l2.9-1c0.1,0,0.1,0,0.1,0c0,0.1,0,0.1,0,0.2L92.8,20.6L92.8,20.6z M96,14.1
		l-2.7-0.4c-0.1,0-0.1,0-0.1-0.1c0-0.1,0-0.2,0.1-0.1l2.6,0.4C96,13.9,96.1,13.9,96,14.1C96,14.1,96,14.1,96,14.1z M94.1,34.5
		L94.1,34.5c-0.1,0-0.1-0.1-0.1-0.2l0.8-2.4c0-0.1,0-0.1,0.1,0c0.1,0,0.1,0,0.1,0.1l-0.8,2.4C94.1,34.5,94.1,34.5,94.1,34.5z
		 M94.1,34.5C94,34.5,94,34.5,94.1,34.5c-0.1-0.1-0.1-0.2,0-0.2l3.2-1c0.1-0.1,0.1-0.1,0.1,0c0,0.1,0,0.1,0,0.1L94.1,34.5L94.1,34.5
		z M94.6,17.9C94.5,17.9,94.5,17.9,94.6,17.9c-0.1-0.1-0.1-0.1,0-0.2l4.2-1.9c0.1-0.1,0.1-0.1,0.1,0c0.1,0.1,0.1,0.1,0,0.1
		L94.6,17.9L94.6,17.9z M95.7,19.7C95.6,19.7,95.6,19.7,95.7,19.7l-1.2-1.8c0-0.1,0-0.1,0-0.2c0.1,0,0.1,0,0.1,0l1.1,1.8
		C95.8,19.6,95.8,19.6,95.7,19.7C95.7,19.7,95.7,19.7,95.7,19.7z M94.6,17.9L94.6,17.9c-0.1,0-0.1-0.1-0.1-0.1l1.4-3.8
		c0-0.1,0-0.1,0.1-0.1c0.1,0,0.1,0,0,0.1l-1.3,3.8C94.7,17.9,94.6,17.9,94.6,17.9z M98.9,18.9l-4.3-1c-0.1,0-0.1-0.1-0.1-0.1
		c0-0.1,0-0.1,0.1-0.1l4.3,1c0.1,0.1,0.1,0.1,0.1,0.1C98.9,18.9,98.9,18.9,98.9,18.9z M94.9,32.1c-0.1,0-0.1,0-0.1-0.1l0.4-3
		c0-0.1,0-0.1,0.1-0.1c0.1,0.1,0.1,0.1,0.1,0.1L95,32C95,32.1,95,32.1,94.9,32.1z M94.9,32.1C94.9,32.1,94.8,32,94.9,32.1
		c-0.1-0.1-0.1-0.2,0-0.2l2.9-2.2c0.1,0,0.1,0,0.1,0c0.1,0.1,0.1,0.1,0,0.1L94.9,32.1C94.9,32.1,94.9,32.1,94.9,32.1z M94.9,32.1
		C94.8,32.1,94.8,32.1,94.9,32.1c-0.1-0.2-0.1-0.2,0-0.2l4.8-1.4c0.1,0,0.1,0,0.1,0.1c0,0.1,0,0.1-0.1,0.1L94.9,32.1L94.9,32.1z
		 M97.2,33.5C97.2,33.4,97.2,33.4,97.2,33.5L94.8,32c0,0,0,0,0-0.1c0.1-0.1,0.1-0.1,0.2,0l2.4,1.4c0.1,0.1,0.1,0.1,0,0.1L97.2,33.5
		C97.3,33.5,97.2,33.5,97.2,33.5z M95.3,29C95.2,29,95.2,29,95.3,29c-0.2-0.1-0.1-0.2,0-0.2l2.5-0.9c0.1,0,0.1,0,0.2,0
		c0,0.1,0,0.1-0.1,0.1L95.3,29L95.3,29z M97.8,29.9L97.8,29.9L95.2,29c-0.1,0-0.1,0,0-0.1c0-0.1,0-0.1,0.1,0l2.5,0.8
		c0.1,0.1,0.1,0.1,0.1,0.1C97.9,29.9,97.8,29.9,97.8,29.9z M98.3,21L98.3,21l-2.7-1.4c-0.1,0-0.1,0,0-0.1c0.1-0.1,0.1-0.1,0.1,0
		l2.6,1.4C98.5,20.8,98.5,20.9,98.3,21C98.4,21,98.3,21,98.3,21z M95.7,19.7C95.6,19.7,95.6,19.7,95.7,19.7c-0.1-0.2-0.1-0.2,0-0.2
		l3.2-0.8c0,0,0.1,0,0.1,0.1c0,0.1,0,0.1-0.1,0.1L95.7,19.7L95.7,19.7z M98.8,16C98.7,16,98.7,15.9,98.8,16L95.9,14
		c-0.1,0-0.1,0,0-0.1c0,0,0.1,0,0.1,0l2.8,1.9C98.9,15.8,98.9,15.8,98.8,16C98.8,15.9,98.8,16,98.8,16z M97.2,33.5
		C97.2,33.4,97.2,33.4,97.2,33.5c-0.1-0.1-0.1-0.1,0-0.2l2.4-2.8c0,0,0.1,0,0.1,0c0,0.1,0,0.1,0,0.1l-2.4,2.8L97.2,33.5
		C97.3,33.5,97.2,33.5,97.2,33.5z M97.8,28.2C97.8,28.1,97.8,28.1,97.8,28.2c-0.1-0.1-0.1-0.1-0.1-0.2l1.5-2.3
		c0.1-0.1,0.1-0.1,0.2,0c0,0,0,0.1,0,0.1l-1.5,2.3C97.9,28.1,97.8,28.2,97.8,28.2z M97.8,29.9L97.8,29.9c-0.1-0.1-0.1-0.2,0-0.2
		l4.8-3.1c0.1-0.1,0.1-0.1,0.1,0c0.1,0.1,0.1,0.1,0,0.2L97.8,29.9C97.9,29.8,97.8,29.8,97.8,29.9C97.8,29.9,97.8,29.9,97.8,29.9z
		 M97.8,28.2C97.7,28.2,97.7,28.1,97.8,28.2c-0.1-0.2-0.1-0.2,0-0.2l4.8-1.4c0,0,0.1,0,0.1,0.1c0,0.1,0,0.1-0.1,0.1L97.8,28.2
		C97.8,28.1,97.8,28.2,97.8,28.2z M97.8,29.9c-0.1,0-0.1,0-0.1-0.1V28c0-0.1,0-0.1,0.1-0.1c0.1,0,0.1,0,0.1,0.1v1.7
		C97.9,29.8,97.9,29.9,97.8,29.9z M99.7,30.7L99.7,30.7l-2-0.8c0,0,0,0,0-0.1c0.1-0.1,0.1-0.1,0.1,0l1.9,0.8
		C99.8,30.5,99.8,30.6,99.7,30.7C99.8,30.7,99.7,30.7,99.7,30.7z M98.3,21L98.3,21c-0.1,0-0.1,0-0.1-0.1l0.6-2.1
		c0-0.1,0-0.1,0.1-0.1c0.1,0.1,0.1,0.1,0.1,0.1L98.3,21C98.4,21,98.4,21,98.3,21z M103.8,22.1L103.8,22.1L98.3,21
		c-0.1,0-0.1,0-0.1-0.1c0-0.1,0-0.1,0.1-0.1l5.4,1.1C103.8,21.9,103.8,21.9,103.8,22.1C103.8,22.1,103.8,22.1,103.8,22.1z M99.4,23
		C99.4,23,99.3,23,99.4,23l-1.2-2c0-0.1,0-0.1,0-0.1c0.1,0,0.1,0,0.2,0l1.1,2C99.5,22.9,99.5,23,99.4,23L99.4,23z M99.7,16.8
		L99.7,16.8l-1-0.9c-0.1-0.1-0.1-0.1,0-0.2c0.1-0.1,0.1-0.1,0.2,0l0.9,0.9C99.8,16.7,99.8,16.8,99.7,16.8L99.7,16.8z M98.9,18.9
		C98.8,18.9,98.8,18.9,98.9,18.9l-0.2-3.1c-0.1-0.1,0-0.1,0.1-0.1c0,0,0.1,0,0.1,0.1l0.1,3C99,18.9,99,18.9,98.9,18.9z M98.9,18.9
		L98.9,18.9c-0.1,0-0.2,0-0.1-0.1l0.8-2.1c0.1-0.1,0.1-0.1,0.1-0.1c0.1,0,0.1,0.1,0.1,0.2L99,18.9C99,18.9,98.9,18.9,98.9,18.9z
		 M103.8,22.1L103.8,22.1l-4.9-3.2c-0.1-0.1-0.1-0.1,0-0.2c0,0,0.1,0,0.2,0l4.8,3.2C103.9,22,103.9,22,103.8,22.1
		C103.8,22.1,103.8,22.1,103.8,22.1z M98.9,18.9C98.8,18.9,98.8,18.9,98.9,18.9c-0.1-0.2-0.1-0.2,0-0.2l4.3-0.6c0.1,0,0.1,0,0.1,0.1
		c0,0.1,0,0.1-0.1,0.1L98.9,18.9L98.9,18.9z M99.3,25.8L99.3,25.8c-0.1-0.1-0.1-0.1,0-0.2l4.4-3.7c0.1-0.1,0.1-0.1,0.2,0
		c0,0.1,0,0.1,0,0.2L99.3,25.8C99.4,25.8,99.3,25.8,99.3,25.8z M99.3,25.8c-0.1-0.1-0.1-0.1-0.1-0.1l0.1-2.8c0-0.1,0-0.1,0.1-0.1
		c0.1,0,0.1,0,0.1,0.1l-0.1,2.8C99.4,25.8,99.4,25.8,99.3,25.8z M102.6,26.8l-3.3-1c-0.1,0-0.1,0-0.1-0.1c0-0.1,0-0.1,0.1,0l3.3,0.9
		c0.1,0.1,0.1,0.1,0.1,0.1C102.7,26.7,102.6,26.8,102.6,26.8z M99.4,23C99.3,23,99.3,23,99.4,23c-0.1-0.2-0.1-0.2,0-0.2l4.3-0.9
		c0.1,0,0.1,0,0.1,0c0,0.1,0,0.1-0.1,0.1L99.4,23L99.4,23z M103.2,14.2h-3.6c-0.1,0-0.1,0-0.1-0.1c0-0.1,0-0.1,0.1-0.1h3.6
		C103.3,14,103.3,14,103.2,14.2C103.3,14.1,103.3,14.2,103.2,14.2z M99.7,16.8C99.7,16.8,99.6,16.8,99.7,16.8
		c-0.1-0.1-0.1-0.1-0.1-0.2l3.5-2.7c0.1-0.1,0.1-0.1,0.2,0c0,0.1,0,0.1,0,0.2L99.7,16.8L99.7,16.8z M99.6,30.7
		c-0.1-0.1-0.1-0.1,0-0.2l2.9-3.9c0.1-0.1,0.1-0.1,0.2,0c0.1,0,0.1,0,0,0.1l-2.9,3.9L99.6,30.7L99.6,30.7z M103.5,34.2
		C103.5,34.2,103.4,34.2,103.5,34.2C103.4,34.1,103.4,34.1,103.5,34.2l-3.8-3.5c-0.1-0.1-0.1-0.1,0-0.2c0,0,0.1,0,0.1,0l3.8,3.4
		C103.6,34,103.6,34.1,103.5,34.2C103.5,34.1,103.5,34.1,103.5,34.2C103.5,34.2,103.5,34.2,103.5,34.2z M99.7,16.8
		c-0.1,0-0.1,0-0.1-0.1V14c0-0.1,0-0.1,0.1-0.1c0.1,0,0.1,0,0.1,0.1L99.7,16.8C99.8,16.8,99.8,16.8,99.7,16.8z M103.2,18.3l-3.5-1.4
		c-0.1,0-0.1,0-0.1-0.1c0.1-0.1,0.1-0.1,0.1,0l3.5,1.4c0.1,0,0.1,0.1,0.1,0.1L103.2,18.3L103.2,18.3z M99.7,30.7
		C99.6,30.7,99.6,30.7,99.7,30.7c-0.1-0.2-0.1-0.2,0-0.2l2.9-0.6c0,0,0.1,0,0.1,0.1c0,0.1,0,0.1-0.1,0.1L99.7,30.7
		C99.7,30.7,99.7,30.7,99.7,30.7z M99.7,34.1c-0.1,0-0.1,0-0.1-0.1v-3.4c0-0.1,0-0.1,0.1-0.1c0.1,0,0.1,0,0.1,0.1V34
		C99.8,34.1,99.8,34.1,99.7,34.1z M103.5,34.2l-3.8,0c-0.1,0-0.1,0-0.1-0.1c0-0.1,0-0.1,0.1-0.1l3.8,0c0.1,0,0.1,0,0.1,0.1
		C103.6,34.1,103.6,34.2,103.5,34.2z M105.6,34.1l-3.1-4c-0.1-0.1-0.1-0.1,0-0.1c0,0,0.1,0,0.1,0l3.1,4c0,0.1,0,0.1,0,0.1H105.6
		L105.6,34.1z M102.6,26.8c-0.1,0-0.2,0-0.1-0.1l1.1-4.7c0.1-0.1,0.1-0.1,0.1,0c0.1,0,0.1,0,0.1,0.1l-1.1,4.6
		C102.7,26.7,102.6,26.8,102.6,26.8z M103.5,34.2C103.4,34.2,103.4,34.1,103.5,34.2l-1-4.2c-0.1-0.1-0.1-0.1,0.1-0.1
		c0,0,0.1,0,0.1,0.1l0.9,4.1C103.6,34.1,103.6,34.1,103.5,34.2L103.5,34.2z M102.6,30.1c0,0-0.1,0-0.1-0.1c0-0.1,0-0.1,0.1-0.1
		l3-0.5c0,0,0.1,0,0.1,0.1c0,0.1,0,0.1-0.1,0.1L102.6,30.1z M105.6,29.6C105.6,29.6,105.6,29.5,105.6,29.6l-3.1-2.8
		c-0.1-0.1-0.1-0.1,0-0.2c0.1-0.1,0.1-0.1,0.2,0l3,2.8C105.7,29.5,105.7,29.5,105.6,29.6C105.7,29.5,105.7,29.6,105.6,29.6z
		 M102.6,26.8C102.5,26.8,102.5,26.7,102.6,26.8c-0.1-0.1-0.1-0.1,0-0.2l3.1-1.3c0,0,0.1,0,0.1,0c0,0.1,0,0.1,0,0.1L102.6,26.8
		L102.6,26.8z M102.6,30.1C102.5,30.1,102.5,30.1,102.6,30.1l-0.1-3.4c0-0.1,0-0.1,0.1-0.1c0.1,0,0.1,0,0.1,0.1V30
		C102.7,30.1,102.7,30.1,102.6,30.1z M103.2,14.2c-0.1,0-0.1,0-0.1-0.1c0-0.1,0-0.1,0.1-0.1l2.4,0c0.1,0,0.1,0,0.1,0.1
		c0,0.1,0,0.1-0.1,0.1L103.2,14.2z M103.2,18.3c-0.1,0-0.1,0-0.1-0.1v-4.1c0-0.1,0-0.1,0.1-0.1c0.1,0,0.1,0,0.1,0.1v4.1
		C103.3,18.2,103.3,18.3,103.2,18.3z M103.8,22.1c-0.1,0-0.1,0-0.1-0.1l-0.5-3.8c0-0.1,0-0.1,0.1-0.1c0.1,0,0.1,0,0.1,0.1
		L103.8,22.1C103.8,22.1,103.8,22.1,103.8,22.1z M105.6,19.2L105.6,19.2l-2.4-0.9c-0.1,0-0.1-0.1-0.1-0.1c0-0.1,0.1-0.1,0.1-0.1
		l2.4,0.9c0.1,0,0.1,0,0.1,0.1C105.7,19.1,105.7,19.2,105.6,19.2z M105.6,19.2L105.6,19.2l-2.5-5c-0.1,0,0-0.1,0-0.2
		c0.1,0,0.1,0,0.1,0.1l2.4,5C105.8,19.1,105.7,19.1,105.6,19.2C105.7,19.1,105.7,19.1,105.6,19.2C105.7,19.2,105.7,19.2,105.6,19.2z
		 M103.5,34.2c-0.1,0-0.1,0-0.1-0.1c0-0.1,0-0.1,0.1-0.1l2.2,0c0.1,0,0.1,0,0.1,0.1c0,0.1,0,0.1-0.1,0.1L103.5,34.2z M103.8,22.1
		L103.8,22.1c-0.1,0-0.1-0.1-0.1-0.1l1.9-3c0.1-0.1,0.1-0.1,0.2,0c0,0,0,0.1,0,0.1L103.8,22.1C103.8,22.1,103.8,22.1,103.8,22.1z
		 M105.7,25.4c-0.1,0-0.1,0-0.1,0l-1.9-3.3c-0.1,0-0.1-0.1,0-0.1c0.1,0,0.1,0,0.2,0l1.9,3.3C105.8,25.3,105.7,25.4,105.7,25.4
		L105.7,25.4z M105.6,17.3c-0.1,0-0.1,0-0.1-0.1V14c0-0.1,0-0.1,0.1-0.1c0.1,0,0.1,0,0.1,0.1v3.1C105.8,17.2,105.7,17.3,105.6,17.3z
		 M105.6,19.2c-0.1,0-0.1,0-0.1-0.1v-1.9c0-0.1,0-0.1,0.1-0.1c0.1,0,0.1,0,0.1,0.1V19C105.8,19.1,105.7,19.2,105.6,19.2z
		 M105.7,25.4c-0.1,0-0.1,0-0.1-0.1V19c0-0.1,0-0.1,0.1-0.1c0.1,0,0.1,0,0.1,0.1L105.7,25.4C105.8,25.4,105.7,25.4,105.7,25.4z
		 M105.6,29.6C105.6,29.6,105.6,29.5,105.6,29.6l-0.1-4.2c0-0.1,0-0.1,0.1-0.1c0.1,0,0.1,0,0.1,0.1v4.2
		C105.8,29.5,105.7,29.6,105.6,29.6z M105.7,34.1c-0.1,0-0.1,0-0.1-0.1v-4.5c0-0.1,0-0.1,0.1-0.1c0.1,0,0.1,0,0.1,0.1V34
		C105.8,34.1,105.7,34.1,105.7,34.1z"/>
	<path id="XMLID_454_" fill="none" stroke="#ABD1DD" stroke-width="0.5" stroke-miterlimit="10" d="M115.2,16.3
		C115.2,16.3,115.2,16.3,115.2,16.3l-1.6-2.3c-0.1-0.1-0.1-0.1,0-0.1c0,0,0.1,0,0.1,0l1.5,2.2C115.3,16.2,115.3,16.3,115.2,16.3
		L115.2,16.3z M113.7,18.9C113.7,18.9,113.7,18.9,113.7,18.9c-0.1,0-0.2-0.1-0.1-0.2l1.5-2.6c0.1-0.1,0.1-0.1,0.2,0c0,0,0,0,0,0.1
		L113.7,18.9C113.8,18.9,113.7,18.9,113.7,18.9z M116.5,27.2L116.5,27.2l-2.8-1c-0.1,0-0.1,0,0-0.1c0-0.1,0-0.1,0.1-0.1l2.8,1
		c0.1,0,0.1,0,0.1,0.1C116.5,27.1,116.5,27.2,116.5,27.2z M116.7,22.2C116.7,22.2,116.6,22.2,116.7,22.2
		C116.6,22.1,116.6,22.1,116.7,22.2l-3-3.3c-0.1-0.1-0.1-0.1,0-0.2c0.1,0,0.1,0,0.2,0l3,3.2C116.8,22,116.8,22.1,116.7,22.2
		C116.7,22.1,116.7,22.1,116.7,22.2C116.7,22.2,116.7,22.2,116.7,22.2z M113.7,18.9c-0.1,0-0.1,0-0.1-0.1l0-4.8c0-0.1,0-0.1,0.1-0.1
		c0.1,0,0.1,0,0.1,0.1l0,4.8C113.8,18.9,113.8,18.9,113.7,18.9z M117.5,14.2l-3.8-0.1c-0.1,0-0.1,0-0.1-0.1c0-0.1,0-0.1,0.1-0.1
		l3.8,0.1c0.1,0,0.1,0,0.1,0.1C117.6,14.1,117.6,14.2,117.5,14.2z M116.7,22.2h-3c-0.1,0-0.1,0-0.1-0.1c0-0.1,0-0.1,0.1-0.1h3
		C116.7,22,116.8,22,116.7,22.2C116.8,22.1,116.7,22.2,116.7,22.2z M113.7,34.1c-0.1,0-0.1,0-0.1-0.1l0-3.9c0-0.1,0-0.1,0.1-0.1
		c0.1,0,0.1,0,0.1,0.1L113.7,34.1C113.8,34.1,113.8,34.1,113.7,34.1z M119.7,34.1h-6c-0.1,0-0.1,0-0.1-0.1c0-0.1,0-0.1,0.1-0.1h6
		C119.7,33.9,119.8,34,119.7,34.1C119.8,34.1,119.7,34.1,119.7,34.1z M113.7,26.2L113.7,26.2c-0.1-0.1-0.1-0.1-0.1-0.2l3-4
		c0-0.1,0.1-0.1,0.2,0c0,0,0,0.1,0,0.2L113.7,26.2C113.8,26.2,113.8,26.2,113.7,26.2z M113.7,18.9C113.7,18.9,113.6,18.9,113.7,18.9
		c-0.1-0.2-0.1-0.2,0-0.2l3.8-0.6c0.1,0,0.1,0,0.1,0.1c0,0.1,0,0.1-0.1,0.1L113.7,18.9L113.7,18.9z M113.7,34.1
		C113.7,34.1,113.7,34.1,113.7,34.1C113.7,34.1,113.7,34.1,113.7,34.1c-0.1-0.1-0.1-0.1,0-0.2l3.4-2.3c0.1,0,0.1,0,0.2,0
		c0,0,0,0.1,0,0.1L113.7,34.1C113.8,34.1,113.7,34.1,113.7,34.1z M113.7,30.2L113.7,30.2c-0.1-0.1-0.1-0.1,0-0.2l2.8-3.1
		c0-0.1,0-0.1,0.1,0c0.1,0.1,0.1,0.1,0,0.2L113.7,30.2C113.8,30.2,113.8,30.2,113.7,30.2z M113.7,22.2c-0.1,0-0.1,0-0.1-0.1v-3.2
		c0-0.1,0-0.1,0.1-0.1c0.1,0,0.1,0,0.1,0.1V22C113.8,22.1,113.8,22.2,113.7,22.2z M113.7,26.2C113.7,26.2,113.6,26.2,113.7,26.2
		l-0.1-4.2c0-0.1,0-0.1,0.1-0.1c0.1,0,0.1,0,0.1,0.1v4.1C113.8,26.2,113.8,26.2,113.7,26.2z M113.7,30.2
		C113.7,30.2,113.6,30.2,113.7,30.2l-0.1-4.1c0-0.1,0-0.1,0.1-0.1c0.1,0,0.1,0,0.1,0.1v4C113.8,30.2,113.8,30.2,113.7,30.2z
		 M117.2,31.8L117.2,31.8l-3.5-1.6c0,0,0-0.1,0-0.1c0-0.1,0.1-0.1,0.1-0.1l3.5,1.6C117.3,31.6,117.4,31.7,117.2,31.8
		C117.3,31.8,117.3,31.8,117.2,31.8z M115.2,16.3L115.2,16.3c-0.1-0.1-0.1-0.1-0.1-0.2l2.3-2.2c0.1-0.1,0.1-0.1,0.2,0
		c0.1,0.1,0.1,0.1,0,0.2L115.2,16.3L115.2,16.3z M117.4,18.2l-2.3-1.9c-0.1-0.1-0.1-0.1,0-0.2c0,0,0.1,0,0.1,0l2.3,1.9
		c0,0,0,0.1,0,0.2H117.4L117.4,18.2z M116.5,27.2L116.5,27.2c-0.1-0.1-0.1-0.1,0-0.2l3.2-3.3c0.1-0.1,0.1-0.1,0.2,0
		c0.1,0.1,0.1,0.1,0,0.2L116.5,27.2C116.5,27.1,116.5,27.2,116.5,27.2z M116.5,27.2c-0.1-0.1-0.1-0.1-0.1-0.1l0.2-5
		c0-0.1,0-0.1,0.1-0.1c0.1,0,0.1,0,0.1,0.1l-0.2,5C116.6,27.1,116.6,27.2,116.5,27.2z M117.2,31.8c-0.1,0-0.1,0-0.1-0.1l-0.7-4.7
		c0-0.1,0-0.1,0.1-0.1c0.1-0.1,0.1-0.1,0.1,0.1l0.7,4.7C117.3,31.8,117.3,31.8,117.2,31.8z M119.7,28.7
		C119.7,28.7,119.7,28.7,119.7,28.7l-3.2-1.6c0,0,0,0,0-0.1c0.1-0.1,0.1-0.1,0.2,0l3.2,1.6c0,0,0,0,0,0.1
		C119.7,28.7,119.7,28.7,119.7,28.7z M116.6,22.1c-0.1-0.1-0.1-0.1,0-0.1l3.7-1.2c0.1,0,0.1,0,0.2,0.1c0,0.1,0,0.1-0.1,0.1l-3.7,1.2
		L116.6,22.1C116.6,22.2,116.6,22.1,116.6,22.1z M119.7,23.8L119.7,23.8l-3-1.7c-0.1,0-0.1,0,0-0.1c0.1-0.1,0.1-0.1,0.1,0l3,1.7
		C119.8,23.7,119.8,23.7,119.7,23.8C119.8,23.8,119.7,23.8,119.7,23.8z M116.7,22.2L116.7,22.2c-0.1,0-0.1-0.1-0.1-0.1l0.8-3.9
		c0-0.1,0-0.2,0.1-0.1c0.1,0,0.1,0,0.1,0.1l-0.8,3.9C116.7,22.1,116.7,22.2,116.7,22.2z M119.7,34.1
		C119.7,34.1,119.6,34.1,119.7,34.1l-2.6-2.3c-0.1-0.1-0.1-0.1,0-0.2c0,0,0.1,0,0.2,0l2.5,2.3C119.8,34,119.8,34,119.7,34.1
		C119.7,34.1,119.7,34.1,119.7,34.1C119.7,34.1,119.7,34.1,119.7,34.1z M117.2,31.8C117.2,31.8,117.2,31.8,117.2,31.8
		C117.2,31.8,117.1,31.8,117.2,31.8c-0.1-0.1-0.1-0.1-0.1-0.2l2.5-3.1c0-0.1,0-0.1,0.1,0c0.1,0.1,0.1,0.1,0,0.2L117.2,31.8
		C117.3,31.8,117.2,31.8,117.2,31.8C117.2,31.8,117.2,31.8,117.2,31.8z M119.7,16.5L119.7,16.5l-2.2-2.4c-0.1-0.1-0.1-0.1,0-0.2
		c0,0,0.1,0,0.2,0l2.2,2.3C119.8,16.3,119.8,16.4,119.7,16.5C119.7,16.5,119.7,16.5,119.7,16.5z M117.5,18.3L117.5,18.3
		c-0.1-0.1-0.1-0.1-0.1-0.2l2.2-1.8c0.1-0.1,0.1-0.1,0.1,0c0,0.1,0,0.1,0,0.2L117.5,18.3L117.5,18.3z M120.4,20.9
		C120.3,20.9,120.3,20.9,120.4,20.9l-2.9-2.7c-0.1-0.1-0.1-0.1,0-0.2c0,0,0.1,0,0.1,0l2.9,2.7C120.5,20.8,120.5,20.9,120.4,20.9
		C120.4,20.9,120.4,20.9,120.4,20.9z M117.5,14.2c-0.1,0-0.1,0-0.1-0.1c0-0.1,0-0.1,0.1-0.1l2.2-0.1c0.1,0,0.1,0,0.1,0.1
		c0,0.1,0,0.1-0.1,0.1L117.5,14.2z M117.5,18.2c-0.1,0-0.1,0-0.1-0.1V14c0-0.1,0-0.1,0.1-0.1c0.1,0,0.1,0,0.1,0.1L117.5,18.2
		C117.6,18.2,117.6,18.2,117.5,18.2z M119.7,23.8c-0.1,0-0.1,0-0.1-0.1l0.7-2.9c0-0.1,0-0.1,0.1-0.1c0.1,0.1,0.1,0.1,0.1,0.1
		l-0.7,2.9C119.8,23.8,119.7,23.8,119.7,23.8z M122.3,19C122.3,19,122.3,19,122.3,19l-2.7-2.6c-0.1-0.1-0.1-0.1,0-0.2
		c0,0,0.1,0,0.1,0l2.6,2.6C122.4,18.9,122.4,18.9,122.3,19C122.4,19,122.3,19,122.3,19z M119.7,16.5c-0.1,0-0.1,0-0.1-0.1V14
		c0-0.1,0-0.1,0.1-0.1c0.1,0,0.1,0,0.1,0.1v2.4C119.8,16.4,119.8,16.5,119.7,16.5z M119.7,16.5L119.7,16.5c-0.1-0.1-0.1-0.2,0-0.2
		l3.1-2.2c0,0,0.1,0,0.2,0c0,0.1,0,0.1,0,0.1L119.7,16.5C119.7,16.4,119.7,16.4,119.7,16.5C119.7,16.5,119.7,16.5,119.7,16.5z
		 M119.7,16.5c-0.1,0-0.1,0-0.1-0.1c0-0.1,0-0.1,0.1-0.1l5-0.2c0.1,0,0.1,0,0.1,0.1c0,0.1,0,0.1-0.1,0.1L119.7,16.5L119.7,16.5z
		 M120.4,20.9C120.3,20.9,120.3,20.9,120.4,20.9l-0.8-4.6c0-0.1,0-0.1,0.1-0.1c0.1-0.1,0.1-0.1,0.1,0.1l0.7,4.4
		C120.5,20.9,120.5,20.9,120.4,20.9L120.4,20.9z M119.7,28.7c-0.1,0-0.1,0-0.1-0.1v-4.8c0-0.1,0-0.1,0.1-0.1c0.1,0,0.1,0,0.1,0.1
		v4.8C119.8,28.7,119.8,28.7,119.7,28.7z M119.7,34.1c-0.1,0-0.1,0-0.1-0.1v-5.4c0-0.1,0-0.1,0.1-0.1c0.1,0,0.1,0,0.1,0.1V34
		C119.8,34.1,119.8,34.1,119.7,34.1z M120.4,20.9C120.3,20.9,120.3,20.9,120.4,20.9c-0.1-0.1-0.1-0.1-0.1-0.2l2-1.9
		c0.1-0.1,0.1-0.1,0.2,0c0,0.1,0,0.1,0,0.1L120.4,20.9C120.4,20.9,120.4,20.9,120.4,20.9z M122.3,19L122.3,19
		c-0.1-0.1-0.1-0.1-0.1-0.2l2.4-2.7c0,0,0.1,0,0.1,0c0.1,0.1,0.1,0.1,0,0.2L122.3,19C122.4,19,122.3,19,122.3,19z M124.8,19h-2.4
		c-0.1,0-0.1,0-0.1-0.1c0-0.1,0-0.1,0.1-0.1h2.4C124.8,18.8,124.8,18.8,124.8,19C124.8,19,124.8,19,124.8,19z M124.8,16.3
		L124.8,16.3l-2-2c-0.1-0.1-0.1-0.1,0-0.2c0.1,0,0.1,0,0.1,0l1.9,2C124.9,16.2,124.9,16.3,124.8,16.3L124.8,16.3z M122.8,14.3
		C122.7,14.3,122.7,14.3,122.8,14.3c-0.1-0.2-0.1-0.2,0-0.2l3.2-0.7c0.1,0,0.1,0,0.1,0.1c0,0.1,0,0.1-0.1,0.1L122.8,14.3L122.8,14.3
		z M126.4,21.3L126.4,21.3l-1.7-2.3c-0.1-0.1-0.1-0.1,0-0.1c0.1,0,0.1,0,0.2,0l1.6,2.3C126.5,21.1,126.5,21.2,126.4,21.3L126.4,21.3
		z M124.7,16.3c-0.1,0-0.1,0-0.1-0.1l1.2-2.8c0,0,0.1,0,0.2,0c0.1,0.1,0.1,0.1,0,0.1l-1.2,2.8L124.7,16.3L124.7,16.3z M124.8,16.3
		c-0.1,0-0.1,0-0.1,0c0-0.1,0-0.1,0.1-0.1l4.4-1.9c0.1-0.1,0.1-0.1,0.1,0c0.1,0.1,0.1,0.1,0,0.1L124.8,16.3L124.8,16.3z M124.8,19
		c-0.1,0-0.1,0-0.1-0.1v-2.7c0-0.1,0-0.1,0.1-0.1c0.1,0,0.1,0,0.1,0.1v2.6C124.8,19,124.8,19,124.8,19z M128.9,19.3l-4.1-0.3
		c-0.1,0-0.1,0-0.1-0.1c0.1-0.1,0.1-0.1,0.1-0.1l4.1,0.3C129,19.1,129,19.2,128.9,19.3C129,19.3,128.9,19.3,128.9,19.3z M128.9,19.3
		L128.9,19.3l-4.2-3c0,0,0-0.1,0-0.2c0-0.1,0-0.1,0.1,0l4.1,3C129,19.2,129,19.3,128.9,19.3C128.9,19.3,128.9,19.3,128.9,19.3z
		 M129.1,14.4L129.1,14.4l-3.2-0.8c-0.1,0-0.1,0-0.1-0.1c0-0.1,0.1-0.1,0.1-0.1l3.1,0.8C129.2,14.3,129.2,14.3,129.1,14.4
		C129.2,14.4,129.2,14.4,129.1,14.4z M126.4,21.3L126.4,21.3c-0.1-0.1-0.1-0.1-0.1-0.2l2.5-1.9c0.1-0.1,0.1-0.1,0.2,0
		c0.1,0.1,0.1,0.1,0,0.1L126.4,21.3L126.4,21.3z M130.2,24.2L130.2,24.2l-3.8-2.9c-0.1,0-0.1-0.1,0-0.1c0.1-0.1,0.1-0.1,0.1,0
		l3.8,2.9C130.3,24,130.3,24,130.2,24.2C130.2,24.1,130.2,24.2,130.2,24.2z M126.7,23.8c0,0-0.1,0-0.1-0.1l-0.3-2.6
		c0-0.1,0-0.1,0.1-0.1c0.1,0,0.1,0,0.1,0.1L126.7,23.8C126.9,23.8,126.8,23.8,126.7,23.8z M126.6,34.1
		C126.6,34.1,126.6,34.1,126.6,34.1C126.6,34.1,126.6,34.1,126.6,34.1c-0.1-0.1-0.1-0.1,0-0.2l2-1.4c0.1,0,0.1,0,0.1,0
		c0.1,0.1,0,0.1,0,0.2L126.6,34.1C126.7,34.1,126.7,34.1,126.6,34.1z M126.6,34.1c-0.1,0-0.1,0-0.1-0.1l0-3.8c0-0.1,0-0.1,0.1-0.1
		c0.1,0,0.1,0,0.1,0.1l0,3.8C126.8,34.1,126.7,34.1,126.6,34.1z M126.6,34.1c-0.1,0-0.1,0-0.1-0.1c0-0.1,0-0.1,0.1-0.1h6
		c0.1,0,0.1,0,0.1,0.1c0,0.1,0,0.1-0.1,0.1H126.6z M126.7,27.2L126.7,27.2c-0.1-0.1-0.1-0.1,0-0.2l3.4-3c0.1-0.1,0.1-0.1,0.2,0
		c0.1,0.1,0.1,0.1,0,0.1L126.7,27.2C126.7,27.1,126.7,27.2,126.7,27.2z M128.7,32.7C128.6,32.7,128.6,32.7,128.7,32.7l-2-2.5
		c-0.1,0-0.1-0.1,0-0.1c0.1-0.1,0.1-0.1,0.2,0l2,2.5C128.8,32.6,128.8,32.7,128.7,32.7L128.7,32.7z M130.2,24.2l-3.4-0.3
		c-0.1,0-0.1,0-0.1-0.1c0.1-0.1,0.1-0.1,0.1-0.1l3.4,0.3C130.2,24,130.3,24,130.2,24.2C130.2,24.1,130.2,24.2,130.2,24.2z
		 M126.7,27.2c-0.1,0-0.1,0-0.1-0.1v-3.3c0-0.1,0-0.1,0.1-0.1c0.1,0,0.1,0,0.1,0.1V27C126.8,27.1,126.8,27.2,126.7,27.2z
		 M130.1,28.7l-3.5-1.6c0,0,0,0,0-0.1c0.1-0.1,0.1-0.1,0.1,0l3.5,1.6c0,0,0,0.1,0,0.1L130.1,28.7L130.1,28.7z M126.7,30.2
		c-0.1,0-0.1,0-0.1-0.1V27c0-0.1,0-0.1,0.1-0.1c0.1,0,0.1,0,0.1,0.1L126.7,30.2C126.8,30.2,126.8,30.2,126.7,30.2z M126.7,30.2
		C126.7,30.2,126.6,30.2,126.7,30.2c-0.1-0.1-0.1-0.1,0-0.2l3.4-1.5c0,0,0.1,0,0.1,0c0,0.1,0,0.1,0,0.2L126.7,30.2L126.7,30.2z
		 M128.7,32.7L128.7,32.7c-0.1-0.1-0.1-0.1-0.1-0.1l1.4-4c0.1-0.1,0.1-0.1,0.1,0c0.1,0,0.1,0,0.1,0.1L128.7,32.7
		C128.8,32.7,128.7,32.7,128.7,32.7z M132.7,34.1L132.7,34.1l-4-1.4c-0.1-0.1-0.1-0.1,0-0.1c0-0.1,0-0.1,0.1-0.1l4,1.4
		c0.1,0,0.1,0,0.1,0.1C132.7,34.1,132.7,34.1,132.7,34.1z M128.9,19.3C128.9,19.3,128.8,19.3,128.9,19.3c-0.2,0-0.2-0.1-0.1-0.2
		l2.4-2.8c0,0,0.1,0,0.1,0c0,0,0,0.1,0,0.2L128.9,19.3C128.9,19.3,128.9,19.3,128.9,19.3z M128.9,19.3c-0.1,0-0.1,0-0.1-0.1l0.2-4.9
		c0-0.1,0-0.1,0.1-0.1c0.1,0,0.1,0,0.1,0.1L128.9,19.3C129,19.3,128.9,19.3,128.9,19.3z M130.2,24.2
		C130.1,24.2,130.1,24.1,130.2,24.2l-1.4-4.9c0-0.1,0-0.1,0.1-0.1c0.1,0,0.1,0,0.1,0.1l1.3,4.8C130.3,24.1,130.3,24.2,130.2,24.2
		L130.2,24.2z M132.5,19.6l-3.6-0.2c-0.1,0-0.1,0-0.1-0.1c0-0.1,0-0.1,0.1-0.1l3.6,0.2C132.5,19.4,132.6,19.5,132.5,19.6
		C132.6,19.5,132.5,19.6,132.5,19.6z M131.2,16.5L131.2,16.5l-2.2-2.1c-0.1-0.1-0.1-0.1,0-0.2c0.1-0.1,0.1-0.1,0.2,0l2.1,2.1
		C131.3,16.4,131.3,16.4,131.2,16.5L131.2,16.5z M132.6,27.2L132.6,27.2l-2.5-3c-0.1-0.1-0.1-0.1,0-0.1c0.1-0.1,0.1-0.1,0.2,0l2.4,3
		C132.7,27,132.7,27.1,132.6,27.2L132.6,27.2z M130.2,28.7c-0.1,0-0.1,0-0.1-0.1v-4.5c0-0.1,0-0.1,0.1-0.1c0.1,0,0.1,0,0.1,0.1v4.5
		C130.2,28.7,130.2,28.7,130.2,28.7z M132.7,34.1L132.7,34.1l-2.6-5.5c0-0.1,0-0.1,0.1-0.1c0,0,0.1,0,0.1,0l2.6,5.4
		C132.8,34,132.8,34.1,132.7,34.1C132.7,34.1,132.7,34.1,132.7,34.1C132.7,34.1,132.7,34.1,132.7,34.1z M130.1,28.7
		c0-0.1,0-0.1,0-0.2l2.4-1.6c0.1,0,0.1,0,0.2,0c0,0,0,0.1,0,0.1l-2.4,1.6H130.1L130.1,28.7z M130.2,24.2L130.2,24.2
		c-0.1-0.1-0.1-0.1-0.1-0.2l2.3-4.6c0-0.1,0-0.1,0.1,0c0.1,0,0.1,0,0,0.1L130.2,24.2C130.2,24.1,130.2,24.2,130.2,24.2z M130.2,24.2
		C130.1,24.2,130.1,24.1,130.2,24.2c-0.1-0.1-0.1-0.1,0-0.2l2.5-1.2c0.1,0,0.1,0,0.2,0c0,0.1,0,0.1,0,0.1L130.2,24.2L130.2,24.2z
		 M132.5,19.6C132.4,19.6,132.4,19.5,132.5,19.6l-1.4-3.1c0-0.1,0-0.1,0.1-0.1c0,0,0.1,0,0.1,0l1.2,3.1
		C132.6,19.5,132.6,19.6,132.5,19.6L132.5,19.6z M132.7,23c-0.1,0-0.1,0-0.1-0.1l-0.2-3.4c0,0,0-0.1,0.1-0.1c0.1,0,0.1,0,0.1,0.1
		l0.2,3.4C132.8,22.9,132.8,23,132.7,23z M132.7,27.6c-0.1,0-0.1,0-0.1-0.1v-4.7c0-0.1,0-0.1,0.1-0.1c0.1,0,0.1,0,0.1,0.1v4.7
		C132.8,27.6,132.8,27.6,132.7,27.6z M132.7,31.3c-0.1,0-0.1,0-0.1-0.1v-3.7c0-0.1,0-0.1,0.1-0.1c0.1,0,0.1,0,0.1,0.1L132.7,31.3
		C132.8,31.3,132.8,31.3,132.7,31.3z M132.7,34.1c-0.1,0-0.1,0-0.1-0.1v-2.8c0-0.1,0-0.1,0.1-0.1c0.1,0,0.1,0,0.1,0.1V34
		C132.8,34.1,132.8,34.1,132.7,34.1z"/>
	<path id="XMLID_539_" fill="none" stroke="#ABD1DD" stroke-width="0.5" stroke-miterlimit="10" d="M140.6,23.7
		c-0.1,0-0.1,0-0.1-0.1l0.7-3.7c0-0.1,0-0.1,0.1-0.1c0.1,0.1,0.1,0.1,0.1,0.1l-0.7,3.7C140.8,23.7,140.7,23.7,140.6,23.7z
		 M140.6,23.7C140.6,23.7,140.6,23.7,140.6,23.7c-0.1-0.1-0.1-0.2,0-0.2l3.3-2.8c0,0,0.1,0,0.1,0c0.1,0.1,0.1,0.1,0,0.2L140.6,23.7
		C140.7,23.7,140.7,23.7,140.6,23.7z M141.3,28.3C141.3,28.3,141.2,28.3,141.3,28.3l-0.8-4.7c0-0.1,0-0.1,0.1-0.1
		c0.1,0,0.1,0,0.1,0.1l0.7,4.6C141.4,28.2,141.4,28.3,141.3,28.3z M144,25.2L144,25.2l-3.4-1.5c0,0,0-0.1,0-0.2c0,0,0.1,0,0.1,0
		L144,25C144.1,25.1,144.1,25.1,144,25.2C144,25.2,144,25.2,144,25.2z M143.9,20.9L143.9,20.9l-2.6-1c-0.1,0-0.1,0,0-0.1
		c0-0.1,0-0.1,0.1-0.1l2.6,1c0.1,0,0.1,0,0.1,0.1C144,20.9,144,20.9,143.9,20.9z M144.8,28.9l-3.5-0.6c-0.1,0-0.2,0-0.1-0.1
		c0-0.1,0-0.1,0.1-0.1l3.5,0.6c0.1,0,0.1,0,0.1,0.1C144.9,28.9,144.9,28.9,144.8,28.9z M141.3,28.3
		C141.3,28.3,141.3,28.3,141.3,28.3c-0.1-0.1-0.1-0.1-0.1-0.2l2.6-3.1c0.1-0.1,0.1-0.1,0.2,0c0,0.1,0,0.1,0,0.1L141.3,28.3
		C141.4,28.3,141.3,28.3,141.3,28.3z M141.3,20L141.3,20c-0.1-0.1-0.1-0.1-0.1-0.1l1.8-3.3c0.1-0.1,0.1-0.1,0.1,0
		c0.1,0,0.1,0.1,0,0.1L141.3,20C141.4,19.9,141.4,20,141.3,20z M143.2,31.8C143.1,31.8,143.1,31.8,143.2,31.8l-1.9-3.6
		c0-0.1,0-0.1,0-0.2c0.1-0.1,0.1-0.1,0.1,0l1.8,3.5C143.3,31.7,143.3,31.8,143.2,31.8L143.2,31.8z M146,33.8
		C146,33.8,145.9,33.8,146,33.8l-2.9-2c-0.1-0.1-0.1-0.1,0-0.2c0,0,0.1,0,0.2,0l2.8,2C146.1,33.7,146.1,33.7,146,33.8
		C146.1,33.8,146,33.8,146,33.8z M143.2,16.7C143.1,16.7,143.1,16.7,143.2,16.7C143.1,16.7,143.1,16.7,143.2,16.7
		c-0.1-0.1-0.1-0.1,0-0.2l3.3-2.5c0.1-0.1,0.1-0.1,0.2,0c0,0.1,0,0.1,0,0.2L143.2,16.7C143.2,16.7,143.2,16.7,143.2,16.7
		C143.2,16.7,143.2,16.7,143.2,16.7z M143.9,20.9C143.9,20.9,143.8,20.9,143.9,20.9l-0.8-4.3c-0.1-0.1,0-0.1,0.1-0.1
		c0,0,0.1,0,0.1,0.1l0.8,4.2C144,20.9,144,20.9,143.9,20.9L143.9,20.9z M143.2,31.8L143.2,31.8c-0.1-0.1-0.1-0.1-0.1-0.2l1.7-2.9
		c0.1-0.1,0.1-0.1,0.1,0c0.1,0,0.1,0.1,0,0.1L143.2,31.8C143.2,31.8,143.2,31.8,143.2,31.8z M147.8,17.6l-4.7-0.8
		c-0.1-0.1-0.1-0.1-0.1-0.1c0-0.1,0-0.1,0.1-0.1l4.6,0.8c0.1,0,0.1,0,0.1,0.1C147.9,17.5,147.9,17.6,147.8,17.6z M147.4,22.2
		L147.4,22.2l-3.5-1.3c-0.1,0-0.1,0,0-0.1c0-0.1,0-0.1,0.1,0l3.5,1.2C147.5,22.1,147.5,22.1,147.4,22.2
		C147.5,22.2,147.5,22.2,147.4,22.2z M143.9,20.9L143.9,20.9c-0.1,0-0.1-0.1,0-0.2l3.9-3.4c0.1-0.1,0.1-0.1,0.2,0
		c0.1,0.1,0.1,0.1,0,0.1L143.9,20.9L143.9,20.9z M144.8,28.9C144.8,28.9,144.8,28.9,144.8,28.9l-1-3.8c-0.1-0.1-0.1-0.1,0-0.1
		c0.1,0,0.1,0,0.1,0.1l0.9,3.7C145,28.8,144.9,28.9,144.8,28.9L144.8,28.9z M144,25.2C143.9,25.2,143.9,25.2,144,25.2
		c-0.1-0.1-0.1-0.1-0.1-0.2l3.4-3c0.1-0.1,0.1-0.1,0.2,0c0.1,0.1,0.1,0.1,0,0.2L144,25.2C144,25.2,144,25.2,144,25.2z M143.9,20.9
		C143.9,20.9,143.8,20.9,143.9,20.9c-0.1-0.1-0.1-0.2,0-0.2l5.5-1c0.1,0,0.1,0,0.1,0.1c0,0.1,0,0.1-0.1,0.1L143.9,20.9L143.9,20.9z
		 M144,25.2C143.9,25.2,143.9,25.2,144,25.2l-0.1-4.4c0-0.1,0-0.1,0.1-0.1c0.1,0,0.1,0,0.1,0.1l0,4.3C144.1,25.2,144,25.2,144,25.2z
		 M147,25.2l-3,0c-0.1,0-0.1,0-0.1-0.1c0-0.1,0-0.1,0.1-0.1l3,0C147.1,25,147.1,25.1,147,25.2C147.1,25.2,147.1,25.2,147,25.2z
		 M144.8,28.9L144.8,28.9c-0.1,0-0.2-0.1-0.1-0.2l2.2-3.7c0,0,0,0,0.1,0c0.1,0.1,0.1,0.1,0,0.2L144.8,28.9
		C144.9,28.9,144.9,28.9,144.8,28.9z M144.8,28.9c-0.1,0-0.1,0-0.1-0.1c-0.1-0.1,0-0.1,0.1-0.1l3.8-0.6c0.1,0,0.1,0,0.1,0.1
		c0.1,0.1,0.1,0.1-0.1,0.1L144.8,28.9L144.8,28.9z M146,33.8c0,0-0.1,0-0.1-0.1l-1.1-4.9c-0.1-0.1,0-0.1,0.1-0.1c0,0,0.1,0,0.1,0.1
		l1.1,4.9C146.2,33.8,146.1,33.8,146,33.8z M148.6,31.2l-3.8-2.3c-0.1-0.1-0.1-0.1,0-0.1c0.1-0.1,0.1-0.1,0.1,0l3.8,2.3
		c0,0,0,0,0,0.1L148.6,31.2L148.6,31.2z M145.9,33.8c-0.1,0-0.1-0.1,0-0.1l2.6-2.6c0,0,0.1,0,0.1,0c0.1,0.1,0.1,0.1,0,0.2l-2.6,2.6
		H145.9C146,33.8,145.9,33.8,145.9,33.8z M149.7,34.4l-3.7-0.6c-0.1,0-0.1,0-0.1-0.1c0.1-0.1,0.1-0.1,0.1-0.1l3.7,0.6
		c0.1,0,0.1,0,0.1,0.1C149.7,34.4,149.7,34.4,149.7,34.4z M146.5,14.2c-0.1,0-0.1,0-0.1-0.1c0-0.1,0-0.1,0.1-0.1l3.9-0.4
		c0.1,0,0.1,0,0.1,0.1c0,0.1,0,0.1-0.1,0.1L146.5,14.2z M147.8,17.6C147.8,17.6,147.8,17.5,147.8,17.6l-1.5-3.4c0-0.1,0-0.1,0.1-0.2
		c0.1,0,0.1,0,0.1,0.1l1.4,3.4C147.9,17.5,147.9,17.5,147.8,17.6L147.8,17.6z M148.6,28.3L148.6,28.3l-1.7-3.1c-0.1,0,0-0.1,0-0.2
		c0.1,0,0.1,0,0.1,0l1.6,3C148.7,28.2,148.7,28.2,148.6,28.3L148.6,28.3z M147,25.2c-0.1,0-0.1,0-0.1-0.1l0.4-3
		c0.1-0.1,0.1-0.1,0.1-0.1c0.1,0,0.2,0,0.1,0.1l-0.4,3C147.1,25.2,147,25.2,147,25.2z M147.4,22.2C147.4,22.2,147.3,22.2,147.4,22.2
		c-0.2,0-0.2-0.1-0.1-0.2l2-2.2c0,0,0.1,0,0.1,0c0,0.1,0,0.1,0,0.1L147.4,22.2C147.5,22.2,147.4,22.2,147.4,22.2z M147.8,17.6
		L147.8,17.6c-0.1-0.1-0.1-0.1-0.1-0.2l2.5-3.8c0,0,0.1,0,0.2,0c0,0,0,0.1,0,0.2L147.8,17.6C147.9,17.5,147.9,17.6,147.8,17.6z
		 M149.4,20C149.4,20,149.4,19.9,149.4,20l-1.7-2.4c-0.1,0,0-0.1,0-0.2c0.1,0,0.1,0,0.1,0l1.6,2.4C149.5,19.9,149.5,19.9,149.4,20
		L149.4,20z M147.8,17.6C147.8,17.6,147.8,17.5,147.8,17.6c-0.1-0.2-0.1-0.2,0-0.2l3.5-0.4c0,0,0.1,0,0.1,0.1c0,0.1,0,0.1-0.1,0.1
		L147.8,17.6z M148.6,31.2C148.6,31.2,148.6,31.2,148.6,31.2c-0.1-0.1-0.1-0.1-0.1-0.2l3.2-2.3c0,0,0.1,0,0.1,0
		c0.1,0.1,0.1,0.1,0,0.1L148.6,31.2L148.6,31.2z M151.8,29l-3.2-0.7c-0.1,0-0.1,0-0.1-0.1c0-0.1,0-0.2,0.1-0.1l3.2,0.7
		c0.1,0,0.1,0,0.1,0.1C151.9,28.9,151.9,29,151.8,29z M148.6,31.2c-0.1,0-0.1,0-0.1-0.1v-3c0-0.1,0-0.1,0.1-0.1c0.1,0,0.1,0,0.1,0.1
		L148.6,31.2C148.7,31.2,148.7,31.2,148.6,31.2z M149.7,34.4C149.6,34.4,149.6,34.4,149.7,34.4l-1.2-3.3c0-0.1,0-0.1,0.1-0.1
		c0.1-0.1,0.1-0.1,0.1,0l1.1,3.2C149.8,34.3,149.8,34.4,149.7,34.4L149.7,34.4z M149.4,20c-0.1-0.1-0.1-0.1,0-0.2l1.9-2.8
		c0,0,0.1,0,0.1,0c0.1,0.1,0.1,0.1,0,0.2l-1.9,2.8L149.4,20L149.4,20z M149.4,20c-0.1,0-0.1,0-0.1-0.1c0-0.1,0-0.1,0.1-0.1l3.3,0
		c0.1,0,0.1,0,0.1,0.1c0,0.1,0,0.1-0.1,0.1L149.4,20z M149.7,34.4C149.6,34.4,149.6,34.4,149.7,34.4c-0.1-0.1-0.1-0.1,0-0.2L153,33
		c0.1,0,0.1,0,0.1,0c0,0.1,0,0.1,0,0.2L149.7,34.4L149.7,34.4z M149.7,34.4L149.7,34.4c-0.1-0.1-0.1-0.1-0.1-0.2l2.2-5.5
		c0-0.1,0-0.1,0.1,0c0.1,0,0.1,0,0.1,0.1l-2.2,5.5C149.7,34.4,149.7,34.4,149.7,34.4z M151.4,17.2C151.3,17.2,151.3,17.1,151.4,17.2
		l-1.1-3.5c0-0.1,0-0.1,0.1-0.1c0,0,0.1,0,0.1,0.1l1,3.4C151.5,17.1,151.5,17.2,151.4,17.2L151.4,17.2z M153,14.7L153,14.7l-2.7-1
		c-0.1,0-0.1-0.1-0.1-0.1c0-0.1,0.1-0.1,0.1-0.1l2.7,1C153.2,14.5,153.2,14.5,153,14.7C153.1,14.7,153.1,14.7,153,14.7z M151.4,17.2
		L151.4,17.2c-0.1-0.1-0.1-0.1-0.1-0.2l1.7-2.5c0-0.1,0.1-0.1,0.1,0c0.1,0.1,0.1,0.1,0,0.1L151.4,17.2
		C151.4,17.1,151.4,17.2,151.4,17.2z M151.4,17.2C151.3,17.2,151.3,17.1,151.4,17.2c-0.1-0.2-0.1-0.2,0-0.2l4-0.4
		c0.1,0,0.1,0,0.1,0.1c0,0.1,0,0.1-0.1,0.1L151.4,17.2z M152.7,19.9C152.7,19.9,152.6,19.9,152.7,19.9l-1.4-2.8c0-0.1,0-0.1,0-0.2
		c0.1,0,0.1,0,0.1,0l1.4,2.8C152.9,19.9,152.9,19.9,152.7,19.9L152.7,19.9z M153,33.2C153,33.2,153,33.1,153,33.2l-1.3-4.3
		c-0.1-0.1-0.1-0.1,0.1-0.1c0.1,0,0.1,0,0.1,0.1l1.2,4.2C153.1,33.1,153.1,33.1,153,33.2L153,33.2z M151.8,29
		C151.8,29,151.8,29,151.8,29C151.8,28.9,151.8,28.9,151.8,29c-0.1-0.1-0.1-0.1,0-0.2l2.4-1.4c0.1,0,0.1,0,0.2,0c0,0.1,0,0.1,0,0.2
		L151.8,29C151.9,28.9,151.9,29,151.8,29z M152.7,19.9L152.7,19.9c-0.1-0.1-0.1-0.1-0.1-0.2l2.6-3.2c0.1-0.1,0.1-0.1,0.2,0
		c0,0.1,0,0.1,0,0.1L152.7,19.9C152.8,19.9,152.8,19.9,152.7,19.9z M154.8,21.9L154.8,21.9l-2.1-2c-0.1-0.1-0.1-0.1,0-0.2
		c0.1-0.1,0.1-0.1,0.2,0l2,2C154.9,21.8,154.9,21.8,154.8,21.9L154.8,21.9z M155.4,16.8C155.3,16.8,155.3,16.7,155.4,16.8l-2.4-2.1
		c-0.1-0.1-0.1-0.1,0-0.2c0.1-0.1,0.1-0.1,0.2,0l2.3,2.1C155.5,16.7,155.5,16.7,155.4,16.8C155.4,16.7,155.4,16.8,155.4,16.8z
		 M153,33.2C153,33.2,153,33.1,153,33.2c-0.1-0.1-0.1-0.1-0.1-0.2l2.4-2.5c0,0,0.1,0,0.1,0c0,0.1,0,0.1,0,0.1L153,33.2
		C153.1,33.1,153.1,33.2,153,33.2z M153,33.2L153,33.2c-0.1,0-0.1,0-0.1-0.1l1.2-5.6c0.1-0.1,0.1-0.1,0.1-0.1c0.1,0,0.1,0,0.1,0.1
		L153,33.2C153.1,33.1,153.1,33.2,153,33.2z M154.2,27.5L154.2,27.5c-0.1-0.1-0.1-0.1-0.1-0.1l1.1-3.4c0-0.1,0-0.1,0.1,0
		c0.1,0,0.1,0,0,0.1L154.2,27.5C154.3,27.5,154.3,27.5,154.2,27.5z M154.2,27.5c-0.1,0-0.1,0-0.1-0.1c0-0.1,0-0.1,0.1-0.1l4-0.3
		c0.1,0,0.1,0,0.1,0.1c0,0.1,0,0.1-0.1,0.1L154.2,27.5z M155.4,30.7C155.3,30.7,155.3,30.7,155.4,30.7l-1.3-3.2c0,0,0-0.1,0.1-0.1
		c0.1,0,0.1,0,0.1,0.1l1.2,3.2C155.5,30.6,155.5,30.7,155.4,30.7L155.4,30.7z M154.7,21.9c-0.1-0.1-0.1-0.1,0-0.2l2.2-1.7
		c0.1,0,0.1,0,0.2,0c0.1,0.1,0.1,0.1,0,0.1l-2.2,1.7H154.7L154.7,21.9z M154.8,21.9L154.8,21.9c-0.1,0-0.1,0-0.1-0.1l0.6-5.2
		c0-0.1,0-0.1,0.1-0.1c0.1,0,0.1,0,0.1,0.1L154.8,21.9C154.8,21.9,154.8,21.9,154.8,21.9z M155.3,24.1
		C155.2,24.1,155.2,24.1,155.3,24.1l-0.6-2.2c0-0.1,0-0.1,0.1-0.1c0.1-0.1,0.1-0.1,0.1,0.1l0.5,2.2C155.4,24,155.4,24.1,155.3,24.1
		L155.3,24.1z M158.3,23.2L158.3,23.2l-3.6-1.3c-0.1,0-0.1-0.1-0.1-0.2c0.1-0.1,0.1-0.1,0.1,0l3.6,1.4
		C158.4,23.1,158.4,23.1,158.3,23.2C158.4,23.2,158.4,23.2,158.3,23.2z M158.3,27.2L158.3,27.2l-3.1-3.2c-0.1-0.1-0.1-0.1,0-0.2
		c0.1-0.1,0.1-0.1,0.2,0l3,3.2C158.4,27.1,158.4,27.2,158.3,27.2L158.3,27.2z M155.3,24.1C155.2,24.1,155.2,24.1,155.3,24.1
		c-0.1-0.1-0.1-0.2,0-0.2l3-0.9c0.1,0,0.1,0,0.1,0.1c0,0.1,0,0.1-0.1,0.1L155.3,24.1L155.3,24.1z M158.1,17.6l-2.7-0.8
		c-0.1,0-0.2,0-0.1-0.1c0-0.1,0-0.1,0.1-0.1l2.7,0.8c0.1,0,0.1,0,0.1,0.1C158.1,17.5,158.1,17.6,158.1,17.6z M158.5,3h-3.2
		c-0.1,0-0.1,0-0.1-0.1c0-0.1,0-0.1,0.1-0.1h3.2C158.6,2.8,158.6,2.9,158.5,3C158.6,3,158.6,3,158.5,3z M155.4,6.2
		c-0.1,0-0.1,0-0.1-0.1l0-3.1c0-0.1,0-0.1,0.1-0.1c0.1,0,0.1,0,0.1,0.1l0,3.1C155.5,6.1,155.4,6.2,155.4,6.2z M157,20.2
		c0,0-0.1,0-0.1-0.1l-1.6-3.4c0-0.1,0-0.1,0-0.2c0.1,0,0.1,0,0.2,0.1L157,20C157.1,20.1,157.1,20.1,157,20.2L157,20.2z M155.4,6.2
		C155.3,6.2,155.3,6.1,155.4,6.2c-0.1-0.1-0.1-0.1,0-0.2l3.1-3.1c0.1-0.1,0.1-0.1,0.2,0c0,0.1,0,0.1,0,0.1L155.4,6.2
		C155.4,6.1,155.4,6.2,155.4,6.2z M158.1,8L158.1,8l-2.8-1.9c0,0,0-0.1,0-0.1c0.1-0.1,0.1-0.1,0.2,0l2.7,1.8
		C158.2,7.9,158.2,7.9,158.1,8C158.2,8,158.1,8,158.1,8z M155.4,9.9c-0.1,0-0.1,0-0.1-0.1V6c0-0.1,0-0.1,0.1-0.1
		c0.1,0,0.1,0,0.1,0.1v3.7C155.5,9.8,155.4,9.9,155.4,9.9z M155.4,9.9L155.4,9.9c-0.1-0.1-0.1-0.2,0-0.2l2.7-1.9c0.1,0,0.1,0,0.1,0
		c0.1,0.1,0.1,0.1,0,0.2L155.4,9.9C155.4,9.8,155.4,9.8,155.4,9.9C155.4,9.9,155.4,9.9,155.4,9.9z M158.5,12.3
		C158.5,12.3,158.5,12.3,158.5,12.3l-3.2-2.4c0,0,0-0.1,0-0.1c0.1-0.1,0.1-0.1,0.2,0l3.1,2.4C158.6,12.1,158.7,12.2,158.5,12.3
		C158.6,12.3,158.5,12.3,158.5,12.3z M155.4,13.4c-0.1,0-0.1,0-0.1-0.1V9.8c0-0.1,0-0.1,0.1-0.1c0.1,0,0.1,0,0.1,0.1v3.5
		C155.5,13.3,155.4,13.4,155.4,13.4z M155.4,13.4C155.3,13.4,155.3,13.3,155.4,13.4c-0.1-0.2-0.1-0.2,0-0.2l3.1-1.1
		c0.1,0,0.1,0,0.1,0.1c0,0,0,0.1,0,0.1L155.4,13.4C155.4,13.3,155.4,13.4,155.4,13.4z M158.1,17.6C158.1,17.6,158,17.6,158.1,17.6
		C158,17.5,158,17.5,158.1,17.6l-2.8-4.3c0-0.1,0-0.1,0-0.1c0,0,0.1,0,0.2,0l2.7,4.2C158.2,17.5,158.2,17.5,158.1,17.6L158.1,17.6z
		 M155.4,16.8C155.3,16.8,155.3,16.7,155.4,16.8l-0.1-3.5c0-0.1,0-0.1,0.1-0.1c0.1,0,0.1,0,0.1,0.1v3.4
		C155.5,16.7,155.4,16.8,155.4,16.8z M155.4,30.7L155.4,30.7c-0.1-0.1-0.1-0.1,0-0.2l2.8-3.4c0,0,0.1,0,0.1,0c0.1,0.1,0.1,0.1,0,0.2
		L155.4,30.7C155.5,30.7,155.5,30.7,155.4,30.7z M155.5,34.1c-0.1,0-0.1,0-0.1-0.1l-0.1-3.4c0-0.1,0-0.1,0.1-0.1
		c0.1,0,0.1,0,0.1,0.1l0.1,3.4C155.6,34.1,155.6,34.1,155.5,34.1z M158.3,31l-2.9-0.4c-0.1,0-0.1,0-0.1-0.1c0-0.1,0-0.1,0.1-0.1
		l2.9,0.4c0.1,0.1,0.1,0.1,0.1,0.1C158.4,31,158.4,31,158.3,31z M157.4,34.1l-2.1-3.4c0-0.1,0-0.1,0-0.1c0.1-0.1,0.1-0.1,0.2,0
		l2.1,3.4c0.1,0.1,0.1,0.1,0,0.1H157.4L157.4,34.1z M157.5,34.1h-2c-0.1,0-0.1,0-0.1-0.1c0-0.1,0-0.1,0.1-0.1h2
		C157.6,33.9,157.6,34,157.5,34.1C157.6,34.1,157.6,34.1,157.5,34.1z M157,20.2L157,20.2c-0.1,0-0.1-0.1-0.1-0.2l1.2-2.6
		c0,0,0,0,0.1,0c0.1,0.1,0.1,0.1,0.1,0.1L157,20.2C157,20.2,157,20.2,157,20.2z M161.4,21.2l-4.4-1c-0.1,0-0.1,0-0.1-0.1
		c0.1-0.1,0.1-0.1,0.1-0.1l4.4,1c0.1,0,0.1,0,0.1,0.1C161.5,21.1,161.4,21.2,161.4,21.2z M158.3,23.2c-0.1,0-0.1,0-0.1,0l-1.4-3.1
		c0-0.1,0-0.1,0.1-0.1c0.1,0,0.1,0,0.1,0l1.4,3.1C158.4,23.2,158.4,23.2,158.3,23.2L158.3,23.2z M157.5,34.1c-0.1,0-0.1,0-0.1-0.1
		c0-0.1,0-0.1,0.1-0.1h3.8c0.1,0,0.1,0,0.1,0.1c0,0.1,0,0.1-0.1,0.1H157.5z M157.5,34.1L157.5,34.1c-0.1-0.1-0.1-0.1-0.1-0.1
		l0.8-3.1c0-0.1,0-0.1,0.1-0.1c0.1,0.1,0.1,0.1,0.1,0.2L157.5,34.1C157.6,34.1,157.6,34.1,157.5,34.1z M161.4,21.2
		C161.3,21.2,161.3,21.1,161.4,21.2l-3.4-3.6c-0.1-0.1-0.1-0.1,0-0.1c0,0,0.1,0,0.1,0l3.3,3.6C161.5,21.1,161.5,21.1,161.4,21.2
		C161.4,21.1,161.4,21.2,161.4,21.2z M161.4,17.7l-3.3-0.1c-0.1,0-0.1,0-0.1-0.1c0-0.1,0-0.1,0.1-0.1l3.3,0.1c0.1,0,0.1,0,0.1,0.1
		C161.5,17.6,161.5,17.7,161.4,17.7z M161.4,11.1C161.3,11.1,161.3,11.1,161.4,11.1L158,8c-0.1-0.1-0.1-0.1,0-0.1
		c0.1-0.1,0.1-0.1,0.2,0l3.3,3.1C161.5,11,161.5,11,161.4,11.1C161.4,11.1,161.4,11.1,161.4,11.1z M158.1,17.6
		C158.1,17.6,158,17.5,158.1,17.6c-0.1-0.1-0.1-0.1-0.1-0.2l2.3-2.5c0.1-0.1,0.1-0.1,0.2,0c0,0,0,0.1,0,0.2L158.1,17.6
		C158.2,17.5,158.1,17.6,158.1,17.6z M158.1,8C158,8,158,8,158.1,8c-0.1-0.1-0.1-0.1,0-0.2l3.3-0.9c0,0,0.1,0,0.1,0
		c0,0.1,0,0.1-0.1,0.1L158.1,8L158.1,8z M158.1,8C158,8,158,8,158,7.9l0.4-5c0.1-0.1,0.1-0.1,0.1-0.1c0.1,0,0.1,0,0.1,0.1l-0.4,5
		C158.2,8,158.2,8,158.1,8z M158.5,12.3c0,0-0.1,0-0.1-0.1L158,7.9c0-0.1,0-0.1,0.1-0.1c0.1,0,0.1,0,0.1,0.1l0.4,4.3
		C158.6,12.2,158.6,12.3,158.5,12.3z M158.1,17.6c-0.1,0-0.1,0-0.1-0.1l0.4-5.3c0.1-0.1,0.1-0.1,0.1-0.1c0.1,0,0.1,0,0.1,0.1
		l-0.4,5.3C158.2,17.5,158.2,17.6,158.1,17.6z M158.3,27.2C158.2,27.2,158.2,27.2,158.3,27.2c-0.2-0.1-0.1-0.2,0-0.2l3.1-1.7
		c0.1,0,0.1,0,0.1,0c0,0.1,0,0.1,0,0.2L158.3,27.2L158.3,27.2z M161.4,29.5L161.4,29.5l-3.2-2.3c-0.1,0-0.1-0.1,0-0.1
		c0-0.1,0.1-0.1,0.1,0l3.1,2.2C161.5,29.3,161.5,29.4,161.4,29.5C161.4,29.5,161.4,29.5,161.4,29.5z M158.3,27.2
		c-0.1,0-0.1,0-0.1-0.1l0-4c0-0.1,0-0.1,0.1-0.1c0.1,0.1,0.1,0.1,0.1,0.1L158.3,27.2C158.4,27.2,158.3,27.2,158.3,27.2z M158.3,31
		C158.2,31,158.2,31,158.3,31l-0.1-3.9c0-0.1,0-0.1,0.1-0.1c0.1,0,0.1,0,0.1,0.1l0,3.8C158.4,31,158.4,31,158.3,31z M158.3,23.2
		C158.3,23.2,158.2,23.2,158.3,23.2c-0.1-0.1-0.1-0.1-0.1-0.2l3.1-2.1c0.1,0,0.1,0,0.2,0c0,0.1,0,0.1,0,0.1L158.3,23.2L158.3,23.2z
		 M161.4,25.6C161.4,25.6,161.3,25.6,161.4,25.6l-3.2-2.4c-0.1-0.1-0.1-0.1,0-0.2c0-0.1,0-0.1,0.1,0l3.1,2.3
		C161.5,25.5,161.5,25.5,161.4,25.6C161.5,25.6,161.4,25.6,161.4,25.6z M161.4,34.1C161.3,34.1,161.3,34.1,161.4,34.1l-3.1-3.1
		c-0.1-0.1-0.1-0.1,0-0.2c0,0,0.1,0,0.1,0l3.1,3C161.5,34,161.5,34,161.4,34.1C161.4,34.1,161.4,34.1,161.4,34.1z M158.3,31
		C158.3,31,158.2,31,158.3,31c-0.1-0.1-0.1-0.2,0-0.2l3.1-1.6c0.1,0,0.1,0,0.2,0c0,0.1,0,0.1,0,0.1L158.3,31L158.3,31z M161.4,7.1
		L161.4,7.1L158.4,3c-0.1-0.1-0.1-0.1,0-0.1c0,0,0.1,0,0.1,0l2.8,4C161.5,7,161.5,7,161.4,7.1C161.4,7,161.4,7,161.4,7.1
		C161.4,7.1,161.4,7.1,161.4,7.1z M158.5,3c-0.1,0-0.1,0-0.1-0.1c0-0.1,0-0.1,0.1-0.1h2.8c0.1,0,0.1,0,0.1,0.1c0,0.1,0,0.1-0.1,0.1
		H158.5z M160.4,15C160.3,15,160.3,15,160.4,15l-1.9-2.8c-0.1-0.1,0-0.1,0-0.2c0.1,0,0.1,0,0.1,0l1.8,2.8
		C160.5,15,160.5,15,160.4,15L160.4,15z M158.5,12.3C158.5,12.3,158.4,12.3,158.5,12.3c-0.1-0.1-0.1-0.1,0-0.2l2.8-1.2
		c0.1,0,0.1,0,0.2,0c0,0.1,0,0.1-0.1,0.2L158.5,12.3L158.5,12.3z M161.4,17.7c0,0-0.1,0-0.1-0.1l-1-2.6c-0.1-0.1,0-0.1,0-0.1
		c0.1,0,0.1,0,0.2,0l1,2.6C161.5,17.6,161.5,17.6,161.4,17.7L161.4,17.7z M160.4,15c-0.1,0-0.1,0-0.1-0.1l1-4c0-0.1,0-0.1,0.1-0.1
		c0.1,0,0.1,0,0.1,0.1l-1,4C160.5,15,160.4,15,160.4,15z M161.4,7.1c-0.1,0-0.1,0-0.1-0.1v-4c0-0.1,0-0.1,0.1-0.1
		c0.1,0,0.1,0,0.1,0.1v4C161.5,7,161.4,7.1,161.4,7.1z M161.4,11.1c-0.1,0-0.1,0-0.1-0.1V7c0-0.1,0-0.1,0.1-0.1c0.1,0,0.1,0,0.1,0.1
		v4C161.5,11,161.4,11.1,161.4,11.1z M161.4,17.7c-0.1,0-0.1,0-0.1-0.1V11c0-0.1,0-0.1,0.1-0.1c0.1,0,0.1,0,0.1,0.1v6.6
		C161.5,17.6,161.5,17.7,161.4,17.7z M161.4,21.2c-0.1,0-0.1,0-0.1-0.1v-3.5c0-0.1,0-0.1,0.1-0.1c0.1,0,0.1,0,0.1,0.1v3.5
		C161.5,21.1,161.4,21.2,161.4,21.2z M161.4,25.6c-0.1,0-0.1,0-0.1-0.1v-4.4c0-0.1,0-0.1,0.1-0.1c0.1,0,0.1,0,0.1,0.1v4.4
		C161.5,25.6,161.5,25.6,161.4,25.6z M161.4,29.5c-0.1,0-0.1,0-0.1-0.1v-3.9c0-0.1,0-0.1,0.1-0.1c0.1,0,0.1,0,0.1,0.1v3.9
		C161.5,29.5,161.4,29.5,161.4,29.5z M161.4,34.1c-0.1,0-0.1,0-0.1-0.1v-4.6c0-0.1,0-0.1,0.1-0.1c0.1,0,0.1,0,0.1,0.1V34
		C161.5,34.1,161.4,34.1,161.4,34.1z"/>
</g>
<polygon id="XMLID_68_" opacity="0.62" fill="#ABD1DD" points="174,34 203.5,8.6 220,34 "/>
<polygon id="XMLID_69_" opacity="0.84" fill="#ABD1DD" points="207.9,34 184.3,13.6 171,34 "/>
</svg>
